<?xml version="1.0" encoding="utf-8"?>
<svg viewBox="75.805 200 636.517 57.536" xmlns="http://www.w3.org/2000/svg">
  <g id="SvgjsG1008" transform="matrix(1, 0, 0, 1, -4.860123, 154.097458)">
    <svg xmlns="http://www.w3.org/2000/svg" width="288" height="288" viewBox="0 0 210 297" transform="matrix(1, 0, 0, 1, -3.0610365539053275, -14.157314281007217)">
      <rect width="120.806" height="59.334" x="39.686" y="47.337" fill="#42628c" fill-rule="evenodd" opacity=".999" ry="29.667" class="color42628c svgShape"/>
    </svg>
  </g>
  <g id="g-1" transform="matrix(1, 0, 0, 1, 125.831612, 154.097458)">
    <svg xmlns="http://www.w3.org/2000/svg" width="288" height="288" viewBox="0 0 210 297" transform="matrix(1, 0, 0, 1, -3.0610365539053275, -14.157314281007217)">
      <rect width="120.806" height="59.334" x="39.686" y="47.337" fill="#42628c" fill-rule="evenodd" opacity=".999" ry="29.667" class="color42628c svgShape"/>
    </svg>
  </g>
  <g id="g-3" transform="matrix(1, 0, 0, 1, 255.012238, 154.097458)">
    <svg xmlns="http://www.w3.org/2000/svg" width="288" height="288" viewBox="0 0 210 297" transform="matrix(1, 0, 0, 1, -3.0610365539053275, -14.157314281007217)">
      <rect width="120.806" height="59.334" x="39.686" y="47.337" fill="#42628c" fill-rule="evenodd" opacity=".999" ry="29.667" class="color42628c svgShape"/>
    </svg>
  </g>
  <g id="g-2" transform="matrix(1, 0, 0, 1, 384.456177, 154.097458)">
    <svg xmlns="http://www.w3.org/2000/svg" width="288" height="288" viewBox="0 0 210 297" transform="matrix(1, 0, 0, 1, -3.0610365539053275, -14.157314281007217)">
      <rect width="120.806" height="59.334" x="39.686" y="47.337" fill="#42628c" fill-rule="evenodd" opacity=".999" ry="29.667" class="color42628c svgShape"/>
    </svg>
  </g>
  <g id="g-4" transform="matrix(1, 0, 0, 1, 514.511597, 154.097458)">
    <svg xmlns="http://www.w3.org/2000/svg" width="288" height="288" viewBox="0 0 210 297" transform="matrix(1, 0, 0, 1, -3.0610365539053275, -14.157314281007217)">
      <rect width="120.806" height="59.334" x="39.686" y="47.337" fill="#42628c" fill-rule="evenodd" opacity=".999" ry="29.667" class="color42628c svgShape"/>
    </svg>
  </g>
</svg>