<?xml version="1.0" encoding="utf-8"?>
<svg width="210mm" height="297mm" viewBox="4.941 246.056 197.602 5.67" version="1.1" id="svg1191" xmlns="http://www.w3.org/2000/svg">
  <g id="layer1">
    <g id="g2768" transform="matrix(-0.30405055,0,0,0.30405055,49.946181,196.95527)">
      <path id="path339" style="fill:#d61043;fill-opacity:1;fill-rule:nonzero;stroke:none;stroke-width:0.567606" d="m 390.59961,610.35742 0.30273,0.44922 H 391 l 0.5293,-0.004 h 0.002 l 11.11133,-0.0977 6.9668,-0.0625 4.47851,-0.041 -0.002,0.004 h 0.004 l -0.80078,1.58594 -0.002,0.004 v 0.002 l -0.58203,1.15625 -0.56446,1.11914 -0.87304,1.73828 h -0.002 v 0.004 l -0.21289,0.42383 -3.48828,6.92774 -0.0156,0.0215 v 0.004 l -0.84961,1.68359 1.30469,2.3457 3.05273,5.51758 v 0.004 h 0.002 l 7.52539,-0.22656 h 0.002 l 1.32031,-2.63868 v -0.002 l 2.37695,-4.74219 0.82422,-1.65039 h 0.002 l 5.13476,-10.25586 0.61524,-1.22461 h 0.002 l 0.0508,-0.10351 0.85547,-1.70508 6.67383,0.0117 5.2539,0.008 3.17578,0.004 h 0.002 l 0.14257,0.23828 0.17383,0.29297 0.002,0.002 h -0.0117 l 1.26758,2.18945 1.71679,2.96289 2.74024,4.73438 0.002,0.002 1.20898,2.08985 1.66016,2.86914 V 626 l -0.63867,1.11328 -1.93945,3.36524 -0.2168,0.38086 h -0.002 l -4.79297,8.30859 v 0.002 l -21.97461,-1.3125 -2.94336,-0.17187 h -0.004 l -2.44726,3.95312 -1.51368,2.44922 3.2461,5.4043 1.38672,2.30273 1.91015,0.11133 1.02149,0.0586 0.26172,0.0137 6.46093,0.37695 1.45118,0.0781 0.53906,0.0312 0.42773,0.0254 1.08985,0.0645 0.15625,0.008 h 0.008 v 0.004 l 1.1914,0.0703 1.64258,0.0918 0.0195,0.002 0.0723,0.008 h 0.002 l 0.14063,0.008 -0.002,0.002 h 0.004 l -5.58398,9.48242 -0.22461,0.37305 v 0.004 l -1.95313,3.31446 -0.002,0.002 -2.03711,3.46094 -1.96875,3.33789 0.28711,0.59375 1.22266,2.51953 2.35546,4.8789 h 0.004 l 0.0625,-0.008 0.0312,0.0586 8.19336,-0.59179 0.6582,-0.0469 1.91407,-3.375 3.6289,-6.40625 h 0.002 l 0.24609,-0.4375 1.53711,-2.70898 4.10547,-7.24414 0.002,0.002 1.6875,2.56445 v 0.004 l 0.6875,1.04492 v 0.004 l 0.52734,0.80273 0.80274,1.22266 2.03906,3.11133 0.24805,0.3789 1.96484,2.99414 1.04688,1.60352 2.68554,0.0488 6.30664,0.11719 0.004,-0.008 3.56836,-6.6289 -0.58789,-0.89063 -1.03516,-1.57031 -1.27343,-1.93555 -1.64844,-2.5 -9.1875,-13.94922 -0.002,-0.002 6.98047,-12.04492 0.58985,-1.01758 h 0.35547 v 0.002 l -0.008,0.0117 h 0.002 0.004 l 3.36719,-0.008 8.05859,-0.0156 5.73047,-0.0156 0.002,0.002 5.33203,9.19922 2.28711,3.94922 v 0.004 l -1.67188,2.54297 -7.51562,11.4121 -2.91993,4.43165 -0.0937,0.14257 -1.53125,2.31836 3.57227,6.63086 0.002,0.002 v 0.002 l 6.30274,-0.11719 2.68554,-0.0488 1.05274,-1.60351 0.30273,-0.45703 2.38477,-3.63672 1.56641,-2.38672 1.08789,-1.66797 0.24023,-0.36328 0.30273,-0.46094 0.13086,-0.19726 0.25586,-0.38672 1.68555,-2.57618 0.004,0.002 1.25781,2.22265 4.37695,7.74024 h 0.008 v 0.002 l 3.875,6.83789 1.91016,3.375 0.66211,0.0449 8.19727,0.59375 v -0.002 l 0.0254,-0.0566 0.0644,0.004 0.0312,-0.0606 1.95508,-4.03711 0.54101,-1.11914 1.05664,-2.17969 v -0.002 l 0.28516,-0.59375 -1.9668,-3.33789 -3.0625,-5.19922 v -0.004 l -0.92968,-1.57617 v -0.002 l -2.89258,-4.89844 -0.0879,-0.15039 -0.2168,-0.36719 -2.61523,-4.43945 -0.002,-0.004 1.95313,-0.10937 1.11719,-0.0644 v -0.004 -0.002 l 0.32421,-0.0195 0.92774,-0.0508 h 0.004 l 1.56836,-0.0879 0.84961,-0.0488 6.54883,-0.38282 1.19531,-0.0684 1.91016,-0.10742 1.38086,-2.30469 v -0.002 l 1.40234,-2.33203 1.85157,-3.06836 -0.23633,-0.38281 h -0.002 l -3.72656,-6.02344 -2.94531,0.17383 -21.97461,1.3125 v -0.004 l -0.35547,-0.61719 -4.37109,-7.57421 -2.22852,-3.86524 -0.63867,-1.11328 2.87109,-4.95898 1.6875,-2.91407 2.09961,-3.62304 v -0.002 l 1.94141,-3.34961 v -0.002 l 0.30273,-0.53125 4.00977,-0.004 0.29297,-0.002 h 0.63086 0.0937 l 1.71484,-0.002 5.73828,-0.008 2.59766,-0.004 h 0.0254 l 2.27539,4.54297 h 0.002 v 0.002 l 7.58594,15.14258 0.52149,1.04297 h 0.002 v 0.002 l 0.79492,1.58985 h 0.004 l 7.52539,0.22656 h 0.004 l 3.05469,-5.51758 v -0.002 l 1.01953,-1.84375 0.17383,-0.3125 0.0195,-0.0293 0.0879,-0.16211 -0.85742,-1.70898 -2.67969,-5.32032 -0.35742,-0.71679 h -0.004 l -0.25,-0.50196 -0.19726,-0.38867 -0.8086,-1.60351 -0.0898,-0.17579 -0.19531,-0.38476 -0.5625,-1.12109 -1.37891,-2.74805 -0.002,-0.002 0.30859,0.004 11.13672,0.0977 1.39063,0.0137 2.82031,0.0234 6.16211,0.0527 1.36719,0.0117 0.16601,-0.24805 0.18164,-0.26953 h -71.61914 l -0.43945,0.2793 0.008,0.0156 h -0.004 l -0.0176,0.16211 h -0.0234 l -0.20508,5.04102 -0.19336,4.75976 v 0.0312 l -0.043,0.95118 -0.002,0.15625 -0.004,0.0449 -0.0234,0.66211 -0.0391,0.96875 h -0.006 l -0.0351,0.7539 -0.66602,-0.35156 -0.002,0.006 -1.44531,-0.76172 -0.17578,-0.0937 -0.8711,-0.45312 -4.51172,-2.35938 -3.60742,-1.88672 -0.2793,-0.14648 -0.0117,0.0156 -0.0508,-0.0293 -0.008,-0.004 -0.002,-0.008 -0.22852,-0.12305 -0.0137,-0.008 -4.05273,2.11914 -4.51172,2.35742 -0.83985,0.44141 -0.20507,0.10742 -1.44532,0.76172 -0.008,-0.008 -0.66406,0.34961 -0.0312,-0.75 h -0.0117 l -0.0605,-1.63282 h 0.002 l -0.0137,-0.19922 v -0.0332 l -0.0449,-1.12695 -0.15234,-3.76172 -0.0488,-1.14258 -0.17969,-4.42969 -0.0117,-0.28906 h -0.0156 l -0.0215,-0.16211 h -0.008 l 0.008,-0.0137 -0.33204,-0.21094 z" transform="scale(0.26458333)"/>
      <path style="opacity:0.999;fill:none;fill-opacity:1;fill-rule:evenodd;stroke:#d61043;stroke-width:1.41897;stroke-miterlimit:4;stroke-dasharray:none;stroke-dashoffset:0;stroke-opacity:1" d="M 148.0199,161.4904 H -501.88036" id="path2761"/>
    </g>
  </g>
</svg>