<?xml version="1.0" encoding="utf-8"?>
<svg viewBox="0 0 666.66669 666.66669" xmlns="http://www.w3.org/2000/svg">
  <defs>
    <clipPath clipPathUnits="userSpaceOnUse" id="clipPath5926">
      <path d="m 47.25,54.25 h 405.5 v 391.5 H 47.25 Z" id="path5924"/>
    </clipPath>
    <clipPath clipPathUnits="userSpaceOnUse" id="clipPath5940">
      <path d="M 65.9423,239.546 H 434.715 V 416.232 H 65.9423 Z" id="path5938"/>
    </clipPath>
    <clipPath clipPathUnits="userSpaceOnUse" id="clipPath6158">
      <path d="m 258.156,116.293 h 141.178 v 98.974 H 258.156 Z" id="path6156"/>
    </clipPath>
    <clipPath clipPathUnits="userSpaceOnUse" id="clipPath6188">
      <path d="M 100.922,129.723 H 262.161 V 243.91 H 100.922 Z" id="path6186"/>
    </clipPath>
    <clipPath clipPathUnits="userSpaceOnUse" id="clipPath6222">
      <path d="m 47.25,54.25 h 405.5 v 391.5 H 47.25 Z" id="path6220"/>
    </clipPath>
  </defs>
  <g id="g5916" transform="matrix(1.333333, 0, 0, -1.333333, 0, 666.666687)">
    <g id="g5918" transform="matrix(1,0,0,-1,0,500)" style="">
      <g id="g5920">
        <g id="g5922" clip-path="url(#clipPath5926)">
          <g id="g5928" transform="translate(250,54.5)">
            <path d="M 0,0 C 111.8359,0 202.5,87.5273 202.5,195.5 202.5,303.4727 111.8359,391 0,391 -111.8359,391 -202.5,303.4727 -202.5,195.5 -202.5,87.5273 -111.8359,0 0,0 Z" style="fill-opacity: 1; fill-rule: nonzero; stroke: none; fill: rgb(52, 146, 154);" id="path5930"/>
          </g>
        </g>
      </g>
    </g>
    <g id="g5932" transform="matrix(1,0,0,-1,0,500)" style="">
      <g id="g5934">
        <g id="g5936" clip-path="url(#clipPath5940)">
          <g id="g5942" transform="translate(337.5949,367.4638)">
            <path d="M 0,0 C -0.0594,1e-4 -0.1176,3e-4 -0.177,4e-4 -0.121,3e-4 -0.056,1e-4 0,0 Z" style="fill:#ffffff;fill-opacity:1;fill-rule:nonzero;stroke:none" id="path5944"/>
          </g>
          <g id="g5946" transform="translate(338.1095,367.462)">
            <path d="M 0,0 C -0.0594,3e-4 -0.1212,5e-4 -0.1805,7e-4 -0.1202,5e-4 -0.0603,3e-4 0,0 Z" style="fill:#ffffff;fill-opacity:1;fill-rule:nonzero;stroke:none" id="path5948"/>
          </g>
          <g id="g5950" transform="translate(335.3436,367.4599)">
            <path d="M 0,0 C 0.0516,3e-4 0.1013,5e-4 0.1529,8e-4 0.1018,5e-4 0.0511,3e-4 0,0 Z" style="fill:#ffffff;fill-opacity:1;fill-rule:nonzero;stroke:none" id="path5952"/>
          </g>
          <g id="g5954" transform="translate(339.2783,367.4541)">
            <path d="M 0,0 C -0.0736,6e-4 -0.1445,0.0013 -0.2182,0.0019 -0.1451,0.0013 -0.073,6e-4 0,0 Z" style="fill:#ffffff;fill-opacity:1;fill-rule:nonzero;stroke:none" id="path5956"/>
          </g>
          <g id="g5958" transform="translate(334.5452,367.4538)">
            <path d="M 0,0 C 0.0687,6e-4 0.1359,0.0012 0.2047,0.0017 0.1368,0.0012 0.0678,6e-4 0,0 Z" style="fill:#ffffff;fill-opacity:1;fill-rule:nonzero;stroke:none" id="path5960"/>
          </g>
          <g id="g5962" transform="translate(339.7708,367.4493)">
            <path d="M 0,0 C -0.0635,7e-4 -0.1248,0.0013 -0.1883,0.002 -0.1282,0.0013 -0.0601,6e-4 0,0 Z" style="fill:#ffffff;fill-opacity:1;fill-rule:nonzero;stroke:none" id="path5964"/>
          </g>
          <g id="g5966" transform="translate(333.7504,367.4453)">
            <path d="M 0,0 C 0.0771,9e-4 0.1576,0.0019 0.2348,0.0028 0.1567,0.0019 0.0781,0.001 0,0 Z" style="fill:#ffffff;fill-opacity:1;fill-rule:nonzero;stroke:none" id="path5968"/>
          </g>
          <g id="g5970" transform="translate(340.4123,367.4415)">
            <path d="M 0,0 C -0.0591,8e-4 -0.1182,0.0016 -0.1773,0.0024 -0.1173,0.0016 -0.06,8e-4 0,0 Z" style="fill:#ffffff;fill-opacity:1;fill-rule:nonzero;stroke:none" id="path5972"/>
          </g>
          <g id="g5974" transform="translate(332.9358,367.4342)">
            <path d="M 0,0 C 0.1027,0.0016 0.2038,0.0031 0.3066,0.0045 0.2043,0.0031 0.1021,0.0015 0,0 Z" style="fill:#ffffff;fill-opacity:1;fill-rule:nonzero;stroke:none" id="path5976"/>
          </g>
          <g id="g5978" transform="translate(340.9518,367.4337)">
            <path d="M 0,0 C -0.082,0.0013 -0.163,0.0025 -0.2451,0.0037 -0.1638,0.0025 -0.0813,0.0013 0,0 Z" style="fill:#ffffff;fill-opacity:1;fill-rule:nonzero;stroke:none" id="path5980"/>
          </g>
          <g id="g5982" transform="translate(341.4621,367.4254)">
            <path d="M 0,0 C -0.092,0.0016 -0.1848,0.0031 -0.2769,0.0047 -0.1827,0.0031 -0.0941,0.0017 0,0 Z" style="fill:#ffffff;fill-opacity:1;fill-rule:nonzero;stroke:none" id="path5984"/>
          </g>
          <g id="g5986" transform="translate(332.0847,367.4197)">
            <path d="M 0,0 C 0.1795,0.0033 0.3556,0.0064 0.5353,0.0094 0.3567,0.0064 0.1784,0.0033 0,0 Z" style="fill:#ffffff;fill-opacity:1;fill-rule:nonzero;stroke:none" id="path5988"/>
          </g>
          <g id="g5990" transform="translate(342.1494,367.4125)">
            <path d="M 0,0 C -0.1968,0.0039 -0.3972,0.0078 -0.5942,0.0112 -0.3975,0.0078 -0.1965,0.0039 0,0 Z" style="fill:#ffffff;fill-opacity:1;fill-rule:nonzero;stroke:none" id="path5992"/>
          </g>
          <g id="g5994" transform="translate(313.0907,366.3599)">
            <path d="M 0,0 C 1e-4,-6e-4 1e-4,-9e-4 2e-4,-0.0016 6.1248,0.5744 12.4111,0.9328 18.8105,1.0564 12.4081,0.9333 6.1251,0.5764 0,0 Z" style="fill:#ffffff;fill-opacity:1;fill-rule:nonzero;stroke:none" id="path5996"/>
          </g>
          <g id="g5998" transform="translate(342.6208,367.4026)">
            <path d="M 0,0 C -0.0962,0.0021 -0.1903,0.0041 -0.2865,0.0061 -0.1926,0.0042 -0.0939,0.0021 0,0 Z" style="fill:#ffffff;fill-opacity:1;fill-rule:nonzero;stroke:none" id="path6000"/>
          </g>
          <g id="g6002" transform="translate(343.8585,367.3727)">
            <path d="M 0,0 C -0.3478,0.0092 -0.6927,0.0177 -1.0412,0.0256 -0.6958,0.0178 -0.3447,0.0092 0,0 Z" style="fill:#ffffff;fill-opacity:1;fill-rule:nonzero;stroke:none" id="path6004"/>
          </g>
          <g id="g6006" transform="translate(344.2989,367.3606)">
            <path d="M 0,0 C -0.1173,0.0033 -0.2341,0.0065 -0.3514,0.0097 -0.2323,0.0065 -0.119,0.0034 0,0 Z" style="fill:#ffffff;fill-opacity:1;fill-rule:nonzero;stroke:none" id="path6008"/>
          </g>
          <g id="g6010" transform="translate(374.1049,364.7293)">
            <path d="M 0,0 C -1e-4,1e-4 -1e-4,1e-4 -2e-4,2e-4 -9.4832,1.4359 -19.4367,2.3354 -29.7168,2.6269 -19.436,2.3354 -9.4862,1.4359 0,0 Z" style="fill:#ffffff;fill-opacity:1;fill-rule:nonzero;stroke:none" id="path6012"/>
          </g>
          <g id="g6014" transform="translate(300.0441,364.7712)">
            <path d="M 0,0 C 3.6057,0.5409 7.2741,1.004 11.0061,1.3866 7.2751,1.0054 3.604,0.5414 0,0 Z" style="fill:#ffffff;fill-opacity:1;fill-rule:nonzero;stroke:none" id="path6016"/>
          </g>
          <g id="g6018" transform="translate(299.5833,364.7016)">
            <path d="M 0,0 C 0.0706,0.0107 0.1374,0.0208 0.2081,0.0315 0.1386,0.021 0.0694,0.0106 0,0 Z" style="fill:#ffffff;fill-opacity:1;fill-rule:nonzero;stroke:none" id="path6020"/>
          </g>
          <g id="g6022" transform="translate(281.118,361.0855)">
            <path d="m 0,0 c 1.8611,0.451 3.746,0.8798 5.6562,1.2864 -10e-5,7e-4 -3e-4,0.0014 -5e-4,0.002 C 3.746,0.8811 1.8606,0.4513 0,0 Z" style="fill:#ffffff;fill-opacity:1;fill-rule:nonzero;stroke:none" id="path6024"/>
          </g>
          <g id="g6026" transform="translate(280.5222,360.9401)">
            <path d="M 0,0 C 0.1994,0.049 0.3937,0.0965 0.5937,0.1449 0.3955,0.0968 0.1977,0.0486 0,0 Z" style="fill:#ffffff;fill-opacity:1;fill-rule:nonzero;stroke:none" id="path6028"/>
          </g>
          <g id="g6030" transform="translate(279.9011,360.7865)">
            <path d="M 0,0 C 0.0831,0.0207 0.1679,0.0417 0.2511,0.0624 0.1674,0.0416 0.0836,0.0208 0,0 Z" style="fill:#ffffff;fill-opacity:1;fill-rule:nonzero;stroke:none" id="path6032"/>
          </g>
          <g id="g6034" transform="translate(227.1694,336.4394)">
            <path d="M 0,0 C 0.0455,0.0378 0.0949,0.0788 0.1406,0.1165 0.0938,0.0779 0.0466,0.0387 0,0 Z" style="fill:#ffffff;fill-opacity:1;fill-rule:nonzero;stroke:none" id="path6036"/>
          </g>
          <g id="g6038" transform="translate(226.9409,336.2487)">
            <path d="M 0,0 C 0.0514,0.0431 0.1057,0.0884 0.1573,0.1315 0.1048,0.0877 0.0524,0.0439 0,0 Z" style="fill:#ffffff;fill-opacity:1;fill-rule:nonzero;stroke:none" id="path6040"/>
          </g>
          <g id="g6042" transform="translate(226.7271,336.069)">
            <path d="M 0,0 C 0.0573,0.0483 0.1158,0.0975 0.1734,0.1458 0.1154,0.0972 0.0577,0.0486 0,0 Z" style="fill:#ffffff;fill-opacity:1;fill-rule:nonzero;stroke:none" id="path6044"/>
          </g>
          <g id="g6046" transform="translate(222.8999,332.5979)">
            <path d="M 0,0 C 1e-4,-3e-4 2e-4,-7e-4 3e-4,-0.001 1.2051,1.1775 2.4816,2.3354 3.826,3.4702 2.4811,2.3352 1.2048,1.1781 0,0 Z" style="fill:#ffffff;fill-opacity:1;fill-rule:nonzero;stroke:none" id="path6048"/>
          </g>
          <g id="g6050" transform="translate(217.0807,326.006)">
            <path d="m 0,0 c 0.0371,0.0495 0.0752,0.1 0.1125,0.1494 -2e-4,2e-4 -2e-4,2e-4 -3e-4,3e-4 C 0.0743,0.0997 0.0375,0.0501 0,0 Z" style="fill:#ffffff;fill-opacity:1;fill-rule:nonzero;stroke:none" id="path6052"/>
          </g>
          <g id="g6054" transform="translate(216.9043,325.7696)">
            <path d="M 0,0 C 0.0354,0.0476 0.0724,0.0974 0.108,0.1451 0.0722,0.0971 0.0356,0.048 0,0 Z" style="fill:#ffffff;fill-opacity:1;fill-rule:nonzero;stroke:none" id="path6056"/>
          </g>
          <g id="g6058" transform="translate(331.3082,367.4673)">
            <path d="m 0,0 c -0.1615,0 -0.3272,0 -0.4887,0 -0.238,0 -0.4717,0 -0.7097,0 -0.0254,0 -0.051,0 -0.0764,0 -0.2168,0 -0.4335,-0.0042 -0.646,-0.0042 -0.051,0 -0.102,0 -0.153,0 -0.1997,0 -0.3952,-0.0043 -0.5949,-0.0043 -0.068,0 -0.136,0 -0.204,-0.0042 -0.1869,0 -0.3739,0 -0.5609,-0.0043 -0.0765,0 -0.1572,0 -0.2337,-0.0042 -0.17,0 -0.34,-0.0043 -0.5099,-0.0043 -0.102,-0.0042 -0.204,-0.0042 -0.306,-0.0042 -0.1062,-0.0043 -0.2082,-0.0043 -0.3145,-0.0043 -0.1784,-0.0042 -0.3569,-0.0085 -0.5354,-0.0127 -0.0638,0 -0.1232,0 -0.1827,0 -6.3997,-0.1275 -12.6889,-0.4845 -18.8124,-1.0582 0.4887,-5.0016 1.0241,-9.9905 1.5893,-14.9836 0.3782,-3.3401 0.7649,-6.6801 1.1473,-10.0202 -0.0382,-0.6247 -0.0722,-1.2494 -0.1062,-1.8783 -0.0255,-0.5099 -0.051,-1.0241 -0.0765,-1.5383 -0.238,1.823 -0.4632,3.646 -0.6672,5.4733 -0.3739,3.3741 -0.7521,6.7439 -1.0921,10.118 -0.153,1.5298 -0.3059,3.0639 -0.4547,4.5979 -0.2124,2.2182 -0.3527,4.462 -0.8839,6.6334 -0.1274,0.5185 -0.2932,1.0199 -0.4972,1.4959 -0.1954,-0.0213 -0.3909,-0.0383 -0.5906,-0.0595 -0.0213,0 -0.0383,-0.0043 -0.0638,-0.0043 -0.1147,-0.0127 -0.2294,-0.0255 -0.3442,-0.0382 -3.731,-0.3825 -7.4025,-0.8457 -11.0061,-1.3854 -0.085,-0.0127 -0.17,-0.0255 -0.255,-0.0382 -0.068,-0.0085 -0.1359,-0.0212 -0.2082,-0.0297 -0.1742,-0.0298 -0.3485,-0.0553 -0.5227,-0.0808 0,0 0,0 -0.0042,0 -1.925,-0.2975 -3.833,-0.6204 -5.7198,-0.9604 -0.2295,-1.1176 -0.3017,-2.2564 -0.4037,-3.3953 0.0467,0.4122 0.0935,0.8287 0.1402,1.2409 -0.8966,-7.8318 -0.4547,-15.8081 -0.2592,-23.6696 0,-0.0255 0.0043,-0.051 0.0043,-0.0807 -0.1658,0.6714 -0.3315,1.3428 -0.4973,2.0142 -1.5085,6.149 -3.0256,12.3022 -4.5299,18.4512 -0.3399,1.3853 -0.6799,2.7664 -1.0156,4.1475 -1.908,-0.4037 -3.7948,-0.8329 -5.6561,-1.2833 -0.1997,-0.051 -0.3952,-0.0978 -0.5949,-0.1445 -0.1232,-0.034 -0.2464,-0.0638 -0.3697,-0.0935 -0.085,-0.0213 -0.17,-0.0425 -0.2507,-0.0637 -0.1955,-0.0468 -0.3867,-0.0936 -0.5822,-0.1445 -0.0297,-0.0085 -0.0553,-0.0128 -0.085,-0.0213 -5.3798,-1.3598 -10.5387,-2.9024 -15.4468,-4.6107 0.2167,-2.5709 0.4165,-5.1503 0.7522,-7.7085 0.4249,-3.2169 0.7946,-6.4422 1.3215,-9.6421 0.5822,-3.5015 1.1644,-7.0073 1.7466,-10.5089 0.4972,-2.9831 1.0198,-5.9662 1.5681,-8.9451 -2.0441,-1.0751 -3.9351,-2.4392 -5.7071,-4.0115 -2.5454,-2.2565 -4.7764,-4.9039 -6.8417,-7.6193 -0.4929,0.5396 -1.0113,1.0666 -1.5595,1.585 -0.6587,0.6247 -1.4236,1.1432 -2.2352,1.5808 -0.7862,2.1375 -1.5808,4.275 -2.3797,6.4082 -1.9378,5.1759 -3.9181,10.3348 -5.8898,15.4978 -0.8456,2.2183 -1.6955,4.4365 -2.5709,6.6462 -0.4887,1.2409 -0.9816,2.4775 -1.4831,3.7098 -0.2805,0.6927 -0.5524,1.3981 -0.8371,2.0992 -3.8713,-2.2564 -7.4323,-4.6531 -10.6492,-7.1688 -0.004,-0.0043 -0.008,-0.0043 -0.0128,-0.0085 -0.1614,-0.1275 -0.3272,-0.255 -0.4886,-0.3867 -0.0213,-0.0127 -0.034,-0.0255 -0.0553,-0.0425 -0.0637,-0.0467 -0.1232,-0.0977 -0.187,-0.1487 -0.0212,-0.017 -0.0425,-0.034 -0.0637,-0.051 -0.051,-0.0425 -0.102,-0.085 -0.153,-0.1233 -0.034,-0.0254 -0.0595,-0.051 -0.0935,-0.0764 -0.051,-0.0383 -0.0977,-0.0765 -0.1487,-0.119 -0.0255,-0.0213 -0.051,-0.0425 -0.0807,-0.0638 -0.0723,-0.0595 -0.1445,-0.119 -0.2125,-0.1784 -0.0298,-0.0213 -0.0595,-0.0468 -0.0893,-0.0723 -0.0424,-0.034 -0.085,-0.068 -0.1274,-0.1062 -0.0468,-0.034 -0.0935,-0.0765 -0.1403,-0.1148 -0.0255,-0.0212 -0.0467,-0.0382 -0.0722,-0.0595 -0.051,-0.0424 -0.1063,-0.0892 -0.1573,-0.1317 -0.0127,-0.0127 -0.0254,-0.0213 -0.0382,-0.034 -0.0595,-0.0467 -0.119,-0.0977 -0.1742,-0.1445 0,0 0,0 -0.004,0 -1.3428,-1.1346 -2.6176,-2.2947 -3.8245,-3.4718 0.0977,-0.3569 0.1955,-0.7097 0.2975,-1.0666 0.7649,-2.6942 1.5128,-5.3968 2.3159,-8.0825 0.4335,-1.4363 0.8669,-2.8769 1.3089,-4.3132 -3.1022,2.4859 -6.2723,4.8784 -9.6293,7.0201 -0.0383,-0.051 -0.0765,-0.102 -0.1105,-0.1487 -0.0255,-0.0298 -0.0468,-0.0638 -0.068,-0.0935 -0.0382,-0.0468 -0.0765,-0.0977 -0.1105,-0.1445 -0.0553,-0.0722 -0.1105,-0.1487 -0.1615,-0.221 -0.0297,-0.0382 -0.051,-0.0679 -0.0765,-0.1062 -0.0637,-0.085 -0.1232,-0.1657 -0.1827,-0.2507 -0.017,-0.0213 -0.034,-0.0468 -0.051,-0.068 -0.068,-0.0935 -0.136,-0.1912 -0.204,-0.2847 0,-0.0043 0,-0.0043 -0.004,-0.0085 -3.3528,-4.7552 -5.6093,-9.7611 -6.6207,-14.9539 0,-0.0042 0,-0.0085 0,-0.0085 -0.0212,-0.119 -0.0467,-0.238 -0.068,-0.3527 0,-0.0043 0,-0.0085 0,-0.0128 -0.0425,-0.2379 -0.085,-0.4759 -0.1232,-0.7139 0,-0.0042 0,-0.0085 0,-0.0127 -0.0212,-0.1148 -0.0382,-0.2295 -0.0552,-0.3442 0,-0.0085 -0.004,-0.017 -0.004,-0.0255 -0.017,-0.1105 -0.034,-0.2253 -0.0467,-0.3357 -0.004,-0.0128 -0.004,-0.0255 -0.004,-0.0425 -0.017,-0.1105 -0.034,-0.221 -0.0467,-0.3315 0,-0.0085 0,-0.017 -0.004,-0.0255 -0.0255,-0.2337 -0.0552,-0.4674 -0.0765,-0.6969 0,-0.0085 -0.004,-0.0213 -0.004,-0.0297 -0.0128,-0.1063 -0.0213,-0.2168 -0.0298,-0.323 -0.004,-0.0212 -0.004,-0.0382 -0.008,-0.0595 -0.009,-0.1062 -0.017,-0.2125 -0.0255,-0.3187 0,-0.017 -0.004,-0.0382 -0.004,-0.0552 -0.008,-0.1063 -0.017,-0.2168 -0.0255,-0.323 0,-0.017 0,-0.0255 0,-0.0425 -0.017,-0.2252 -0.0298,-0.4547 -0.0425,-0.6799 0,-0.017 0,-0.0298 0,-0.0468 -0.004,-0.1062 -0.008,-0.2124 -0.0128,-0.3187 0,-0.0212 0,-0.0425 -0.004,-0.0637 0,-0.1063 -0.004,-0.2082 -0.009,-0.3145 0,-0.017 0,-0.0425 0,-0.0637 -0.004,-0.1063 -0.004,-0.2125 -0.004,-0.3187 0,-0.017 0,-0.0298 0,-0.0425 -0.004,-0.1147 -0.004,-0.2295 -0.004,-0.3442 0,-35.2536 57.2743,-63.8356 127.9303,-63.8356 42.6348,0 80.3962,10.405 103.6451,26.4032 -0.1891,0.6921 -0.3671,1.384 -0.4765,2.098 -0.1232,0.7947 -0.1572,1.6021 -0.2889,2.4052 -0.009,0.034 -0.017,0.068 -0.0255,0.102 -0.2252,0.6332 -0.51,1.2409 -0.7649,1.8613 -0.3825,0.9136 -0.6927,1.7933 -0.9519,2.7579 0.051,-0.1828 0.0977,-0.3697 0.1487,-0.5524 -0.17,0.5991 -0.3952,1.177 -0.6246,1.7507 -0.2805,0.629 -0.6035,1.2536 -0.9392,1.8528 -0.5312,0.9136 -1.0029,1.8188 -1.3555,2.8301 -0.3018,0.8627 -0.4972,1.7508 -0.714,2.6347 -0.1232,0.4717 -0.2507,0.9476 -0.4122,1.4066 -0.3952,0.9306 -0.7989,1.8443 -1.1473,2.7919 0.0034,-0.0086 0.0061,-0.0172 0.0087,-0.0255 0.0042,-0.0113 0.0084,-0.0227 0.0125,-0.034 -0.005,0.0101 -0.0086,0.0218 -0.0125,0.034 -0.4226,1.1617 -0.9361,2.3312 -1.4748,3.4548 -0.3655,0.6969 -0.7437,1.3896 -1.0581,2.112 -0.2592,0.6034 -0.442,1.2409 -0.6332,1.8655 -0.3399,0.9689 -0.7521,1.8953 -1.1558,2.8387 -0.5057,1.1643 -0.8924,2.3329 -1.2621,3.544 0.0045,-0.0224 0.0102,-0.0437 0.0164,-0.0645 0.0058,-0.0181 0.0119,-0.0363 0.0176,-0.0545 -0.006,0.018 -0.012,0.0361 -0.0176,0.0545 -0.3423,1.0743 -0.7972,2.1559 -1.2318,3.2006 -0.1827,0.4122 -0.3612,0.8287 -0.5312,1.2451 0.017,-0.0467 0.0383,-0.0935 0.0553,-0.1402 -0.3102,0.7437 -0.6544,1.4661 -0.9519,2.214 0.0722,-0.1828 0.1445,-0.3612 0.2167,-0.5397 -0.306,0.7521 -0.6416,1.5043 -1.0199,2.2267 -0.4419,0.8457 -0.7478,1.7338 -1.0751,2.6262 -0.2974,0.7819 -0.5949,1.5723 -0.9731,2.3202 -0.5057,0.9221 -1.0369,1.84 -1.5765,2.7409 -0.663,1.1049 -1.2579,2.248 -1.9463,3.3358 -0.5482,0.8159 -1.1304,1.6106 -1.6616,2.4392 -0.4334,0.6842 -0.8754,1.3641 -1.3555,2.0143 -0.391,0.4929 -0.8074,0.9604 -1.2154,1.4448 -0.5227,0.6247 -0.9944,1.2834 -1.5043,1.9123 -1.0173,1.2662 -1.9255,2.6162 -2.9455,3.8836 7e-4,-9e-4 0.0015,-0.0018 0.0022,-0.0027 0.0137,-0.0174 0.0272,-0.0349 0.0409,-0.0522 -0.0136,0.0164 -0.0273,0.0345 -0.0409,0.0522 -0.0015,0.0018 -0.0029,0.0036 -0.0043,0.0054 -0.0062,0.0077 -0.0123,0.0155 -0.0185,0.0232 0.0038,-0.0046 0.0077,-0.0095 0.0116,-0.0144 -0.5332,0.6756 -1.0402,1.3626 -1.5669,2.0456 -0.391,0.4675 -0.7947,0.9264 -1.1899,1.3896 0.0128,-0.017 0.0298,-0.034 0.0425,-0.051 -1.381,1.5723 -2.6389,3.2296 -3.969,4.8401 -0.6077,0.7352 -1.2621,1.4279 -1.8825,2.1546 -0.5737,0.6671 -1.1346,1.3555 -1.721,2.0099 -0.0765,0.085 -0.1573,0.1743 -0.2338,0.2592 0.0114,-0.0151 0.0236,-0.0292 0.0362,-0.0434 0.0058,-0.0064 0.0115,-0.0128 0.0173,-0.0192 0.0104,-0.0114 0.021,-0.023 0.0315,-0.0351 -0.0105,0.0118 -0.021,0.0234 -0.0315,0.0351 -0.0058,0.0064 -0.0116,0.0128 -0.0173,0.0192 -0.09,0.0998 -0.1799,0.1977 -0.2699,0.2984 -0.0152,0.0153 -0.0272,0.0306 -0.0418,0.0458 5e-4,-5e-4 9e-4,-0.001 0.0014,-0.0016 0.0027,-0.0029 0.0054,-0.0059 0.008,-0.009 0.0081,-0.0089 0.0159,-0.0178 0.0239,-0.0267 -0.0079,0.008 -0.0159,0.0175 -0.0239,0.0267 -0.0026,0.003 -0.0053,0.0061 -0.008,0.009 -0.0021,0.0023 -0.0042,0.0047 -0.0063,0.0068 0.0017,-0.0017 0.0032,-0.0034 0.0049,-0.0052 -0.9657,1.076 -1.9071,2.1764 -2.8733,3.2518 -1.2494,1.3641 -2.5795,2.6602 -3.8798,3.9775 -0.9519,0.9094 -1.8995,1.8273 -2.8216,2.7749 -2.1715,2.231 -4.5385,4.2622 -6.7142,6.4932 -0.4053,0.415 -0.8076,0.8341 -1.2126,1.2509 -11.6446,2.1543 -24.0904,3.493 -37.0496,3.8655 -0.034,0 -0.0595,0 -0.0935,0 -0.119,0.0042 -0.2338,0.0085 -0.3527,0.0127 -0.0255,0 -0.0595,0 -0.0893,0 -0.3442,0.0085 -0.6926,0.017 -1.0411,0.0255 -0.0637,0.0043 -0.1317,0.0043 -0.1954,0.0043 -0.0936,0.0042 -0.1913,0.0042 -0.2848,0.0085 -0.0637,0 -0.1232,0 -0.187,0.0042 -0.1954,0.0043 -0.3952,0.0043 -0.5949,0.0085 -0.0297,0 -0.0595,0.0043 -0.0892,0.0043 -0.0977,0 -0.1827,0 -0.2805,0.0042 -0.0765,0 -0.153,0 -0.2337,0.0043 -0.0807,0 -0.1615,0 -0.2422,0.0042 -0.0978,0 -0.1955,0 -0.2932,0 -0.0638,0.0043 -0.119,0.0043 -0.1785,0.0043 -0.1572,0 -0.3102,0.0042 -0.4632,0.0042 -0.0637,0 -0.1317,0.0043 -0.1912,0.0043 -0.102,0 -0.204,0 -0.3017,0 -0.0765,0.0042 -0.1488,0.0042 -0.221,0.0042 -0.1232,0 -0.2465,0 -0.3697,0.0043 -0.034,0 -0.068,0 -0.102,0 -0.1615,0 -0.3187,0 -0.4759,0 -0.0638,0 -0.1233,0 -0.1828,0 C 0.3994,0 0.2889,0 0.1785,0 0.119,0 0.0552,0 0,0 Z m -67.6643,-73.6773 c 0.3102,0.4589 0.6246,0.9179 0.9476,1.3683 0.8159,1.0879 1.653,2.1502 2.5327,3.1829 0.3187,-1.6106 0.6416,-3.2211 0.9604,-4.8317 0.3527,-1.7678 0.7096,-3.5355 1.0708,-5.3033 -1.7508,1.9293 -3.6035,3.7735 -5.5115,5.5838 z" style="fill:#ffffff;fill-opacity:1;fill-rule:nonzero;stroke:none" id="path6060"/>
          </g>
          <g id="g6062" transform="translate(393.5714,344.9366)">
            <path d="M 0,0 C -0.0722,0.0765 -0.1402,0.1572 -0.2125,0.2337 -0.1445,0.1572 -0.0722,0.0765 0,0 Z" style="fill:#ffffff;fill-opacity:1;fill-rule:nonzero;stroke:none" id="path6064"/>
          </g>
          <g id="g6066" transform="translate(412.5496,320.7487)">
            <path d="M 0,0 C -0.0468,0.0722 -0.0977,0.1487 -0.1487,0.2252 -0.0977,0.1487 -0.051,0.0722 0,0 Z" style="fill:#ffffff;fill-opacity:1;fill-rule:nonzero;stroke:none" id="path6068"/>
          </g>
          <g id="g6070" transform="translate(105.2391,356.8311)">
            <path d="m 0,0 c -0.5783,-0.5425 -1.1847,-1.0408 -1.7789,-1.5597 -0.5907,-0.5737 -1.1346,-1.1941 -1.7125,-1.7805 -0.6077,-0.6162 -1.2579,-1.1899 -1.8995,-1.7635 -0.7607,-0.68 -1.4831,-1.3981 -2.2268,-2.095 -0.6034,-0.5609 -1.2281,-1.0964 -1.8145,-1.6743 -1.0156,-1.0496 -2.0142,-2.1077 -3.0596,-3.1276 0.0807,0.0765 0.1615,0.1572 0.2422,0.2337 -1.1388,-1.1261 -2.231,-2.3415 -3.2381,-3.5908 -0.3654,-0.4887 -0.6969,-1.0071 -1.1048,-1.4661 -0.1488,-0.1665 -0.3031,-0.3299 -0.4615,-0.49 -0.5108,-0.7276 -1.0594,-1.427 -1.5485,-2.1786 -0.4632,-0.7394 -0.9392,-1.4619 -1.4661,-2.1588 -0.4632,-0.6204 -0.9519,-1.2323 -1.3896,-1.874 -0.6374,-1.0156 -1.2451,-2.0525 -1.891,-3.0639 -0.7394,-1.16 -1.4788,-2.3202 -2.1502,-3.5228 -0.4207,-0.7989 -0.8457,-1.5935 -1.2834,-2.3839 0,0 0,0.0042 0,0.0085 -0.6289,-1.1559 -1.2111,-2.3372 -1.8527,-3.4803 -0.6842,-1.2069 -1.3939,-2.3967 -2.044,-3.6248 -0.9987,-1.8911 -2.061,-3.7608 -3.0809,-5.6476 -1.1389,-2.3075 -2.18,-4.6829 -3.2041,-7.0413 0.051,0.1189 0.102,0.2379 0.1487,0.3612 -0.0567,-0.1296 -0.1096,-0.2594 -0.166,-0.3927 -0.0044,-0.009 -0.0084,-0.018 -0.0124,-0.0281 -0.0085,-0.0254 -0.0213,-0.0552 -0.0298,-0.0807 -0.0042,-0.0085 -0.0127,-0.0212 -0.017,-0.0297 -0.5907,-1.4066 -1.1601,-2.8217 -1.7975,-4.2155 -0.0723,-0.153 -0.1403,-0.306 -0.2082,-0.459 10.1307,-20.3379 41.6703,-35.1643 79.0146,-35.1643 26.096,0 49.3576,7.2411 64.4602,18.5404 0.6714,-0.9901 1.3896,-1.9632 2.1545,-2.9279 1.0114,2.333 1.993,4.6702 3.1191,6.9564 1.1984,2.4307 2.537,4.7849 3.7353,7.2114 0.6502,1.3173 1.2876,2.6431 1.891,3.9817 0.7692,1.7083 1.2069,3.5016 1.0369,5.3884 -0.1912,2.0779 -1.0454,3.765 -2.316,5.2523 0.085,0.1827 0.1743,0.3655 0.2593,0.5482 1.3003,2.7919 2.3074,5.7113 3.4123,8.5839 1.432,3.7098 0.5566,8.8686 -2.7622,11.3291 -1.0793,0.7989 -2.1077,1.3981 -3.2721,1.8145 -1.568,2.5242 -4.5214,4.4875 -7.5385,4.4492 -1.0411,-0.0127 -2.0525,0.0043 -3.0766,-0.2337 -1.0412,-0.238 -1.9633,-0.6799 -2.8982,-1.1686 -0.3612,-0.187 -0.7054,-0.3995 -1.0326,-0.6332 -0.3527,0.5482 -0.7437,1.0667 -1.1686,1.5256 -1.5808,1.704 -3.5398,2.4817 -5.758,2.9789 -2.1078,0.4759 -4.3048,-0.1275 -6.3063,-0.7395 -1.9292,-0.5906 -3.7395,-1.9632 -5.2481,-3.2593 -1.3215,-1.1304 -2.5539,-2.3159 -3.7522,-3.5525 -0.1445,0.0722 -0.289,0.1444 -0.4335,0.2167 -3.9393,1.857 -9.0046,0.7139 -12.3872,-1.84 -0.4717,-0.357 -0.9264,-0.7224 -1.3683,-1.1007 -0.2592,0.5822 -0.5779,1.1474 -0.9647,1.6956 -1.2536,1.7593 -3.0043,3.1573 -5.0738,3.8203 -2.2225,0.7139 -4.6574,0.6416 -6.8799,-0.0256 -0.7564,0.765 -1.6488,1.3981 -2.6772,1.8613 -1.8357,0.8244 -3.7395,1.2536 -5.758,1.0709 -2.5497,-0.2295 -4.8274,-1.4618 -6.8247,-2.9874 -1.6148,-1.2323 -3.0978,-2.6389 -4.5002,-4.122 -0.0127,0.0043 -0.0297,0.0128 -0.0425,0.0213 -3.8882,1.8188 -8.2227,0.7776 -11.6265,-1.5171 -0.5737,0.3952 -1.1729,0.7352 -1.755,1.0114 -0.8797,0.4122 -1.8103,0.7012 -2.7622,0.8796 0.2125,3.6928 -0.2762,7.9041 -2.9619,10.6024 -1.0878,1.0879 -2.2904,2.1035 -3.6758,2.7792 0.5907,0.6459 1.1771,1.2961 1.7678,1.9463 1.4831,1.6318 2.8599,3.3868 4.2325,5.1163 0.9561,1.1984 1.908,2.401 2.8684,3.6036 0.8669,1.0879 1.6785,2.2182 2.5029,3.34 0.9052,1.2367 1.4066,2.7707 1.6318,4.3048 C 11.7992,3.3856 5.6921,1.8882 0,0 Z" style="fill:#ffffff;fill-opacity:1;fill-rule:nonzero;stroke:none" id="path6072"/>
          </g>
          <g id="g6074" transform="translate(79.7758,326.7908)">
            <path d="M 0,0 C 0.0486,0.0916 0.0953,0.183 0.1414,0.2732 0.094,0.1824 0.0461,0.0921 0,0 Z" style="fill:#ffffff;fill-opacity:1;fill-rule:nonzero;stroke:none" id="path6076"/>
          </g>
          <g id="g6078" transform="translate(245.1243,415.9782)">
            <path d="m 0,0 c -0.6247,-0.0255 -1.2451,-0.0595 -1.8655,-0.1445 -0.3952,-0.0765 -0.7904,-0.1615 -1.1856,-0.1997 -0.6332,-0.051 -1.2111,-0.0085 -1.84,0.0552 -0.255,0.0255 -0.51,0.0553 -0.7692,0.0893 -0.2635,-0.0808 -0.5312,-0.1573 -0.8074,-0.221 -0.5439,-0.1275 -1.0794,-0.136 -1.6233,-0.1275 -0.0085,-0.0042 -0.0212,-0.0042 -0.034,-0.0085 -0.7054,-0.1827 -1.4023,-0.3527 -2.1502,-0.3569 -0.272,0 -0.5397,0.0042 -0.8074,0.0127 -0.238,-0.034 -0.476,-0.0765 -0.7097,-0.1275 0.1275,0.0298 0.255,0.0553 0.3782,0.085 -1.0581,-0.2252 -2.0652,-0.3017 -3.1446,-0.3782 0.1785,0.0128 0.3612,0.0255 0.5397,0.0383 -0.7734,-0.0638 -1.5,-0.1573 -2.2565,-0.1658 -0.1402,-0.0254 -0.2804,-0.0467 -0.4164,-0.0722 0.0765,0.0128 0.1572,0.0255 0.2337,0.0382 -0.6842,-0.1147 -1.3428,-0.3017 -2.0312,-0.4079 0.1275,0.017 0.2507,0.034 0.3739,0.051 -0.6884,-0.0977 -1.3726,-0.2125 -2.061,-0.3017 0.1785,0.0212 0.357,0.0467 0.5354,0.0722 -0.8711,-0.1275 -1.7337,-0.2295 -2.6049,-0.3187 -0.6246,-0.0935 -1.2408,-0.2507 -1.874,-0.3187 -0.8329,-0.085 -1.6615,-0.255 -2.4859,-0.408 -0.7862,-0.1572 -1.5681,-0.2932 -2.3542,-0.4292 -1.1219,-0.2252 -2.2352,-0.5184 -3.3571,-0.7733 -1.0581,-0.2338 -2.1375,-0.3315 -3.1999,-0.544 -1.0198,-0.2464 -2.0355,-0.5014 -3.0426,-0.8074 -1.0029,-0.323 -2.027,-0.5949 -3.0426,-0.8796 -0.1955,-0.0553 -0.391,-0.1148 -0.5864,-0.17 -1.2111,-0.3527 -2.3755,-0.8627 -3.5951,-1.1983 -1.1388,-0.3103 -2.2692,-0.68 -3.3826,-1.0667 -0.6841,-0.2507 -1.3725,-0.4929 -2.0652,-0.7181 0.0297,0.0085 0.0637,0.017 0.0935,0.0255 -0.1318,-0.0425 -0.2677,-0.085 -0.3995,-0.1275 0.017,0.0085 0.0383,0.0127 0.0553,0.0212 -0.017,-0.0042 -0.034,-0.0085 -0.0468,-0.017 -0.0085,-0.0042 -0.017,-0.0042 -0.0255,-0.0085 -0.0085,0 -0.0127,-0.0042 -0.017,-0.0042 -0.0085,-0.0043 -0.017,-0.0043 -0.0255,-0.0085 -0.017,-0.0085 -0.0382,-0.017 -0.0595,-0.0213 -0.0042,0 -0.0085,-0.0042 -0.0127,-0.0042 0,0 0.0042,0 0.0042,0 -0.0085,0 -0.0212,-0.0043 -0.0297,-0.0085 -0.0085,-0.0043 -0.017,-0.0043 -0.0255,-0.0085 -0.0042,0 -0.0042,0 -0.0085,0 0,0 -0.0042,-0.0043 -0.0042,-0.0043 -0.0213,-0.0042 -0.0468,-0.0127 -0.068,-0.017 -0.6375,-0.2209 -1.2707,-0.4547 -1.9336,-0.6246 -0.3781,-0.0935 -0.7564,-0.1913 -1.1346,-0.2933 -0.2889,-0.0849 -0.5822,-0.1699 -0.8711,-0.2507 -0.5694,-0.1615 -1.1134,-0.3952 -1.6658,-0.6161 -0.4972,-0.1998 -1.0114,-0.3315 -1.5298,-0.4675 -0.017,-0.0042 -0.034,-0.0085 -0.051,-0.0127 -0.221,-0.102 -0.4462,-0.1913 -0.6842,-0.272 -0.0085,0 -0.0127,-0.0042 -0.0212,-0.0042 -0.0213,-0.0086 -0.0468,-0.0213 -0.068,-0.0298 -0.2635,-0.0977 -0.5312,-0.1827 -0.8031,-0.255 -0.2805,-0.0892 -0.5652,-0.1784 -0.8457,-0.2634 -0.2635,-0.085 -0.5227,-0.1743 -0.7819,-0.2762 -0.2337,-0.1148 -0.4589,-0.2423 -0.6799,-0.374 0.153,0.0935 0.3102,0.187 0.4632,0.2805 -0.6927,-0.4207 -1.3386,-0.7692 -2.0907,-1.0752 0.1657,0.068 0.3356,0.1403 0.5014,0.2083 -0.8414,-0.3527 -1.6828,-0.7309 -2.486,-1.1644 -0.0127,-0.0085 -0.0255,-0.0127 -0.0382,-0.0212 0.0127,0.0085 0.0255,0.0127 0.0382,0.0212 0.0085,0.0043 0.0213,0.0128 0.0298,0.017 -0.7904,-0.4249 -1.5893,-0.7734 -2.435,-1.0878 -0.8244,-0.3102 -1.6573,-0.6375 -2.4519,-1.0114 -1.0284,-0.527 -2.0568,-1.0709 -3.1361,-1.4746 -1.2494,-0.4674 -2.4945,-0.9476 -3.7353,-1.4321 0.1657,0.068 0.3315,0.136 0.5014,0.204 -0.7351,-0.2974 -1.4745,-0.5779 -2.2139,-0.8541 -1.5298,-0.5907 -3.0554,-1.1771 -4.615,-1.6786 0.0255,0.0085 0.0553,0.017 0.085,0.0255 -1.636,-0.5227 -3.2041,-1.2706 -4.7976,-1.908 -1.2366,-0.4972 -2.4817,-0.9944 -3.6886,-1.5765 -0.4376,-0.2295 -0.8668,-0.476 -1.2876,-0.7352 -0.9093,-0.6077 -1.7932,-1.2408 -2.7323,-1.8018 -0.9859,-0.5906 -1.9676,-1.1813 -2.9789,-1.721 -1.5426,-0.8287 -3.0639,-1.7295 -4.5512,-2.6517 -0.4972,-0.3187 -0.9901,-0.6416 -1.4916,-0.9561 -0.8541,-0.5354 -1.738,-1.0029 -2.6177,-1.5001 -1.0071,-0.6204 -1.9632,-1.3258 -3.0128,-1.874 -0.4165,-0.2167 -0.8627,-0.4122 -1.2664,-0.6459 0.0723,0.0425 0.1403,0.085 0.2125,0.1275 -0.3017,-0.1658 -0.6077,-0.3102 -0.9221,-0.4462 -0.0595,-0.0255 -0.119,-0.051 -0.1743,-0.0808 -0.0255,-0.017 -0.0552,-0.034 -0.0807,-0.051 0.0255,0.017 0.0552,0.034 0.0807,0.051 0.0255,0.0128 0.0468,0.0256 0.0723,0.0383 0,0 -0.004,0 -0.004,0 -0.004,0 -0.004,0 -0.009,-0.0043 0,0.0043 0,0.0043 0,0.0043 -0.004,0 -0.008,-0.0043 -0.0127,-0.0085 -0.3995,-0.221 -0.8074,-0.4292 -1.2324,-0.5992 -0.5184,-0.3144 -1.0368,-0.6332 -1.551,-0.9604 -2.163,-1.3683 -4.3302,-2.6899 -6.455,-4.1092 -1.8655,-1.2621 -3.6035,-2.6814 -5.4393,-3.969 -0.3554,-0.2328 -0.7131,-0.4631 -1.0719,-0.6917 -0.0491,-0.0382 -0.0975,-0.0775 -0.1434,-0.12 0.033,0.0301 0.0639,0.0601 0.0942,0.0887 -0.0118,-0.0076 -0.0238,-0.0152 -0.0356,-0.0228 -0.2098,-0.192 -0.4232,-0.3729 -0.6366,-0.546 -0.0722,-0.0723 -0.1444,-0.1445 -0.2167,-0.2168 -0.5014,-0.4886 -1.0114,-0.9646 -1.5128,-1.449 -1.0326,-1.0072 -2.1587,-1.9165 -3.1871,-2.9322 -0.5057,-0.5439 -0.9774,-1.1133 -1.4661,-1.6743 -0.5099,-0.5906 -1.0793,-1.1261 -1.602,-1.704 -0.5525,-0.6119 -1.0879,-1.2451 -1.6871,-1.8103 -0.5864,-0.5482 -1.2026,-1.0581 -1.806,-1.585 -0.5906,-0.5737 -1.1346,-1.1941 -1.7125,-1.7806 -0.6077,-0.6161 -1.2579,-1.1898 -1.8995,-1.7635 -0.7607,-0.6799 -1.4831,-1.3981 -2.2268,-2.095 -0.6034,-0.5567 -1.228,-1.0963 -1.8145,-1.6743 -0.9366,-0.9679 -1.8588,-1.943 -2.8165,-2.8888 0.0549,0.0508 0.1057,0.1057 0.1606,0.1564 -0.0508,-0.0508 -0.1058,-0.1058 -0.1609,-0.1566 -0.001,-0.0012 -0.002,-0.0025 -0.004,-0.0037 -1.1378,-1.1295 -2.2289,-2.3438 -3.2351,-3.592 -0.3654,-0.4887 -0.6969,-1.0028 -1.1048,-1.466 -0.1496,-0.1675 -0.3048,-0.3317 -0.4642,-0.4927 -0.5136,-0.7266 -1.0615,-1.4253 -1.5501,-2.176 -0.4632,-0.7394 -0.9391,-1.4618 -1.4618,-2.1587 -0.4675,-0.6247 -0.9519,-1.2324 -1.3896,-1.874 -0.6374,-1.0199 -1.2493,-2.0525 -1.891,-3.0639 -0.7436,-1.1601 -1.4831,-2.3202 -2.1545,-3.5228 -0.4207,-0.8032 -0.8456,-1.5978 -1.2833,-2.384 0.034,0.0595 0.068,0.119 0.102,0.1785 -0.6672,-1.2069 -1.2749,-2.4477 -1.9505,-3.6503 -0.6842,-1.2069 -1.3939,-2.3967 -2.044,-3.6248 -1.0029,-1.8953 -2.0653,-3.7608 -3.0809,-5.6475 -1.1431,-2.3118 -2.1842,-4.6829 -3.2083,-7.0457 0.0509,0.1233 0.1019,0.2422 0.1529,0.3655 -0.0637,-0.1445 -0.1274,-0.2932 -0.1869,-0.4419 -0.008,-0.0199 -0.017,-0.0397 -0.0255,-0.0595 0,-0.004 -0.004,-0.008 -0.004,-0.0128 0,-0.003 -0.002,-0.006 -0.005,-0.0111 10e-4,0.004 0.002,0.008 0.005,0.0111 0,0.004 0,0.008 0,0.008 -0.119,-0.289 -0.2422,-0.5779 -0.3612,-0.8711 0.1997,-0.2465 0.4122,-0.4845 0.6374,-0.7139 3.4421,-3.4379 9.7738,-3.7736 13.1606,0 0.9137,1.0198 1.8273,2.0184 2.6007,3.1488 0.7394,1.0879 1.3301,2.2225 1.8995,3.3869 0.004,0.008 0.008,0.017 0.0128,0.0212 1.1303,1.5595 2.3627,3.0256 3.4038,4.6532 1.2536,1.959 2.0227,4.1347 3.0044,6.2254 0.1147,0.2125 0.2379,0.4207 0.3612,0.6247 0.9901,1.3301 2.1247,2.5539 3.1063,3.8925 1.4406,1.959 2.8132,3.9605 4.3727,5.8218 0.1955,0.2125 0.3995,0.4165 0.6077,0.6204 0.5652,0.4504 1.1601,0.8669 1.7465,1.3046 1.3471,1.0241 2.486,2.2862 3.5314,3.6078 1.2536,1.585 2.4604,3.2254 3.7565,4.7721 0.1615,0.17 0.3272,0.34 0.4972,0.5058 1.2238,0.9858 2.5454,1.9207 3.8287,2.8003 0.9902,0.6672 1.9718,1.3429 2.9577,2.0143 2.5412,1.687 5.1291,3.3103 7.717,4.9379 1.2834,0.8074 2.5625,1.619 3.7821,2.5242 0.9858,0.7266 1.9122,1.5255 2.9151,2.2309 0.6374,0.4335 1.2706,0.8712 1.9038,1.3046 1.2706,0.8202 2.6091,1.5341 3.8797,2.3627 1.3301,0.8669 2.6772,1.7296 4.0498,2.537 1.619,0.9518 3.1913,1.959 4.7041,3.0766 1.3599,1.0071 2.5837,2.1757 3.8288,3.3188 0.6927,0.5694 1.4193,1.1049 2.1502,1.6233 1.0412,0.6587 2.1375,1.2451 3.2339,1.806 1.5808,0.782 3.1743,1.5596 4.8231,2.18 2.4477,0.8244 4.8827,1.6786 7.2581,2.6984 2.2395,0.9689 4.4917,1.9718 6.7822,2.8174 1.2238,0.3995 2.4519,0.7862 3.6545,1.2451 1.2749,0.493 2.4945,1.1219 3.7098,1.7465 1.806,0.8797 3.6758,1.5681 5.5498,2.2905 1.6488,0.6417 3.2594,1.3768 4.9124,2.0015 1.5383,0.4972 3.0894,0.9349 4.6234,1.4533 -0.2379,-0.0807 -0.4759,-0.1657 -0.7139,-0.2507 1.4746,0.5057 3.0044,0.8924 4.428,1.5383 0.8371,0.3825 1.6743,0.7862 2.4434,1.2919 0.4207,0.2762 0.8074,0.5737 1.1814,0.8839 0.0424,0.017 0.085,0.0297 0.1274,0.0467 1.6786,0.5737 3.4166,1.0624 5.1546,1.4491 2.9024,0.5652 5.7921,1.1728 8.6647,1.891 2.605,0.6502 5.0611,1.772 7.5598,2.7239 0.1658,0.0467 0.3358,0.0935 0.5015,0.1402 1.0751,0.1658 2.1672,0.2847 3.2508,0.3952 0.255,-0.0382 0.51,-0.0849 0.7649,-0.1359 -0.2209,0.0467 -0.4419,0.0934 -0.6629,0.1359 0.0043,0 0.0085,0 0.0128,0 1.4618,-0.2847 2.8471,-0.4759 4.3684,-0.5184 0.9264,-0.0255 1.857,0.0382 2.7791,0.0892 2.8132,0.1573 5.5796,0.6672 8.3843,0.9052 0.8498,0.051 1.704,0.0935 2.5582,0.0467 -0.0978,0.0085 -0.1955,0.0128 -0.2933,0.0213 4.5045,-0.2763 9.0217,-0.238 13.5303,-0.4845 1.9803,-0.1912 3.9181,-0.6714 5.8983,-0.8456 1.9123,-0.1658 3.7565,-0.1658 5.6688,-0.017 0.8287,0.068 1.6488,0.1742 2.4732,0.2634 0.4334,-0.2082 0.8626,-0.4206 1.3046,-0.6076 0.6501,-0.2677 1.3131,-0.4887 1.959,-0.7649 1.4235,-0.7819 2.7876,-1.7041 4.1815,-2.5412 0.7691,-0.4547 1.5042,-0.9519 2.3032,-1.3513 1.0878,-0.5482 2.2012,-1.0114 3.2933,-1.5384 1.4193,-0.6926 2.8982,-1.2408 4.3855,-1.772 1.1219,-0.3994 2.2564,-0.7989 3.408,-1.1091 1.0624,-0.2847 2.1545,-0.4504 3.2381,-0.6417 0.8032,-0.2082 1.5809,-0.4929 2.3883,-0.7096 1.3556,-0.3612 2.7451,-0.5227 4.1262,-0.7479 0.2507,-0.0638 0.4972,-0.1318 0.7437,-0.2125 0.6926,-0.2465 1.3895,-0.4844 2.1035,-0.6629 0.5056,-0.1275 1.0113,-0.2252 1.5127,-0.357 1.2026,-0.6501 2.3755,-1.347 3.5866,-1.9845 1.5468,-0.8159 3.1361,-1.534 4.7042,-2.3032 1.6997,-0.8796 3.391,-1.7678 5.1078,-2.6177 0.3527,-0.1912 0.6927,-0.3909 1.0284,-0.6076 1.4746,-1.0114 2.9491,-2.0058 4.496,-2.9067 1.2026,-0.7054 2.3159,-1.5468 3.544,-2.2139 1.4916,-0.8074 3.0724,-1.4959 4.6064,-2.2225 1.6021,-0.7564 3.3061,-1.2664 4.9209,-1.9888 0.5057,-0.2762 1.0029,-0.5737 1.4916,-0.8796 1.6275,-1.1559 3.1871,-2.4265 4.7764,-3.629 1.636,-1.2367 3.3571,-2.367 4.9421,-3.6801 0.9902,-0.8966 1.959,-1.823 2.9024,-2.7707 1.0666,-1.0708 2.0398,-2.2309 3.1744,-3.2338 1.619,-1.4363 3.3315,-2.6984 5.2396,-3.7226 0.9731,-0.5226 1.942,-1.0326 2.8769,-1.6147 1.0368,-0.7692 2.0099,-1.6234 3.0171,-2.435 0.9646,-0.7734 1.9505,-1.5128 2.8981,-2.3117 2.1715,-1.84 4.4959,-3.4973 6.6547,-5.3501 0.8116,-0.7224 1.6233,-1.4448 2.4817,-2.1077 0.8074,-0.6205 1.6828,-1.1601 2.5369,-1.7168 0.3102,-0.2125 0.6119,-0.4335 0.9094,-0.6629 0.068,-0.0723 0.136,-0.1403 0.204,-0.2125 0.9859,-1.1388 1.9632,-2.282 2.9618,-3.4123 1.4874,-1.7253 3.0214,-3.4718 4.3388,-5.3374 0.4546,-0.6841 0.9136,-1.3768 1.4023,-2.0397 0.4462,-0.6077 0.9646,-1.1558 1.4788,-1.704 0.0595,-0.0765 0.119,-0.1573 0.1785,-0.2338 0,0 0.004,-0.0042 0.004,-0.0042 0.9519,-4.0837 4.6787,-7.2029 9.0174,-7.2029 3.5695,0 6.7184,2.1078 8.2567,5.1292 -0.4079,0.7181 -0.8116,1.4405 -1.2536,2.1417 -0.5482,0.8159 -1.1303,1.6105 -1.6615,2.4349 -0.4377,0.6842 -0.8754,1.3641 -1.3556,2.0185 -0.3952,0.493 -0.8074,0.9604 -1.2153,1.4406 -0.5227,0.6247 -0.9944,1.2833 -1.5044,1.9123 -1.0241,1.2748 -1.9377,2.6346 -2.9661,3.9095 0.0213,-0.0255 0.0425,-0.051 0.0637,-0.0765 -0.5524,0.6927 -1.0751,1.4066 -1.619,2.1077 -0.3909,0.4717 -0.7947,0.9307 -1.1899,1.3939 0.0128,-0.017 0.0298,-0.0383 0.0426,-0.0553 -1.3811,1.5723 -2.639,3.2296 -3.9691,4.8401 -0.6076,0.7352 -1.2621,1.4279 -1.8825,2.1545 -0.5736,0.6672 -1.1346,1.3556 -1.721,2.01 -0.0595,0.0723 -0.119,0.1403 -0.1827,0.2082 0.0127,-0.0127 0.0212,-0.0297 0.034,-0.0467 -0.0213,0.0213 -0.0383,0.0425 -0.0553,0.0637 -0.0127,0.0128 -0.0255,0.0256 -0.034,0.034 0.008,-0.0084 0.017,-0.017 0.0298,-0.0297 -0.0893,0.0977 -0.1743,0.1955 -0.2635,0.289 -0.0128,0.017 -0.0297,0.0297 -0.0425,0.0467 0.0128,-0.0127 0.0255,-0.0255 0.0383,-0.0382 -0.9774,1.0836 -1.9293,2.1969 -2.9067,3.2891 -1.2493,1.364 -2.5794,2.6601 -3.8797,3.9732 -0.9519,0.9136 -1.8996,1.8315 -2.8217,2.7749 -2.1715,2.231 -4.5384,4.2622 -6.7142,6.4932 -1.0751,1.1006 -2.1289,2.231 -3.2678,3.2679 -0.8499,0.7734 -1.5043,1.6912 -2.2182,2.5751 -0.5015,0.5694 -1.0539,1.0964 -1.5468,1.6701 -0.1488,0.1742 -0.2933,0.3484 -0.442,0.5312 -1.1219,1.1473 -2.2947,2.2479 -3.4973,3.306 -2.3032,2.0313 -4.8402,3.8033 -7.3303,5.6008 -1.2324,0.8924 -2.3797,1.8911 -3.6121,2.7749 -1.7083,1.2196 -3.459,2.2523 -5.3501,3.1574 -1.5298,0.7352 -3.1616,1.2281 -4.7211,1.8995 -1.0072,0.4335 -1.9973,0.9264 -2.9831,1.4023 -0.6205,0.3357 -1.2154,0.7055 -1.8018,1.0964 0.2252,-0.153 0.4504,-0.3017 0.6714,-0.4547 -1.3853,0.9222 -2.8132,1.7593 -4.2112,2.6602 -1.0242,0.7096 -2.0313,1.4448 -3.0979,2.0865 -1.0539,0.6416 -2.2012,1.1346 -3.3146,1.6743 -2.078,1.0496 -4.1602,2.0992 -6.2425,3.1403 -1.6785,0.8712 -3.3018,1.84 -4.9719,2.7154 -1.3173,0.6885 -2.6686,1.2621 -4.1177,1.6233 -0.8116,0.204 -1.6148,0.3612 -2.4094,0.6247 0.1105,-0.0382 0.2167,-0.0722 0.3272,-0.1105 -1.2749,0.4249 -2.5072,0.7904 -3.8543,1.0326 -0.7139,0.1318 -1.4363,0.2253 -2.1545,0.3357 -0.7224,0.1955 -1.4193,0.4505 -2.1417,0.646 -0.3697,0.102 -0.7437,0.187 -1.1176,0.2677 -0.425,0.017 -0.8499,0.0212 -1.2706,0.0595 -1.0199,0.0977 -1.9803,0.3102 -2.9449,0.6034 0.0128,-0.0043 0.0212,-0.0085 0.034,-0.0128 -0.7479,0.2338 -1.5128,0.425 -2.2735,0.6247 -0.6501,0.17 -1.2748,0.3825 -1.925,0.527 -0.7394,0.1487 -1.483,0.2974 -2.2182,0.4632 0.0977,-0.0213 0.1997,-0.0468 0.2975,-0.0723 -1.0114,0.238 -2.0228,0.4632 -3.0257,0.7182 -0.6756,0.1529 -1.3513,0.2847 -2.0227,0.4589 0.1785,-0.0467 0.3612,-0.0935 0.5439,-0.1402 -0.8074,0.2039 -1.6318,0.3442 -2.4392,0.5481 -0.8159,0.2083 -1.6233,0.4208 -2.4562,0.544 0.187,-0.0255 0.3782,-0.0552 0.5694,-0.0808 -1.6233,0.2253 -3.2083,0.5992 -4.8188,0.8924 0.1912,-0.034 0.3782,-0.068 0.5694,-0.102 -1.2026,0.2125 -2.333,0.612 -3.5101,0.8882 -0.4589,0.0935 -0.9178,0.1955 -1.3726,0.3017 -1.1728,0.2465 -2.3584,0.3952 -3.527,0.6332 -1.1304,0.2294 -2.265,0.4207 -3.4039,0.6076 0.1871,-0.0297 0.3783,-0.0594 0.5652,-0.0892 -1.2408,0.1955 -2.4817,0.4717 -3.731,0.5992 -1.0964,0.1147 -2.163,0.3612 -3.2508,0.5227 -2.0101,0.2932 -3.9946,0.7096 -6.0003,1.0241 -0.2762,0.034 -0.5524,0.068 -0.8329,0.085 -0.8159,0.017 -1.6233,0.034 -2.4349,0.0765 -0.0298,0 -0.0553,0 -0.085,0 -0.034,0 -0.0723,0.0042 -0.1063,0.0042 0.0085,0 0.017,0 0.0255,0 -0.0212,0 -0.0467,0 -0.0679,0.0043 -0.0043,0 -0.0128,0 -0.017,0 0.0042,0 0.0084,0 0.0127,0 C 5.3416,-0.442 3.8033,-0.2422 2.2565,-0.0765 1.6318,-0.0255 1.0029,0.0042 0.374,0.0042 0.2507,0.0042 0.1232,0 0,0 Z" style="fill:#ffffff;fill-opacity:1;fill-rule:nonzero;stroke:none" id="path6080"/>
          </g>
          <g id="g6082" transform="translate(79.7748,326.7918)">
            <path d="M 0,0 C 0.0722,0.1317 0.1445,0.2677 0.2125,0.4037 0.1402,0.2677 0.068,0.1317 0,0 Z" style="fill:#ffffff;fill-opacity:1;fill-rule:nonzero;stroke:none" id="path6084"/>
          </g>
          <g id="g6086" transform="translate(412.5503,320.7466)">
            <path d="M 0,0 C -0.051,0.0765 -0.0977,0.153 -0.1487,0.2252 -0.0977,0.1487 -0.051,0.0765 0,0 Z" style="fill:#ffffff;fill-opacity:1;fill-rule:nonzero;stroke:none" id="path6088"/>
          </g>
          <g id="g6090" transform="translate(193.7374,406.2311)">
            <path d="M 0,0 C -0.0011,-0.001 -0.0018,-0.0018 -0.0024,-0.0023 0.0417,0.011 0.0859,0.0253 0.1306,0.0396 0.1335,0.041 0.1363,0.0423 0.1392,0.0435 0.0928,0.0291 0.0464,0.0133 0,0 Z" style="fill:#ffffff;fill-opacity:1;fill-rule:nonzero;stroke:none" id="path6092"/>
          </g>
          <g id="g6094" transform="translate(131.4289,377.5845)">
            <path d="m 0,0 c 5e-4,1e-4 9e-4,2e-4 0.0014,3e-4 0.0061,0.003 0.0122,0.006 0.0183,0.0091 0.102,0.0595 0.204,0.119 0.306,0.1785 C 0.2171,0.1253 0.1086,0.0626 0,0 Z" style="fill:#ffffff;fill-opacity:1;fill-rule:nonzero;stroke:none" id="path6096"/>
          </g>
          <g id="g6098" transform="translate(228.481,414.5255)">
            <path d="m 0,0 c 0.0595,0.0043 0.119,0.0043 0.1785,0.0085 -0.168,0 -0.336,0.0069 -0.5057,0.0189 C -0.2174,0.018 -0.1086,0.0082 0,0 Z" style="fill:#ffffff;fill-opacity:1;fill-rule:nonzero;stroke:none" id="path6100"/>
          </g>
          <g id="g6102" transform="translate(193.6864,406.2135)">
            <path d="M 0,0 C 0.0083,0.0025 0.0169,0.0052 0.0253,0.0078 0.0337,0.0105 0.0422,0.0132 0.0506,0.0158 0.0927,0.0295 0.1347,0.0431 0.1767,0.0569 0.1178,0.0392 0.0589,0.0197 0,0 Z" style="fill:#ffffff;fill-opacity:1;fill-rule:nonzero;stroke:none" id="path6104"/>
          </g>
          <g id="g6106" transform="translate(121.5166,371.4635)">
            <path d="M 0,0 C 0.2165,0.1471 0.4344,0.2934 0.6525,0.4412 0.4344,0.2953 0.217,0.148 0,0 Z" style="fill:#ffffff;fill-opacity:1;fill-rule:nonzero;stroke:none" id="path6108"/>
          </g>
          <g id="g6110" transform="translate(121.2541,371.2842)">
            <path d="M 0,0 C 0.0874,0.0602 0.1749,0.1196 0.2624,0.1793 0.1747,0.1197 0.0872,0.06 0,0 Z" style="fill:#ffffff;fill-opacity:1;fill-rule:nonzero;stroke:none" id="path6112"/>
          </g>
          <g id="g6114" transform="translate(396.9245,330.2966)">
            <path d="m 0,0 c -1.5171,-1.959 -2.1885,-4.4874 -1.8528,-6.9394 0.2252,-1.6785 0.8967,-3.1403 1.891,-4.4067 0.3697,-0.7734 0.7522,-1.5425 1.1941,-2.282 0.5652,-0.9433 1.2154,-1.8315 1.8528,-2.7281 0.6289,-1.0241 1.1474,-2.1162 1.7933,-3.1361 0.9391,-1.4873 2.0865,-2.7494 3.2551,-4.037 0.0382,-0.051 0.0807,-0.102 0.119,-0.1487 0.4037,-1.2196 0.8031,-2.4435 1.3598,-3.5951 0.6417,-1.3301 1.3386,-2.6347 2.0652,-3.918 0.9392,-1.6658 1.9888,-3.2763 2.8599,-4.9719 -0.1317,0.2592 -0.2634,0.5142 -0.3909,0.7734 0.7309,-1.4405 1.5468,-2.8386 2.3032,-4.2664 0.0467,-0.1063 0.0892,-0.2083 0.1317,-0.3145 0.187,-0.5652 0.3655,-1.1304 0.527,-1.6998 0.0892,-1.8995 0.7011,-3.7268 1.8995,-5.2779 1.7465,-2.2564 4.4916,-3.6077 7.3473,-3.6077 2.0896,0 4.1324,0.7185 5.7616,2.0074 -0.2235,0.7239 -0.3889,1.4574 -0.5687,2.191 -0.1275,0.4717 -0.2508,0.9477 -0.4122,1.4066 -0.393,0.9254 -0.7943,1.8339 -1.1414,2.7758 0.0029,-0.0082 0.0054,-0.0162 0.0082,-0.0243 0.0024,-0.0063 0.0047,-0.0127 0.007,-0.0191 -0.0027,0.0067 -0.0049,0.013 -0.007,0.0191 -0.4236,1.1667 -0.9393,2.3455 -1.4803,3.4697 -0.3654,0.697 -0.7436,1.3896 -1.0581,2.112 -0.2635,0.6034 -0.4419,1.2409 -0.6332,1.8655 -0.3442,0.9689 -0.7521,1.8953 -1.1558,2.8387 -0.5057,1.1644 -0.8924,2.3329 -1.2621,3.5441 0.0062,-0.0279 0.0146,-0.0579 0.0237,-0.0869 0.0033,-0.0107 0.0069,-0.0215 0.0103,-0.0321 -0.0035,0.0104 -0.007,0.0212 -0.0103,0.0321 -0.3432,1.0815 -0.8014,2.1709 -1.2391,3.223 -0.1827,0.4122 -0.3612,0.8286 -0.5311,1.245 0.017,-0.0467 0.0382,-0.0934 0.0552,-0.1402 -0.3102,0.7437 -0.6544,1.4661 -0.9519,2.214 0.0723,-0.1827 0.1445,-0.3612 0.2168,-0.5397 -0.306,0.7522 -0.6417,1.5043 -1.0199,2.2267 -0.442,0.8457 -0.7479,1.7338 -1.0751,2.6262 -0.2975,0.7819 -0.595,1.5723 -0.9732,2.3202 -0.5057,0.9222 -1.0369,1.84 -1.5765,2.7409 -0.6629,1.1049 -1.2579,2.248 -1.9463,3.3401 -0.5482,0.8159 -1.1303,1.6063 -1.6615,2.435 -0.4335,0.6841 -0.8754,1.364 -1.3556,2.0142 -0.3952,0.4929 -0.8074,0.9646 -1.2154,1.4448 C 10.6407,-2.6814 10.169,-2.0227 9.659,-1.3938 8.6533,-0.1419 7.7539,1.1918 6.748,2.4467 6.7509,2.4427 6.7538,2.439 6.7567,2.435 6.742,2.4534 6.7277,2.472 6.7131,2.4904 6.7063,2.4988 6.6997,2.5073 6.6929,2.5157 6.6949,2.5133 6.6968,2.511 6.6988,2.5086 6.444,2.8318 6.1949,3.1582 5.9471,3.4852 3.6354,3.0955 1.4481,1.8766 0,0 Z" style="fill:#ffffff;fill-opacity:1;fill-rule:nonzero;stroke:none" id="path6116"/>
          </g>
          <g id="g6118" transform="translate(412.5497,320.748)">
            <path d="M 0,0 C -0.0467,0.0765 -0.0977,0.1487 -0.1487,0.2252 -0.0977,0.1487 -0.051,0.0722 0,0 Z" style="fill:#ffffff;fill-opacity:1;fill-rule:nonzero;stroke:none" id="path6120"/>
          </g>
          <g id="g6122" transform="translate(410.5738,285.2224)">
            <path d="m 0,0 c 0,-5.1121 4.2664,-9.3786 9.3786,-9.3786 4.1111,0 7.6782,2.7597 8.9174,6.4991 -0.1433,0.5296 -0.2665,1.0628 -0.3972,1.5962 -0.1275,0.4717 -0.2508,0.9476 -0.4122,1.4065 -0.393,0.9254 -0.7943,1.834 -1.1414,2.7758 0.0029,-0.0082 0.0054,-0.0161 0.0083,-0.0243 0.0023,-0.0063 0.0046,-0.0127 0.0069,-0.019 -0.0026,0.0067 -0.0049,0.0129 -0.0069,0.019 C 15.9298,4.0414 15.4141,5.2202 14.8731,6.3445 14.5577,6.9461 14.2328,7.5446 13.9475,8.1617 12.5887,8.9347 11.0276,9.3786 9.3786,9.3786 4.2664,9.3786 0,5.1121 0,0 Z" style="fill:#ffffff;fill-opacity:1;fill-rule:nonzero;stroke:none" id="path6124"/>
          </g>
          <g id="g6126" transform="translate(79.3698,316.7587)">
            <path d="m 0,0 c -2.0657,0 -4.3041,-0.7171 -6.1273,-1.9498 -0.5901,-1.0719 -1.1846,-2.1413 -1.764,-3.2176 -0.9476,-1.9165 -1.8252,-3.874 -2.6811,-5.8335 0.0124,-0.1356 0.0277,-0.2718 0.0465,-0.4089 0.3272,-2.418 1.6233,-4.6447 3.5525,-6.1363 1.1941,-0.9221 2.5964,-1.5085 4.054,-1.7635 0.4462,-0.7522 0.8967,-1.4958 1.4533,-2.1885 1.3301,-1.6445 2.9577,-2.9831 4.7169,-4.139 1.5893,-1.0453 3.5271,-1.5425 5.3161,-2.1162 1.1601,-0.374 2.35,-0.6289 3.5143,-0.9774 0.6332,-0.2464 1.2579,-0.5142 1.8656,-0.8201 -0.2975,0.153 -0.5992,0.3017 -0.8924,0.4504 1.5468,-0.7819 3.0299,-1.4236 4.6531,-2.0015 -0.2719,0.0935 -0.5439,0.1913 -0.8159,0.2847 1.6828,-0.5906 3.2764,-1.3725 4.9422,-1.9972 1.8782,-0.7054 3.833,-1.1729 5.741,-1.7975 2.1927,-0.7734 4.377,-1.5341 6.6419,-2.0695 2.6857,-0.629 5.4224,-0.9477 8.1335,-1.4194 2.7707,-0.4801 5.4903,-0.9646 8.3035,-1.1346 2.6219,-0.1572 5.2523,-0.1699 7.8785,-0.3102 1.5553,-0.119 3.1149,-0.2592 4.6659,-0.4207 2.503,-0.2507 4.9592,-0.6799 7.4791,-0.7776 2.4774,-0.0893 5.0654,-0.323 7.5131,0.1317 2.0142,0.3739 3.85,1.1006 5.741,1.7975 1.9335,0.6077 3.935,1.0837 5.9152,1.5213 1.4151,0.2635 2.8302,0.4845 4.2283,0.8202 1.6488,0.4037 3.1786,1.1686 4.6829,1.9293 4.6532,2.2989 9.4296,4.3344 14.1082,6.5781 2.5795,1.2409 5.2481,2.1928 7.938,3.1659 2.6007,0.9434 5.0612,2.1545 7.5216,3.3911 0.4717,0.2252 0.9476,0.4334 1.4321,0.6247 0.4887,0.1444 0.9859,0.2677 1.4873,0.3739 0.8201,0.17 1.6403,0.3442 2.4562,0.5184 0.1785,0.0298 0.3569,0.0595 0.5354,0.085 0.017,-0.0042 0.0383,-0.0085 0.0595,-0.0085 0.4632,-0.1147 0.9222,-0.2465 1.3768,-0.3867 0.6545,-0.2549 1.2961,-0.5354 1.9293,-0.8371 0.1402,-0.0808 0.2805,-0.1615 0.4164,-0.2422 1.2239,-0.8882 2.3797,-1.8698 3.5399,-2.8387 0.8244,-0.6842 1.6785,-1.3343 2.5029,-2.0185 0.17,-0.1657 0.34,-0.3314 0.5057,-0.5057 1.2833,-1.5808 2.3499,-3.3018 3.7693,-4.8019 1.6785,-1.772 3.6418,-3.3103 5.5285,-4.8486 3.5313,-2.8769 7.3813,-5.4563 11.1719,-7.9933 1.0453,-0.7309 2.0397,-1.5298 3.0384,-2.3287 1.551,-1.2366 3.2593,-2.2267 4.9208,-3.2976 1.8698,-1.3513 3.6036,-2.8726 5.5286,-4.156 1.8783,-1.2451 3.935,-2.1247 5.9663,-3.0851 0.7139,-0.3824 1.4065,-0.7904 2.0907,-1.2281 1.2578,-0.8754 2.5029,-1.7593 3.782,-2.6007 1.6021,-1.0496 3.3953,-1.8357 5.1504,-2.5836 2.9874,-1.2749 6.0724,-2.2098 9.1533,-3.2211 0.9009,-0.323 1.8018,-0.6502 2.7112,-0.9562 1.2876,-0.4292 2.5922,-0.6969 3.9223,-0.9603 2.1587,-0.4335 4.3514,-0.6927 6.5144,-1.1177 -0.4079,0.085 -0.8116,0.1658 -1.2154,0.2508 2.8727,-0.5907 5.6561,-1.1262 8.5967,-1.2069 1.925,-0.0552 3.8501,-0.1062 5.7751,-0.1827 4.4619,-0.1827 8.9536,-0.0765 13.4155,-0.0638 2.4732,0.0043 4.9379,0.085 7.3984,0.3018 2.4732,0.2167 4.9251,0.7861 7.3431,1.3343 2.1842,0.4972 4.3939,0.9136 6.5611,1.4788 2.7707,0.7309 5.2609,2.1205 7.7681,3.4591 1.5085,0.6926 3.0638,1.2536 4.6234,1.8188 1.7593,0.6331 3.4973,1.3173 5.2523,1.9675 1.0284,0.3272 2.0696,0.6119 3.1106,0.8966 1.4236,0.3952 2.8132,0.9009 4.2028,1.3981 2.5199,0.8286 5.0654,1.5723 7.5683,2.4477 2.1969,0.7691 4.2537,1.6998 6.3402,2.7281 2.1885,1.0794 4.4492,1.9845 6.5612,3.2211 1.4618,0.8584 2.8896,1.7763 4.3855,2.5667 0.6118,0.2932 1.2323,0.5737 1.8654,0.8244 1.5596,0.4887 3.1149,0.9604 4.666,1.4873 1.3046,0.4547 2.6049,0.9264 3.9095,1.3938 0.6756,0.2168 1.3556,0.3995 2.044,0.561 0.7904,0.1572 1.5723,0.3187 2.3372,0.5652 0.7692,0.2507 1.5256,0.5099 2.3074,0.7011 1.0794,0.2677 2.1248,0.5525 3.1447,1.0071 0.9943,0.4462 1.9419,0.9902 2.8981,1.5086 0.051,0.0255 0.1062,0.0467 0.1572,0.0723 0.0425,0.0084 0.085,0.0212 0.1318,0.0297 0.0807,0.0127 0.1615,0.0255 0.2422,0.0382 3.51,-0.8796 7.5853,0.2805 9.7313,3.2934 0.2549,0.3527 0.4801,0.7139 0.6841,1.0836 -0.1997,0.6714 -0.3527,1.3471 -0.5184,2.0227 -0.1275,0.4717 -0.2507,0.9477 -0.4165,1.4066 -0.3867,0.9264 -0.7904,1.8315 -1.1345,2.7749 0,-0.0013 2e-4,-0.0026 4e-4,-0.0039 -0.4275,1.1574 -0.9345,2.3311 -1.4751,3.4502 -0.3654,0.6969 -0.7436,1.3896 -1.0581,2.112 -0.2592,0.5907 -0.4334,1.2196 -0.6246,1.8316 -2.2055,0.8243 -4.5724,0.7266 -6.8842,0.4971 -1.2791,-0.1232 -2.5581,-0.3697 -3.8032,-0.6969 -1.8741,-0.4929 -3.5441,-1.4406 -5.2397,-2.3414 -0.6884,-0.1828 -1.3938,-0.323 -2.0779,-0.5355 -0.7819,-0.2464 -1.5511,-0.5057 -2.3542,-0.6884 -0.9646,-0.1997 -1.9166,-0.4164 -2.8642,-0.7096 -1.3725,-0.425 -2.7154,-0.9689 -4.071,-1.4491 -0.7351,-0.2507 -1.4703,-0.5057 -2.2012,-0.7607 -0.8712,-0.2974 -1.7593,-0.5184 -2.6474,-0.7691 -1.3259,-0.374 -2.5964,-0.9221 -3.8416,-1.5001 -2.7153,-1.2621 -5.18,-2.9279 -7.8147,-4.3302 -2.9831,-1.4533 -5.9833,-2.9152 -9.1024,-4.0497 -3.0681,-1.0327 -6.1702,-1.9633 -9.2298,-3.0342 0.3824,0.136 0.7649,0.2677 1.1516,0.3995 -1.6361,-0.544 -3.3146,-0.9179 -4.9464,-1.4618 -2.0313,-0.6757 -4.02,-1.4534 -6.0215,-2.2055 -1.4618,-0.5482 -2.9449,-1.0369 -4.4025,-1.6106 -1.9547,-0.7649 -3.7862,-1.772 -5.6347,-2.7579 -0.4505,-0.2082 -0.9009,-0.4037 -1.3556,-0.5906 -2.6432,-0.7777 -5.3926,-1.2791 -8.0868,-1.8401 -1.3173,-0.2507 -2.6389,-0.4589 -3.9732,-0.5906 -4.224,-0.221 -8.4692,-0.0978 -12.7017,-0.0935 -3.8203,0 -7.6618,0.0552 -11.4821,0.2592 -0.7734,0.085 -1.534,0.204 -2.3032,0.3399 -1.6658,0.3485 -3.3273,0.6927 -5.0058,0.9689 -1.1729,0.1955 -2.3457,0.3655 -3.5101,0.5737 -0.5142,0.1317 -1.0156,0.2805 -1.5171,0.4462 -2.129,0.7394 -4.2792,1.4066 -6.4167,2.1205 -1.687,0.6204 -3.3528,1.2961 -4.9719,2.0652 -0.5099,0.2763 -1.0028,0.5695 -1.4915,0.8754 -1.4704,1.0284 -2.9237,2.078 -4.4535,3.0256 -1.7295,1.0751 -3.6205,1.8613 -5.4605,2.7239 -0.3868,0.2125 -0.7649,0.4335 -1.1347,0.6672 -1.211,0.8924 -2.3626,1.8613 -3.5525,2.7749 -1.3769,1.0666 -2.8854,1.9208 -4.3515,2.8557 -1.0793,0.7904 -2.1035,1.6488 -3.1701,2.4562 -0.9944,0.7564 -2.0482,1.432 -3.0851,2.1204 -3.731,2.5412 -7.5003,5.1334 -10.9254,8.0698 -0.6501,0.5822 -1.3046,1.1686 -1.9165,1.789 -0.6714,0.8542 -1.2663,1.7593 -1.9122,2.6347 -1.0369,1.4108 -2.2777,2.6092 -3.5866,3.7565 -2.0312,1.7806 -4.173,3.5016 -6.319,5.1419 -2.7706,2.1162 -6.0342,3.612 -9.37,4.6107 -1.9505,0.5864 -3.9818,0.9816 -6.0258,0.9901 -2.4052,0.0127 -4.6956,-0.595 -7.0329,-1.0751 0.1913,0.0382 0.3782,0.0765 0.5652,0.1147 -1.84,-0.3782 -3.6078,-0.8074 -5.3841,-1.4958 -1.4575,-0.5609 -2.8344,-1.3216 -4.2197,-2.044 -2.3032,-1.0836 -4.6744,-1.9718 -7.0754,-2.8259 -2.4944,-0.8881 -4.8784,-1.9845 -7.2581,-3.1361 -4.8061,-2.3245 -9.7227,-4.4067 -14.4907,-6.8119 0.34,0.1742 0.68,0.3442 1.0199,0.5142 -0.4249,-0.2083 -0.8499,-0.408 -1.2876,-0.5865 -0.1359,-0.0382 -0.2762,-0.0722 -0.4164,-0.1062 -2.231,-0.4249 -4.4322,-0.9094 -6.6419,-1.4321 -2.2777,-0.5354 -4.445,-1.2918 -6.6292,-2.112 -0.0807,-0.0254 -0.1657,-0.0467 -0.2507,-0.0722 -0.0128,-0.0042 -0.0298,-0.0042 -0.0468,-0.0085 -1.5,-0.0382 -3.0129,0.0297 -4.5129,0.1147 -3.0554,0.2805 -6.0895,0.7564 -9.1491,0.9987 -3.3486,0.2635 -6.7057,0.2974 -10.0543,0.4759 -2.0907,0.1955 -4.1389,0.5864 -6.2084,0.9434 -1.9845,0.3485 -3.986,0.6077 -5.9705,0.9731 -1.3046,0.2975 -2.588,0.6544 -3.8586,1.0752 -1.3555,0.4844 -2.7069,0.9688 -4.0795,1.4065 -0.8498,0.2762 -1.7252,0.4844 -2.5836,0.7352 -0.7224,0.2847 -1.4279,0.6076 -2.1375,0.9179 -0.9604,0.4207 -1.9463,0.7691 -2.9364,1.1133 -0.5652,0.1997 -1.1134,0.425 -1.6573,0.6884 -1.823,0.8924 -3.6418,1.6998 -5.6305,2.2352 -1.1347,0.306 -2.2565,0.612 -3.3741,0.9604 -0.1912,0.3315 -0.3782,0.663 -0.5907,0.9817 -0.7564,1.1516 -1.636,2.1077 -2.5454,3.1063 -0.5992,0.6884 -1.1984,1.3131 -1.942,1.8953 -0.2338,0.187 -0.476,0.3527 -0.7224,0.5057 -0.306,0.3272 -0.6375,0.6459 -1.0029,0.9604 C 4.5937,-0.6629 2.197,-0.0212 0.068,0 0.0467,0 0.0212,0 0,0 Z" style="fill:#ffffff;fill-opacity:1;fill-rule:nonzero;stroke:none" id="path6128"/>
          </g>
          <g id="g6130" transform="translate(401.6386,271.7414)">
            <path d="M 0,0 C 0.1388,0.0474 0.2776,0.0951 0.4163,0.1434 0.2775,0.0956 0.1388,0.0478 0,0 Z" style="fill:#ffffff;fill-opacity:1;fill-rule:nonzero;stroke:none" id="path6132"/>
          </g>
          <g id="g6134" transform="translate(401.4025,271.6613)">
            <path d="m 0,0 c -0.1649,-0.0574 -0.3299,-0.1149 -0.495,-0.1716 0.2437,0.0839 0.4874,0.1678 0.7311,0.2518 C 0.1574,0.0533 0.0787,0.0266 0,0 Z" style="fill:#ffffff;fill-opacity:1;fill-rule:nonzero;stroke:none" id="path6136"/>
          </g>
          <g id="g6138" transform="translate(247.3827,401.4214)">
            <path d="m 0,0 c -0.3477,-0.1536 -0.6905,-0.3212 -1.0275,-0.5022 -2.2895,-0.264 -4.5417,-0.9122 -6.7401,-1.6334 -0.9267,0.0513 -1.8536,0.0966 -2.7796,0.1383 -5.962,0.272 -12.0515,0.5142 -18.005,-0.0212 -6.3444,-0.5694 -12.7952,-1.4491 -18.7742,-3.7608 -2.0312,-0.7819 -4.0539,-1.6105 -5.8005,-2.9364 -1.4319,-1.0874 -2.4774,-2.5335 -3.1105,-4.1378 -0.2933,-0.1104 -0.5865,-0.2212 -0.8797,-0.3326 -1.8929,-0.7155 -3.7565,-1.541 -5.5994,-2.4163 -1.8087,1.0943 -3.9624,1.6157 -6.0357,1.2179 -0.5652,-0.1062 -1.1261,-0.2209 -1.6913,-0.3399 -1.0666,-0.2932 -2.0057,-0.8202 -2.9746,-1.3428 -1.4278,-0.7734 -2.7452,-1.8996 -4.0455,-2.8642 -0.9944,-0.7309 -1.9972,-1.4491 -2.9916,-2.1757 -1.0647,-0.7725 -2.1461,-1.5229 -3.2184,-2.2852 -2.8107,-0.9107 -5.5703,-2.0752 -8.1617,-3.4856 -1.5343,-0.8358 -3.0493,-1.7033 -4.5538,-2.589 -1.8719,0.4357 -3.8831,0.3111 -5.7469,-0.4621 -0.747,-0.3118 -1.4021,-0.7303 -2.0565,-1.1741 -2.5932,-1.7169 -5.2114,-3.3969 -7.8873,-4.9919 -1.415,-0.8371 -2.8429,-1.6318 -4.2495,-2.4817 -1.9207,-1.1601 -3.7607,-2.4052 -5.605,-3.68 -2.4902,-1.7211 -4.8104,-3.7438 -7.1221,-5.6943 -1.4746,-1.2451 -2.9449,-2.4902 -4.3982,-3.7693 -2.3814,-2.0949 -5.1862,-4.3527 -6.4035,-7.3724 -0.9646,-0.6375 -1.9275,-1.2763 -2.8859,-1.9212 -2.7664,-1.8698 -6.3359,-3.7438 -7.9252,-6.7779 -0.1128,-0.2158 -0.2183,-0.4343 -0.3165,-0.6546 -1.9492,-1.512 -3.5365,-3.5675 -4.9784,-5.5241 -1.4405,-1.9548 -2.8768,-3.9223 -4.1559,-5.9875 -1.1984,-1.9293 -2.265,-4.1985 -2.1758,-6.5272 0.001,-0.0237 0.002,-0.0472 0.003,-0.0708 -0.5434,-0.7073 -1.02,-1.4757 -1.4097,-2.3344 -1.1899,-2.6347 -0.9009,-5.877 0.5439,-8.3417 1.3858,-2.3686 3.7599,-3.9812 6.4149,-4.4662 1.23,-0.64 2.5941,-1.0033 3.9704,-1.0722 0.5536,-1.9739 1.7741,-3.7751 3.349,-5.1151 3.3613,-2.8556 8.227,-2.5794 11.839,-0.3824 1.8583,1.1286 3.5979,2.4138 5.2951,3.767 -0.0342,-1.3693 0.2134,-2.7421 0.7264,-3.9582 1.2791,-3.0214 4.1135,-5.1801 7.3516,-5.6306 1.9505,-0.2762 3.9902,-0.2379 6.0002,-0.1997 0.7479,0.0127 1.4916,0.0255 2.2268,0.0255 2.2437,-0.004 4.4874,-0.008 6.7354,-0.0382 4.6548,-0.0634 9.3024,-0.1969 13.9493,-0.4725 2.3349,-0.2054 4.6698,-0.4148 7.0006,-0.6282 2.9703,-0.2762 5.9152,-0.3059 8.8686,0.136 1.6998,0.2508 3.3231,0.7777 4.8486,1.5638 1.4279,0.7352 2.4647,1.7721 3.4846,2.9916 1.8817,2.2475 2.4469,5.6999 1.5726,8.5945 0.9062,0.2053 1.8043,0.4528 2.6896,0.6736 2.1248,0.527 4.2452,1.0624 6.37,1.5978 4.1305,1.0454 8.2525,2.0908 12.3532,3.2551 6.2212,1.7647 12.0031,4.6523 17.6936,7.6932 1.9411,-2.7683 4.14,-5.3511 5.8017,-7.5402 1.9548,-2.5794 3.7821,-5.1928 5.9493,-7.6065 1.1856,-1.3216 2.5454,-2.622 3.9945,-3.6291 1.8825,-1.3088 3.9392,-2.0142 6.2425,-2.0142 0.5857,0 1.1546,0.0553 1.7055,0.1609 0.7716,-1.2032 1.5553,-2.3987 2.3527,-3.586 1.8443,-2.7494 3.9053,-5.2906 6.217,-7.6618 1.585,-1.6318 3.425,-3.1743 5.4563,-4.1857 1.905,-0.9453 4.0338,-1.1621 6.0427,-0.7665 1.0949,-1.0376 2.177,-2.0891 3.2106,-3.1968 0.6577,-0.8314 1.3832,-1.61 2.2245,-2.2622 0.9361,-0.7229 1.9307,-1.1782 2.9985,-1.5012 0.1521,-1.106 0.4355,-2.1855 0.8643,-3.1987 1.942,-4.5852 6.6929,-7.9295 11.788,-7.2623 1.772,0.2299 3.4283,0.8623 4.8674,1.8166 1.3283,-1.5874 3.2769,-2.9701 5.2676,-3.3889 1.0496,-0.221 2.061,-0.476 3.1446,-0.476 1.0879,0 2.3202,0.1615 3.3741,0.4504 0.775,0.2138 1.557,0.4972 2.3163,0.8421 3.1657,-2.8811 8.0844,-3.0766 11.6003,-0.6795 1.6833,-1.4293 3.8231,-2.1938 6.0814,-2.2533 1.8485,-0.0467 3.6715,0.2975 5.2736,1.2621 1.5383,0.9264 2.7239,2.0737 3.9563,3.3528 0.2678,0.2786 0.5302,0.5618 0.7884,0.8492 1.4223,-0.8649 3.0643,-1.3545 4.7614,-1.3039 1.8145,0.051 3.5483,0.2423 5.231,0.9647 1.3174,0.5652 2.6007,1.2238 3.8628,1.9122 2.7095,1.48 5.1592,3.4792 7.4159,5.596 1.6613,-0.5247 3.4214,-0.7906 5.1966,-0.9003 1.3177,-0.0808 2.7027,0.1088 4.0346,0.4201 1.2616,-0.7193 2.6055,-1.2876 4.0139,-1.6567 4.2622,-1.1176 8.8261,-1.0666 12.9268,0.6884 7.2156,3.0936 12.74,9.3828 16.4455,16.1735 0.6239,1.144 1.1966,2.3229 1.7143,3.5275 0.6533,0.1142 1.3035,0.2468 1.9503,0.3977 2.7435,-0.8314 5.6398,-0.7115 8.23,0.4341 1.9543,-0.1824 4.0531,-0.1522 5.8597,0.3746 1.9038,0.5567 3.6503,1.4406 5.0696,2.8599 1.8103,1.8103 3.0596,4.5724 3.0086,7.1518 -0.0382,1.9421 -0.3187,3.7311 -1.1813,5.4861 -0.9179,1.8698 -2.1163,3.5016 -3.5101,5.0399 -1.67,1.8485 -3.5441,3.4506 -5.4223,5.0781 -2.2768,1.9726 -4.8776,3.6213 -7.4192,5.2368 -0.5771,0.8029 -1.1572,1.6028 -1.7342,2.4038 -2.4732,3.4463 -5.1206,6.7694 -8.0697,9.8205 -2.3768,2.4587 -5.0424,4.7751 -7.9394,6.7355 0.0996,1.1517 0.008,2.3192 -0.2578,3.4122 -0.7904,3.2636 -3.2976,5.9705 -5.7028,8.193 -1.1516,1.0666 -2.3075,2.129 -3.4803,3.1743 -2.316,2.0653 -4.632,4.1221 -7.1094,5.996 -4.9506,3.7523 -10.3517,6.846 -15.7061,9.9863 -2.6431,1.5511 -5.35,3.0044 -8.1717,4.2155 -2.7937,1.1991 -5.9645,1.7315 -8.8994,1.0091 -0.1804,0.1147 -0.3613,0.2289 -0.5429,0.3422 -1.2859,0.8043 -2.6123,1.5416 -3.9687,2.2206 -0.0042,0.0054 -0.0081,0.0107 -0.0123,0.0161 0.0315,1.9599 -0.4453,3.93 -1.3946,5.5526 -2.2352,3.816 -6.3274,6.0895 -10.1775,7.972 -4.9676,2.4307 -10.2284,4.1008 -15.468,5.8175 -2.0474,0.6714 -4.0998,1.3631 -6.159,2.0495 -2.2802,0.8334 -4.5878,1.5947 -6.9237,2.2433 -3.7142,1.1497 -7.4592,2.192 -11.2498,2.9822 -1.3273,0.6299 -2.7728,1.0501 -4.241,1.2707 -2.6839,0.4004 -5.3702,0.4482 -8.0487,0.2712 -2.3928,0.1369 -4.7838,0.2224 -7.1899,0.2345 -0.0667,4e-4 -0.1337,5e-4 -0.2005,5e-4 C 7.0232,2.0276 3.3171,1.4604 0,0 Z" style="fill:#ffffff;fill-opacity:1;fill-rule:nonzero;stroke:none" id="path6140"/>
          </g>
          <g id="g6142" transform="translate(188.9818,404.8046)">
            <path d="M 0,0 C 0.0812,0.0261 0.1631,0.0527 0.2443,0.0793 0.1625,0.0541 0.0811,0.0276 0,0 Z" style="fill:#000000;fill-opacity:1;fill-rule:nonzero;stroke:none" id="path6144"/>
          </g>
          <g id="g6146" transform="translate(392.6308,373.7091)">
            <path d="m 0,0 c 0,0.0042 0,0.0042 0,0.0085 -0.0298,0.068 -0.0595,0.136 -0.0892,0.204 -0.017,0.0425 -0.034,0.0807 -0.0553,0.1232 C -0.0935,0.2252 -0.0468,0.1105 0,0 Z" style="fill:#000000;fill-opacity:1;fill-rule:nonzero;stroke:none" id="path6148"/>
          </g>
        </g>
      </g>
    </g>
    <g id="g6150" transform="matrix(1,0,0,-1,0,500)" style="">
      <g id="g6152">
        <g id="g6154" clip-path="url(#clipPath6158)">
          <g id="g6160" transform="translate(261.8952,133.2529)">
            <path d="m 0,0 c 0,-7.7734 6.4883,-14.2617 14.2617,-14.2617 7.7735,0 14.2617,6.4883 14.2617,14.2617 0,7.7735 -6.4882,14.2617 -14.2617,14.2617 C 6.4883,14.2617 0,7.7735 0,0 Z" style="fill:#ffffff;fill-opacity:1;fill-rule:nonzero;stroke:none" id="path6162"/>
          </g>
          <g id="g6164" transform="translate(366.081,197.2115)">
            <path d="m 0,0 c 0,-7.7812 6.4961,-14.2773 14.2773,-14.2773 7.7813,0 14.2774,6.4961 14.2774,14.2773 0,7.7812 -6.4961,14.2773 -14.2774,14.2773 C 6.4961,14.2773 0,7.7812 0,0 Z" style="fill:#ffffff;fill-opacity:1;fill-rule:nonzero;stroke:none" id="path6166"/>
          </g>
          <g id="g6168" transform="translate(274.3688,151.965)">
            <path d="m 0,0 c -8.8597,-0.9242 -15.9629,-8.5941 -15.9629,-17.6646 0,-9.6758 8.082,-17.7578 17.7578,-17.7578 9.6758,0 17.7578,8.082 17.7578,17.7578 0,9.4915 -7.7781,17.4491 -17.2077,17.7488 C 1.5638,0.0375 0.7811,0.0093 0,0 Z" style="fill:#ffffff;fill-opacity:1;fill-rule:nonzero;stroke:none" id="path6170"/>
          </g>
          <g id="g6172" transform="translate(363.7556,197.3524)">
            <path d="m 0,0 c 0,-9.625 8.0391,-17.6641 17.6641,-17.6641 9.625,0 17.664,8.0391 17.664,17.6641 0,9.625 -8.039,17.6641 -17.664,17.6641 C 8.0391,17.6641 0,9.625 0,0 Z" style="fill:#ffffff;fill-opacity:1;fill-rule:nonzero;stroke:none" id="path6174"/>
          </g>
          <g id="g6176" transform="translate(322.7216,210.361)">
            <path d="M 0,0 C 0.1987,-3.464 0.2092,-6.7644 0.0187,-10.0635 0.9841,-6.6931 0.8818,-3.0659 -0.0268,0.4433 -0.0175,0.2956 -0.0085,0.1479 0,0 Z" style="fill:#ffffff;fill-opacity:0;fill-rule:nonzero;stroke:none" id="path6178"/>
          </g>
        </g>
      </g>
    </g>
    <g id="g6180" transform="matrix(1,0,0,-1,0,500)" style="">
      <g id="g6182">
        <g id="g6184" clip-path="url(#clipPath6188)">
          <g id="g6190" transform="translate(149.5949,148.3984)">
            <path d="m 0,0 c 0,-7.7656 6.4805,-14.2461 14.2461,-14.2461 7.7656,0 14.2461,6.4805 14.2461,14.2461 0,7.7656 -6.4805,14.2461 -14.2461,14.2461 C 6.4805,14.2461 0,7.7656 0,0 Z" style="fill:#ffffff;fill-opacity:1;fill-rule:nonzero;stroke:none" id="path6192"/>
          </g>
          <g id="g6194" transform="translate(145.8371,147.7773)">
            <path d="m 0,0 c 0,-9.7031 8.1016,-17.8047 17.8047,-17.8047 9.7031,0 17.8047,8.1016 17.8047,17.8047 0,9.7031 -8.1016,17.8047 -17.8047,17.8047 C 8.1016,17.8047 0,9.7031 0,0 Z" style="fill:#ffffff;fill-opacity:1;fill-rule:nonzero;stroke:none" id="path6196"/>
          </g>
          <g id="g6198" transform="translate(230.0597,215.2251)">
            <path d="m 0,0 c 0,-7.7656 6.4805,-14.2461 14.2461,-14.2461 7.7656,0 14.2461,6.4805 14.2461,14.2461 0,7.7656 -6.4805,14.2461 -14.2461,14.2461 C 6.4805,14.2461 0,7.7656 0,0 Z" style="fill:#ffffff;fill-opacity:1;fill-rule:nonzero;stroke:none" id="path6200"/>
          </g>
          <g id="g6202" transform="translate(226.3018,214.604)">
            <path d="m 0,0 c 0,-9.7031 8.1016,-17.8047 17.8047,-17.8047 9.7031,0 17.8047,8.1016 17.8047,17.8047 0,9.7031 -8.1016,17.8047 -17.8047,17.8047 C 8.1016,17.8047 0,9.7031 0,0 Z" style="fill:#ffffff;fill-opacity:1;fill-rule:nonzero;stroke:none" id="path6204"/>
          </g>
          <g id="g6206" transform="translate(104.9301,226.4766)">
            <path d="m 0,0 c 0,-7.7656 6.4805,-14.2461 14.2461,-14.2461 7.7656,0 14.2461,6.4805 14.2461,14.2461 0,7.7656 -6.4805,14.2461 -14.2461,14.2461 C 6.4805,14.2461 0,7.7656 0,0 Z" style="fill:#ffffff;fill-opacity:1;fill-rule:nonzero;stroke:none" id="path6208"/>
          </g>
          <g id="g6210" transform="translate(101.1723,225.8555)">
            <path d="m 0,0 c 0,-9.7031 8.1016,-17.8047 17.8047,-17.8047 9.7031,0 17.8047,8.1016 17.8047,17.8047 0,9.7031 -8.1016,17.8047 -17.8047,17.8047 C 8.1016,17.8047 0,9.7031 0,0 Z" style="fill:#ffffff;fill-opacity:1;fill-rule:nonzero;stroke:none" id="path6212"/>
          </g>
        </g>
      </g>
    </g>
    <g id="g6214" transform="matrix(1,0,0,-1,0,500)" style="">
      <g id="g6216">
        <g id="g6218" clip-path="url(#clipPath6222)">
          <g id="g6224" transform="translate(338.9531,388.8594)">
            <path d="m 0,0 c 47.3984,-28.7188 78.8828,-79.4336 78.8828,-137.1992 0,-89.5508 -75.6562,-162.1445 -168.9805,-162.1445 -93.3242,0 -168.9804,72.5937 -168.9804,162.1445 0,89.2617 75.1679,161.6758 168.0742,162.1406 0.0703,0 0.1406,0.0039 0.2109,0.0039 0.0742,0 0.1407,0 0.2149,0 0.1601,0 0.3203,0 0.4804,0 0.1719,0 0.3438,0 0.5157,0 0.0586,0 0.1054,0 0.164,0 0.1172,0 0.2383,-0.0039 0.3594,-0.0039 0.0625,0 0.125,0 0.1875,0 0.1133,0 0.2266,-0.0039 0.3359,-0.0039 0.0586,0 0.125,0 0.1836,0 0.1094,0 0.2188,-0.0039 0.3282,-0.0039 0.0781,0 0.1445,-0.0039 0.2265,-0.0039 0.0899,0 0.1836,0 0.2774,-0.0039 0.0781,0 0.1562,0 0.2343,-0.0039 0.0977,0 0.1954,0 0.293,-0.0039 0.0742,0 0.1524,-0.0039 0.2266,-0.0039 0.1211,-0.0039 0.25,-0.0039 0.3711,-0.0078 0.0468,0 0.082,0 0.1289,0 0.1679,-0.004 0.3398,-0.0079 0.5078,-0.0118 0.0703,-0.0039 0.1328,-0.0039 0.2031,-0.0078 0.1055,0 0.207,-0.0039 0.3125,-0.0078 0.0781,0 0.1484,-0.0039 0.2305,-0.0039 0.0937,-0.0039 0.1875,-0.0078 0.2812,-0.0117 0.0782,0 0.1602,-0.0039 0.2383,-0.0039 0.0938,-0.0039 0.1875,-0.0078 0.2774,-0.0117 0.0781,0 0.164,-0.0039 0.246,-0.0079 0.086,-0.0039 0.1719,-0.0039 0.2579,-0.0078 0.0859,-0.0039 0.1679,-0.0078 0.2539,-0.0117 0.0898,0 0.1836,-0.0039 0.2734,-0.0078 0.0781,-0.0039 0.1523,-0.0078 0.2344,-0.0078 0.0976,-0.0078 0.1992,-0.0117 0.2969,-0.0156 0.0703,0 0.1445,-0.0039 0.2109,-0.0078 0.1016,-0.004 0.207,-0.0079 0.3086,-0.0118 0.332,-0.0156 0.6758,-0.0312 1.0039,-0.0507 0.0664,0 0.1289,-0.004 0.1914,-0.0079 0.0898,-0.0039 0.1914,-0.0117 0.2812,-0.0156 0.0743,-0.0039 0.1524,-0.0078 0.2305,-0.0117 0.0899,-0.0039 0.1914,-0.0117 0.2813,-0.0156 0.0703,-0.0039 0.1445,-0.0078 0.2187,-0.0117 0.0938,-0.004 0.2031,-0.0118 0.3008,-0.0157 0.0586,-0.0039 0.1172,-0.0078 0.1758,-0.0117 0.1133,-0.0078 0.2265,-0.0156 0.3398,-0.0195 0.0508,-0.0039 0.0977,-0.0078 0.1446,-0.0117 0.1132,-0.0079 0.2343,-0.0118 0.3476,-0.0196 0.043,-0.0039 0.0899,-0.0078 0.1367,-0.0117 0.5742,-0.0351 1.1446,-0.0742 1.7227,-0.1172 0.0273,-0.0039 0.0586,-0.0078 0.0859,-0.0078 0.1289,-0.0117 0.2578,-0.0195 0.3867,-0.0312 0.0352,0 0.0664,-0.0039 0.0977,-0.0079 0.1328,-0.0078 0.2539,-0.0195 0.3906,-0.0312 0.0313,0 0.0664,-0.0039 0.0977,-0.0078 0.1289,-0.0078 0.2656,-0.0195 0.3945,-0.0313 0.0274,-0.0039 0.0508,-0.0039 0.0781,-0.0078 0.1368,-0.0078 0.2774,-0.0234 0.4102,-0.0351 0.0195,0 0.0391,0 0.0586,-0.0039 C -47.6367,21.9453 -22.3555,13.4492 -0.4531,0.2734 -0.418,0.25 -0.3828,0.2305 -0.3437,0.207 -0.2695,0.1641 -0.1992,0.1211 -0.125,0.0742 -0.082,0.0508 -0.043,0.0234 0,0 Z m -88.9531,-334.3594 c 111.8359,0 202.5,87.5274 202.5,195.5 0,107.9727 -90.6641,195.5 -202.5,195.5 -111.836,0 -202.5,-87.5273 -202.5,-195.5 0,-107.9726 90.664,-195.5 202.5,-195.5 z" style="fill-opacity: 1; fill-rule: nonzero; stroke: none; fill: rgb(52, 146, 154);" id="path6226"/>
          </g>
        </g>
      </g>
    </g>
  </g>
</svg>