<?xml version="1.0" encoding="utf-8"?>
<svg viewBox="0 0 666.66669 666.66669" xmlns="http://www.w3.org/2000/svg">
  <defs>
    <clipPath clipPathUnits="userSpaceOnUse" id="clipPath6667">
      <path d="m 16.75,41.75 h 405.5 v 391.5 H 16.75 Z" id="path6665"/>
    </clipPath>
    <clipPath clipPathUnits="userSpaceOnUse" id="clipPath6681">
      <path d="M 41.6426,228.687 H 409.52 V 404.945 H 41.6426 Z" id="path6679"/>
    </clipPath>
    <clipPath clipPathUnits="userSpaceOnUse" id="clipPath6899">
      <path d="m 305.344,242.305 h 56.386 v 56.703 h -56.386 z" id="path6897"/>
    </clipPath>
    <clipPath clipPathUnits="userSpaceOnUse" id="clipPath6913">
      <path d="m 201.672,318.531 h 43.555 v 43.801 h -43.555 z" id="path6911"/>
    </clipPath>
    <clipPath clipPathUnits="userSpaceOnUse" id="clipPath6927">
      <path d="m 74.3647,165.979 h 56.3903 v 56.703 H 74.3647 Z" id="path6925"/>
    </clipPath>
    <clipPath clipPathUnits="userSpaceOnUse" id="clipPath6941">
      <path d="m 185.883,191.009 h 40.395 v 40.618 h -40.395 z" id="path6939"/>
    </clipPath>
    <clipPath clipPathUnits="userSpaceOnUse" id="clipPath6955">
      <path d="m 16.75,41.75 h 405.5 v 391.5 H 16.75 Z" id="path6953"/>
    </clipPath>
  </defs>
  <g id="g6657" transform="matrix(1.333333, 0, 0, -1.333333, 40.666748, 683.333252)">
    <g id="g6659" transform="matrix(1,0,0,-1,0,500)">
      <g id="g6661">
        <g id="g6663" clip-path="url(#clipPath6667)">
          <g id="g6669" transform="translate(219.5,42)">
            <path d="M 0,0 C 111.8359,0 202.5,87.5273 202.5,195.5 202.5,303.4727 111.8359,391 0,391 -111.8359,391 -202.5,303.4727 -202.5,195.5 -202.5,87.5273 -111.8359,0 0,0 Z" style="fill-opacity: 1; fill-rule: nonzero; stroke: none; fill: rgb(52, 146, 154);" id="path6671"/>
          </g>
        </g>
      </g>
    </g>
    <g id="g6673" transform="matrix(1,0,0,-1,0,500)">
      <g id="g6675">
        <g id="g6677" clip-path="url(#clipPath6681)">
          <g id="g6683" transform="translate(312.6356,356.2943)">
            <path d="M 0,0 C -0.0593,2e-4 -0.1174,3e-4 -0.1766,4e-4 -0.1207,3e-4 -0.0559,2e-4 0,0 Z" style="fill-opacity: 1; fill-rule: nonzero; stroke: none; fill: rgb(255, 255, 255);" id="path6685"/>
          </g>
          <g id="g6687" transform="translate(313.1489,356.2926)">
            <path d="M 0,0 C -0.0592,2e-4 -0.1208,5e-4 -0.1801,7e-4 -0.1199,5e-4 -0.0601,2e-4 0,0 Z" style="fill-opacity: 1; fill-rule: nonzero; stroke: none; fill: rgb(255, 255, 255);" id="path6689"/>
          </g>
          <g id="g6691" transform="translate(310.3896,356.2904)">
            <path d="M 0,0 C 0.0515,3e-4 0.1011,6e-4 0.1525,8e-4 0.1016,6e-4 0.051,3e-4 0,0 Z" style="fill-opacity: 1; fill-rule: nonzero; stroke: none; fill: rgb(255, 255, 255);" id="path6693"/>
          </g>
          <g id="g6695" transform="translate(314.3148,356.2847)">
            <path d="M 0,0 C -0.0735,6e-4 -0.1442,0.0013 -0.2177,0.0019 -0.1448,0.0013 -0.0728,6e-4 0,0 Z" style="fill-opacity: 1; fill-rule: nonzero; stroke: none; fill: rgb(255, 255, 255);" id="path6697"/>
          </g>
          <g id="g6699" transform="translate(309.5932,356.2844)">
            <path d="M 0,0 C 0.0685,6e-4 0.1356,0.0012 0.2042,0.0017 0.1365,0.0012 0.0677,6e-4 0,0 Z" style="fill-opacity: 1; fill-rule: nonzero; stroke: none; fill: rgb(255, 255, 255);" id="path6701"/>
          </g>
          <g id="g6703" transform="translate(314.806,356.2798)">
            <path d="M 0,0 C -0.0634,7e-4 -0.1245,0.0013 -0.1878,0.002 -0.1279,0.0013 -0.0599,7e-4 0,0 Z" style="fill-opacity: 1; fill-rule: nonzero; stroke: none; fill: rgb(255, 255, 255);" id="path6705"/>
          </g>
          <g id="g6707" transform="translate(308.8004,356.2759)">
            <path d="M 0,0 C 0.077,9e-4 0.1572,0.0019 0.2343,0.0028 0.1563,0.0019 0.0779,9e-4 0,0 Z" style="fill-opacity: 1; fill-rule: nonzero; stroke: none; fill: rgb(255, 255, 255);" id="path6709"/>
          </g>
          <g id="g6711" transform="translate(315.446,356.272)">
            <path d="M 0,0 C -0.059,8e-4 -0.1179,0.0016 -0.1769,0.0024 -0.117,0.0016 -0.0598,8e-4 0,0 Z" style="fill-opacity: 1; fill-rule: nonzero; stroke: none; fill: rgb(255, 255, 255);" id="path6713"/>
          </g>
          <g id="g6715" transform="translate(307.9877,356.2647)">
            <path d="M 0,0 C 0.1025,0.0016 0.2033,0.0031 0.3058,0.0045 0.2039,0.0031 0.1019,0.0015 0,0 Z" style="fill-opacity: 1; fill-rule: nonzero; stroke: none; fill: rgb(255, 255, 255);" id="path6717"/>
          </g>
          <g id="g6719" transform="translate(315.9842,356.2643)">
            <path d="M 0,0 C -0.0818,0.0013 -0.1627,0.0025 -0.2445,0.0037 -0.1633,0.0025 -0.0811,0.0013 0,0 Z" style="fill-opacity: 1; fill-rule: nonzero; stroke: none; fill: rgb(255, 255, 255);" id="path6721"/>
          </g>
          <g id="g6723" transform="translate(316.4933,356.256)">
            <path d="M 0,0 C -0.0918,0.0016 -0.1843,0.0031 -0.2762,0.0046 -0.1823,0.0031 -0.0939,0.0016 0,0 Z" style="fill-opacity: 1; fill-rule: nonzero; stroke: none; fill: rgb(255, 255, 255);" id="path6725"/>
          </g>
          <g id="g6727" transform="translate(307.1387,356.2504)">
            <path d="M 0,0 C 0.179,0.0033 0.3547,0.0064 0.534,0.0093 0.3558,0.0064 0.178,0.0033 0,0 Z" style="fill-opacity: 1; fill-rule: nonzero; stroke: none; fill: rgb(255, 255, 255);" id="path6729"/>
          </g>
          <g id="g6731" transform="translate(317.179,356.2432)">
            <path d="M 0,0 C -0.1963,0.0039 -0.3962,0.0077 -0.5927,0.0112 -0.3965,0.0077 -0.196,0.0039 0,0 Z" style="fill-opacity: 1; fill-rule: nonzero; stroke: none; fill: rgb(255, 255, 255);" id="path6733"/>
          </g>
          <g id="g6735" transform="translate(288.1908,355.1931)">
            <path d="M 0,0 C 1e-4,-6e-4 1e-4,-0.001 2e-4,-0.0016 6.1099,0.573 12.381,0.9305 18.7649,1.0538 12.378,0.931 6.1102,0.575 0,0 Z" style="fill-opacity: 1; fill-rule: nonzero; stroke: none; fill: rgb(255, 255, 255);" id="path6737"/>
          </g>
          <g id="g6739" transform="translate(317.6492,356.2333)">
            <path d="M 0,0 C -0.0959,0.0021 -0.1898,0.0041 -0.2858,0.0061 -0.1921,0.0042 -0.0936,0.0021 0,0 Z" style="fill-opacity: 1; fill-rule: nonzero; stroke: none; fill: rgb(255, 255, 255);" id="path6741"/>
          </g>
          <g id="g6743" transform="translate(318.8839,356.2034)">
            <path d="M 0,0 C -0.3469,0.0092 -0.691,0.0177 -1.0387,0.0255 -0.6941,0.0178 -0.3438,0.0092 0,0 Z" style="fill-opacity: 1; fill-rule: nonzero; stroke: none; fill: rgb(255, 255, 255);" id="path6745"/>
          </g>
          <g id="g6747" transform="translate(319.3232,356.1913)">
            <path d="M 0,0 C -0.1169,0.0033 -0.2335,0.0065 -0.3506,0.0097 -0.2318,0.0065 -0.1188,0.0034 0,0 Z" style="fill-opacity: 1; fill-rule: nonzero; stroke: none; fill: rgb(255, 255, 255);" id="path6749"/>
          </g>
          <g id="g6751" transform="translate(349.0568,353.5664)">
            <path d="M 0,0 C -1e-4,1e-4 -1e-4,1e-4 -2e-4,2e-4 -9.4601,1.4324 -19.3895,2.3298 -29.6447,2.6205 -19.3889,2.3297 -9.4632,1.4324 0,0 Z" style="fill-opacity: 1; fill-rule: nonzero; stroke: none; fill: rgb(255, 255, 255);" id="path6753"/>
          </g>
          <g id="g6755" transform="translate(275.1759,353.6083)">
            <path d="M 0,0 C 3.5969,0.5396 7.2564,1.0015 10.9793,1.3832 7.2574,1.003 3.5952,0.54 0,0 Z" style="fill-opacity: 1; fill-rule: nonzero; stroke: none; fill: rgb(255, 255, 255);" id="path6757"/>
          </g>
          <g id="g6759" transform="translate(274.7163,353.5388)">
            <path d="M 0,0 C 0.0704,0.0107 0.1371,0.0208 0.2076,0.0314 0.1383,0.021 0.0692,0.0105 0,0 Z" style="fill-opacity: 1; fill-rule: nonzero; stroke: none; fill: rgb(255, 255, 255);" id="path6761"/>
          </g>
          <g id="g6763" transform="translate(256.2959,349.9315)">
            <path d="m 0,0 c 1.8566,0.4499 3.7369,0.8777 5.6424,1.2833 -1e-4,7e-4 -3e-4,0.0013 -5e-4,0.002 C 3.7368,0.879 1.856,0.4502 0,0 Z" style="fill-opacity: 1; fill-rule: nonzero; stroke: none; fill: rgb(255, 255, 255);" id="path6765"/>
          </g>
          <g id="g6767" transform="translate(255.7015,349.7864)">
            <path d="M 0,0 C 0.1989,0.0489 0.3927,0.0962 0.5922,0.1445 0.3945,0.0966 0.1971,0.0485 0,0 Z" style="fill-opacity: 1; fill-rule: nonzero; stroke: none; fill: rgb(255, 255, 255);" id="path6769"/>
          </g>
          <g id="g6771" transform="translate(255.0818,349.6332)">
            <path d="M 0,0 C 0.0829,0.0206 0.1675,0.0417 0.2505,0.0622 0.167,0.0415 0.0834,0.0208 0,0 Z" style="fill-opacity: 1; fill-rule: nonzero; stroke: none; fill: rgb(255, 255, 255);" id="path6773"/>
          </g>
          <g id="g6775" transform="translate(202.4784,325.3453)">
            <path d="M 0,0 C 0.0454,0.0377 0.0947,0.0786 0.1402,0.1163 0.0936,0.0777 0.0465,0.0386 0,0 Z" style="fill-opacity: 1; fill-rule: nonzero; stroke: none; fill: rgb(255, 255, 255);" id="path6777"/>
          </g>
          <g id="g6779" transform="translate(202.2504,325.1551)">
            <path d="M 0,0 C 0.0513,0.043 0.1055,0.0882 0.157,0.1312 0.1045,0.0875 0.0522,0.0438 0,0 Z" style="fill-opacity: 1; fill-rule: nonzero; stroke: none; fill: rgb(255, 255, 255);" id="path6781"/>
          </g>
          <g id="g6783" transform="translate(202.0371,324.9758)">
            <path d="M 0,0 C 0.0572,0.0482 0.1156,0.0973 0.173,0.1454 0.1152,0.097 0.0576,0.0486 0,0 Z" style="fill-opacity: 1; fill-rule: nonzero; stroke: none; fill: rgb(255, 255, 255);" id="path6785"/>
          </g>
          <g id="g6787" transform="translate(198.2193,321.5131)">
            <path d="M 0,0 C 1e-4,-3e-4 2e-4,-7e-4 3e-4,-0.001 1.2022,1.1746 2.4756,2.3298 3.8168,3.4618 2.475,2.3295 1.2018,1.1752 0,0 Z" style="fill-opacity: 1; fill-rule: nonzero; stroke: none; fill: rgb(255, 255, 255);" id="path6789"/>
          </g>
          <g id="g6791" transform="translate(192.4142,314.9373)">
            <path d="m 0,0 c 0.037,0.0493 0.075,0.0998 0.1122,0.1491 -2e-4,10e-5 -10e-5,10e-5 -3e-4,2e-4 C 0.0742,0.0994 0.0375,0.05 0,0 Z" style="fill-opacity: 1; fill-rule: nonzero; stroke: none; fill: rgb(255, 255, 255);" id="path6793"/>
          </g>
          <g id="g6795" transform="translate(192.2382,314.7014)">
            <path d="M 0,0 C 0.0353,0.0475 0.0723,0.0972 0.1077,0.1447 0.072,0.0968 0.0355,0.0479 0,0 Z" style="fill-opacity: 1; fill-rule: nonzero; stroke: none; fill: rgb(255, 255, 255);" id="path6797"/>
          </g>
          <g id="g6799" transform="translate(306.3641,356.2978)">
            <path d="m 0,0 c -0.1611,0 -0.3264,0 -0.4875,0 -0.2374,0 -0.4705,0 -0.7079,0 -0.0254,0 -0.0509,0 -0.0763,0 -0.2162,0 -0.4324,-0.0042 -0.6444,-0.0042 -0.0508,0 -0.1017,0 -0.1526,0 -0.1992,0 -0.3942,-0.0043 -0.5935,-0.0043 -0.0678,0 -0.1356,0 -0.2035,-0.0042 -0.1865,0 -0.373,0 -0.5595,-0.0042 -0.0763,0 -0.1568,0 -0.2331,-0.0043 -0.1696,0 -0.3392,-0.0042 -0.5088,-0.0042 -0.1017,-0.0043 -0.2034,-0.0043 -0.3052,-0.0043 -0.1059,-0.0042 -0.2077,-0.0042 -0.3136,-0.0042 -0.1781,-0.0042 -0.3561,-0.0085 -0.5342,-0.0127 -0.0636,0 -0.123,0 -0.1823,0 -6.3841,-0.1272 -12.6581,-0.4833 -18.7667,-1.0556 0.4875,-4.9894 1.0217,-9.9662 1.5854,-14.9472 0.3773,-3.3319 0.7631,-6.6639 1.1446,-9.9959 -0.0381,-0.6231 -0.072,-1.2463 -0.106,-1.8737 -0.0254,-0.5087 -0.0508,-1.0216 -0.0762,-1.5346 -0.2374,1.8187 -0.4621,3.6372 -0.6656,5.4601 -0.373,3.3658 -0.7503,6.7275 -1.0894,10.0934 -0.1527,1.526 -0.3053,3.0564 -0.4537,4.5867 -0.2119,2.2128 -0.3518,4.4511 -0.8817,6.6173 -0.1272,0.5172 -0.2925,1.0174 -0.496,1.4922 -0.195,-0.0212 -0.39,-0.0382 -0.5892,-0.0593 -0.0212,0 -0.0382,-0.0043 -0.0636,-0.0043 -0.1145,-0.0127 -0.2289,-0.0254 -0.3434,-0.0381 -3.7219,-0.3816 -7.3845,-0.8436 -10.9793,-1.382 -0.0848,-0.0127 -0.1696,-0.0254 -0.2544,-0.0382 -0.0678,-0.0085 -0.1356,-0.0211 -0.2077,-0.0296 -0.1738,-0.0297 -0.3476,-0.0551 -0.5214,-0.0806 0,0 0,0 -0.0043,0 -1.9203,-0.2967 -3.8237,-0.6189 -5.7059,-0.958 -0.2289,-1.1149 -0.3009,-2.251 -0.4027,-3.3871 0.0467,0.4112 0.0933,0.8266 0.1399,1.2378 -0.8944,-7.8127 -0.4536,-15.7696 -0.2586,-23.612 0,-0.0254 0.0043,-0.0509 0.0043,-0.0805 -0.1654,0.6697 -0.3307,1.3395 -0.496,2.0093 -1.5049,6.1341 -3.0183,12.2723 -4.5189,18.4064 -0.3392,1.3819 -0.6783,2.7597 -1.0132,4.1374 -1.9034,-0.4027 -3.7855,-0.8309 -5.6423,-1.2802 -0.1992,-0.0509 -0.3942,-0.0975 -0.5935,-0.1442 -0.1229,-0.0339 -0.2458,-0.0635 -0.3688,-0.0932 -0.0848,-0.0212 -0.1695,-0.0424 -0.2501,-0.0636 -0.195,-0.0466 -0.3857,-0.0933 -0.5808,-0.1441 -0.0296,-0.0085 -0.0551,-0.0128 -0.0847,-0.0213 -5.3668,-1.3565 -10.5131,-2.8953 -15.4093,-4.5994 0.2162,-2.5647 0.4154,-5.1379 0.7503,-7.6898 0.4239,-3.209 0.7927,-6.4266 1.3184,-9.6187 0.5808,-3.493 1.1615,-6.9903 1.7423,-10.4834 0.496,-2.9758 1.0174,-5.9517 1.5642,-8.9233 -2.039,-1.0725 -3.9254,-2.4333 -5.6931,-4.0018 -2.5393,-2.251 -4.7648,-4.892 -6.8251,-7.6008 -0.4917,0.5384 -1.0089,1.0641 -1.5557,1.5812 -0.6571,0.6232 -1.4201,1.1404 -2.2298,1.577 -0.7843,2.1323 -1.577,4.2646 -2.3739,6.3926 -1.9331,5.1633 -3.9085,10.3096 -5.8755,15.4602 -0.8436,2.2128 -1.6914,4.4257 -2.5647,6.63 -0.4875,1.2378 -0.9792,2.4714 -1.4794,3.7008 -0.2798,0.691 -0.5511,1.3946 -0.8351,2.0941 -3.8619,-2.251 -7.4143,-4.6419 -10.6233,-7.1514 -0.004,-0.0043 -0.008,-0.0043 -0.0127,-0.0085 -0.1611,-0.1272 -0.3265,-0.2544 -0.4875,-0.3858 -0.0212,-0.0127 -0.034,-0.0254 -0.0552,-0.0424 -0.0635,-0.0466 -0.1229,-0.0975 -0.1865,-0.1483 -0.0212,-0.017 -0.0424,-0.0339 -0.0636,-0.0509 -0.0508,-0.0424 -0.1017,-0.0848 -0.1526,-0.1229 -0.0339,-0.0255 -0.0593,-0.0509 -0.0932,-0.0763 -0.0509,-0.0382 -0.0975,-0.0763 -0.1484,-0.1187 -0.0254,-0.0212 -0.0509,-0.0424 -0.0806,-0.0636 -0.072,-0.0594 -0.1441,-0.1187 -0.2119,-0.1781 -0.0297,-0.0212 -0.0594,-0.0466 -0.089,-0.072 -0.0424,-0.034 -0.0848,-0.0679 -0.1272,-0.106 -0.0466,-0.0339 -0.0933,-0.0763 -0.1399,-0.1145 -0.0254,-0.0212 -0.0466,-0.0381 -0.0721,-0.0593 -0.0508,-0.0424 -0.1059,-0.089 -0.1568,-0.1314 -0.0127,-0.0127 -0.0254,-0.0212 -0.0382,-0.034 -0.0593,-0.0466 -0.1187,-0.0975 -0.1738,-0.1441 0,0 0,0 -0.004,0 -1.3396,-1.1318 -2.6113,-2.2891 -3.8152,-3.4634 0.0975,-0.356 0.195,-0.7079 0.2967,-1.064 0.7631,-2.6876 1.5091,-5.3837 2.3103,-8.0628 0.4324,-1.4329 0.8648,-2.8699 1.3057,-4.3028 -3.0946,2.4799 -6.257,4.8666 -9.6059,7.0031 -0.0382,-0.0509 -0.0763,-0.1017 -0.1102,-0.1484 -0.0255,-0.0296 -0.0467,-0.0636 -0.0678,-0.0932 -0.0382,-0.0466 -0.0764,-0.0975 -0.1103,-0.1442 -0.0551,-0.072 -0.1102,-0.1483 -0.1611,-0.2204 -0.0296,-0.0382 -0.0508,-0.0678 -0.0763,-0.106 -0.0635,-0.0847 -0.1229,-0.1653 -0.1822,-0.2501 -0.017,-0.0212 -0.034,-0.0466 -0.0509,-0.0678 -0.0678,-0.0933 -0.1357,-0.1908 -0.2035,-0.284 0,-0.0043 0,-0.0043 -0.004,-0.0085 -3.3447,-4.7436 -5.5957,-9.7373 -6.6046,-14.9176 0,-0.0042 0,-0.0084 0,-0.0084 -0.0212,-0.1187 -0.0466,-0.2374 -0.0678,-0.3519 0,-0.0042 0,-0.0085 0,-0.0127 -0.0424,-0.2374 -0.0848,-0.4748 -0.123,-0.7122 0,-0.0042 0,-0.0084 0,-0.0127 -0.0212,-0.1145 -0.0381,-0.2289 -0.0551,-0.3434 0,-0.0085 -0.004,-0.0169 -0.004,-0.0254 -0.017,-0.1102 -0.0339,-0.2247 -0.0467,-0.3349 -0.004,-0.0127 -0.004,-0.0254 -0.004,-0.0424 -0.0169,-0.1102 -0.0339,-0.2204 -0.0466,-0.3306 0,-0.0085 0,-0.017 -0.004,-0.0255 -0.0254,-0.2331 -0.0551,-0.4663 -0.0763,-0.6952 0,-0.0085 -0.004,-0.0212 -0.004,-0.0297 -0.0127,-0.1059 -0.0212,-0.2162 -0.0297,-0.3221 -0.004,-0.0212 -0.004,-0.0382 -0.008,-0.0594 -0.008,-0.106 -0.0169,-0.2119 -0.0254,-0.3179 0,-0.017 -0.004,-0.0382 -0.004,-0.0551 -0.008,-0.106 -0.017,-0.2162 -0.0255,-0.3222 0,-0.017 0,-0.0254 0,-0.0424 -0.0169,-0.2247 -0.0296,-0.4536 -0.0424,-0.6783 0,-0.0169 0,-0.0296 0,-0.0466 -0.004,-0.106 -0.008,-0.2119 -0.0127,-0.3179 0,-0.0212 0,-0.0424 -0.004,-0.0636 0,-0.106 -0.004,-0.2077 -0.008,-0.3137 0,-0.017 0,-0.0424 0,-0.0636 -0.004,-0.106 -0.004,-0.212 -0.004,-0.3179 0,-0.017 0,-0.0297 0,-0.0424 -0.004,-0.1145 -0.004,-0.2289 -0.004,-0.3434 0,-35.1679 57.1352,-63.6804 127.6194,-63.6804 42.5312,0 80.2009,10.3797 103.3933,26.339 -0.1888,0.6904 -0.3663,1.3807 -0.4754,2.0929 -0.1229,0.7928 -0.1568,1.5982 -0.2882,2.3994 -0.008,0.0339 -0.017,0.0678 -0.0255,0.1017 -0.2247,0.6317 -0.5087,1.2379 -0.763,1.8568 -0.3815,0.9114 -0.691,1.7889 -0.9496,2.7512 0.0509,-0.1823 0.0975,-0.3688 0.1484,-0.5511 -0.1696,0.5977 -0.3942,1.1742 -0.6232,1.7465 -0.2798,0.6274 -0.6019,1.2506 -0.9368,1.8483 -0.5299,0.9114 -1.0004,1.8143 -1.3523,2.8232 -0.301,0.8606 -0.496,1.7466 -0.7122,2.6283 -0.1229,0.4706 -0.2501,0.9454 -0.4112,1.4032 -0.3942,0.9284 -0.797,1.8398 -1.1445,2.7851 0.0034,-0.0086 0.0061,-0.0171 0.0087,-0.0254 0.0041,-0.0113 0.0083,-0.0227 0.0124,-0.0339 -0.005,0.0101 -0.0086,0.0217 -0.0124,0.0339 -0.4216,1.1589 -0.9339,2.3255 -1.4713,3.4464 -0.3645,0.6952 -0.7418,1.3862 -1.0555,2.1068 -0.2586,0.602 -0.4409,1.2379 -0.6316,1.861 -0.3392,0.9666 -0.7504,1.8907 -1.1531,2.8318 -0.5044,1.1615 -0.8902,2.3273 -1.259,3.5354 0.0044,-0.0224 0.0102,-0.0437 0.0164,-0.0643 0.0058,-0.0181 0.0118,-0.0363 0.0175,-0.0544 -0.006,0.018 -0.0119,0.036 -0.0175,0.0544 -0.3415,1.0716 -0.7952,2.1506 -1.2288,3.1928 -0.1823,0.4112 -0.3603,0.8266 -0.5299,1.2421 0.0169,-0.0467 0.0382,-0.0933 0.0551,-0.1399 -0.3095,0.7418 -0.6528,1.4625 -0.9495,2.2086 0.072,-0.1823 0.1441,-0.3604 0.2162,-0.5384 -0.3053,0.7503 -0.6402,1.5007 -1.0174,2.2213 -0.4409,0.8436 -0.7461,1.7296 -1.0726,2.6198 -0.2967,0.78 -0.5935,1.5685 -0.9707,2.3146 -0.5045,0.9199 -1.0344,1.8355 -1.5727,2.7342 -0.6613,1.1022 -1.2548,2.2425 -1.9415,3.3278 -0.5469,0.8139 -1.1277,1.6066 -1.6576,2.4332 -0.4323,0.6825 -0.8733,1.3608 -1.3523,2.0094 -0.39,0.4917 -0.8054,0.958 -1.2124,1.4413 -0.5214,0.6231 -0.9919,1.2802 -1.5006,1.9076 -1.0148,1.2632 -1.9209,2.6099 -2.9383,3.8742 6e-4,-9e-4 0.0014,-0.0018 0.0021,-0.0028 0.0137,-0.0172 0.0272,-0.0347 0.0408,-0.052 -0.0136,0.0164 -0.0272,0.0344 -0.0408,0.052 -0.0015,0.0019 -0.0029,0.0037 -0.0043,0.0055 -0.0062,0.0077 -0.0122,0.0154 -0.0184,0.0231 0.0038,-0.0046 0.0077,-0.0095 0.0115,-0.0143 -0.5318,0.6739 -1.0376,1.3592 -1.5631,2.0406 -0.3899,0.4663 -0.7927,0.9241 -1.1869,1.3862 0.0127,-0.017 0.0296,-0.0339 0.0424,-0.0509 -1.3778,1.5685 -2.6325,3.2218 -3.9594,4.8284 -0.6062,0.7334 -1.259,1.4244 -1.8779,2.1493 -0.5723,0.6655 -1.1319,1.3523 -1.7169,2.0051 -0.0763,0.0848 -0.1568,0.1738 -0.2331,0.2586 0.0113,-0.0151 0.0235,-0.0293 0.0361,-0.0434 0.0057,-0.0064 0.0114,-0.0128 0.0172,-0.0192 0.0104,-0.0113 0.0209,-0.0228 0.0315,-0.0349 -0.0105,0.0117 -0.021,0.0233 -0.0315,0.0349 -0.0058,0.0064 -0.0115,0.0128 -0.0172,0.0192 -0.0898,0.0996 -0.1795,0.1972 -0.2693,0.2977 -0.0152,0.0153 -0.0272,0.0305 -0.0417,0.0457 4e-4,-5e-4 9e-4,-10e-4 0.0014,-0.0016 0.0027,-0.0029 0.0054,-0.0059 0.008,-0.009 0.008,-0.0088 0.0159,-0.0177 0.0239,-0.0266 -0.008,0.0079 -0.0159,0.0174 -0.0239,0.0266 -0.0026,0.003 -0.0053,0.006 -0.008,0.009 -0.0021,0.0023 -0.0042,0.0047 -0.0063,0.0068 0.0017,-0.0017 0.0033,-0.0035 0.0049,-0.0052 -0.9633,1.0734 -1.9025,2.1711 -2.8663,3.2439 -1.2463,1.3608 -2.5732,2.6537 -3.8704,3.9678 -0.9495,0.9072 -1.8949,1.8229 -2.8148,2.7682 -2.1662,2.2255 -4.5274,4.2518 -6.6978,6.4774 -0.4043,0.4139 -0.8057,0.832 -1.2096,1.2478 -11.6164,2.1491 -24.0319,3.4845 -36.9596,3.8561 -0.034,0 -0.0594,0 -0.0933,0 -0.1187,0.0043 -0.2331,0.0085 -0.3518,0.0127 -0.0255,0 -0.0594,0 -0.0891,0 -0.3433,0.0085 -0.691,0.017 -1.0386,0.0255 -0.0636,0.0042 -0.1314,0.0042 -0.195,0.0042 -0.0932,0.0043 -0.1907,0.0043 -0.284,0.0085 -0.0636,0 -0.1229,0 -0.1865,0.0042 -0.195,0.0043 -0.3942,0.0043 -0.5935,0.0085 -0.0297,0 -0.0593,0.0043 -0.089,0.0043 -0.0975,0 -0.1823,0 -0.2798,0.0042 -0.0763,0 -0.1526,0 -0.2331,0.0042 -0.0806,0 -0.1611,0 -0.2417,0.0043 -0.0975,0 -0.195,0 -0.2925,0 -0.0636,0.0042 -0.1187,0.0042 -0.1781,0.0042 -0.1568,0 -0.3094,0.0043 -0.462,0.0043 -0.0636,0 -0.1314,0.0042 -0.1907,0.0042 -0.1018,0 -0.2035,0 -0.301,0 -0.0763,0.0042 -0.1484,0.0042 -0.2204,0.0042 -0.123,0 -0.246,0 -0.3689,0.0043 -0.0339,0 -0.0678,0 -0.1017,0 -0.1611,0 -0.318,0 -0.4748,0 -0.0636,0 -0.1229,0 -0.1823,0 C 0.3985,0 0.2883,0 0.178,0 0.1187,0 0.0551,0 0,0 Z m -67.4998,-73.4982 c 0.3094,0.4578 0.6231,0.9156 0.9453,1.365 0.8139,1.0852 1.649,2.145 2.5265,3.1751 0.3179,-1.6067 0.6401,-3.2133 0.9581,-4.8199 0.3518,-1.7635 0.7079,-3.527 1.0682,-5.2905 -1.7465,1.9246 -3.5948,3.7644 -5.4981,5.5703 z" style="fill-opacity: 1; fill-rule: nonzero; stroke: none; fill: rgb(255, 255, 255);" id="path6801"/>
          </g>
          <g id="g6803" transform="translate(368.476,333.8219)">
            <path d="M 0,0 C -0.0721,0.0763 -0.1399,0.1568 -0.212,0.2332 -0.1441,0.1568 -0.0721,0.0763 0,0 Z" style="fill-opacity: 1; fill-rule: nonzero; stroke: none; fill: rgb(255, 255, 255);" id="path6805"/>
          </g>
          <g id="g6807" transform="translate(387.408,309.6927)">
            <path d="M 0,0 C -0.0466,0.0721 -0.0975,0.1484 -0.1484,0.2247 -0.0975,0.1484 -0.0508,0.0721 0,0 Z" style="fill-opacity: 1; fill-rule: nonzero; stroke: none; fill: rgb(255, 255, 255);" id="path6809"/>
          </g>
          <g id="g6811" transform="translate(80.8444,345.6874)">
            <path d="m 0,0 c -0.5769,-0.5412 -1.1819,-1.0383 -1.7746,-1.5559 -0.5892,-0.5723 -1.1318,-1.1912 -1.7083,-1.7762 -0.6062,-0.6146 -1.2548,-1.1869 -1.8949,-1.7592 -0.7588,-0.6783 -1.4795,-1.3947 -2.2213,-2.0899 -0.602,-0.5596 -1.2252,-1.0937 -1.8102,-1.6702 -1.0131,-1.0471 -2.0093,-2.1027 -3.0521,-3.1201 0.0805,0.0764 0.161,0.1569 0.2416,0.2332 -1.1361,-1.1234 -2.2256,-2.3358 -3.2302,-3.5821 -0.3646,-0.4875 -0.6953,-1.0046 -1.1022,-1.4625 -0.1484,-0.1661 -0.3024,-0.3291 -0.4604,-0.4889 -0.5095,-0.7257 -1.0568,-1.4235 -1.5447,-2.1733 -0.4621,-0.7376 -0.9369,-1.4582 -1.4625,-2.1534 -0.4621,-0.619 -0.9496,-1.2294 -1.3862,-1.8695 -0.6359,-1.0132 -1.2421,-2.0475 -1.8865,-3.0564 -0.7376,-1.1573 -1.4752,-2.3146 -2.145,-3.5143 -0.4196,-0.7969 -0.8435,-1.5897 -1.2802,-2.3781 0,0 0,0.0042 0,0.0084 -0.6274,-1.153 -1.2081,-2.3315 -1.8482,-3.4718 -0.6825,-1.2039 -1.3905,-2.3909 -2.0391,-3.616 -0.9962,-1.8864 -2.056,-3.7517 -3.0733,-5.6338 -1.1361,-2.3019 -2.1747,-4.6716 -3.1964,-7.0243 0.0509,0.1187 0.1018,0.2374 0.1484,0.3603 -0.0566,-0.1292 -0.1094,-0.2587 -0.1656,-0.3916 -0.0044,-0.0091 -0.0084,-0.0181 -0.0124,-0.028 -0.0085,-0.0255 -0.0212,-0.0551 -0.0297,-0.0806 -0.0043,-0.0085 -0.0127,-0.0212 -0.017,-0.0297 -0.5892,-1.4031 -1.1573,-2.8147 -1.7931,-4.2052 -0.0721,-0.1526 -0.1399,-0.3052 -0.2077,-0.4578 10.1061,-20.2886 41.569,-35.0789 78.8226,-35.0789 26.0325,0 49.2376,7.2235 64.3035,18.4954 0.6698,-0.9878 1.3862,-1.9585 2.1493,-2.9208 1.0089,2.3273 1.9881,4.6588 3.1115,6.9395 1.1954,2.4247 2.5308,4.7733 3.7262,7.1938 0.6486,1.3141 1.2845,2.6367 1.8864,3.9721 0.7673,1.7041 1.2039,3.493 1.0344,5.3752 -0.1908,2.0729 -1.0429,3.7559 -2.3104,5.2396 0.0848,0.1823 0.1739,0.3645 0.2586,0.5468 1.2972,2.7851 2.3019,5.6974 3.4041,8.5631 1.4286,3.7008 0.5553,8.8471 -2.7555,11.3015 -1.0767,0.797 -2.1026,1.3947 -3.2641,1.8102 -1.5643,2.518 -4.5105,4.4765 -7.5203,4.4383 -1.0385,-0.0127 -2.0475,0.0043 -3.0691,-0.2331 -1.0386,-0.2374 -1.9585,-0.6783 -2.8911,-1.1658 -0.3603,-0.1865 -0.7037,-0.3984 -1.0301,-0.6316 -0.3518,0.5468 -0.7418,1.064 -1.1658,1.5218 -1.5769,1.6999 -3.5312,2.4757 -5.744,2.9717 -2.1026,0.4748 -4.2943,-0.1272 -6.2909,-0.7376 -1.9246,-0.5892 -3.7304,-1.9585 -5.2353,-3.2514 -1.3184,-1.1276 -2.5478,-2.3104 -3.7432,-3.544 -0.1441,0.0721 -0.2883,0.1442 -0.4324,0.2162 -3.9297,1.8525 -8.9827,0.7122 -12.3571,-1.8355 -0.4705,-0.3561 -0.9241,-0.7207 -1.365,-1.0979 -0.2586,0.5807 -0.5765,1.1445 -0.9623,1.6914 -1.2505,1.755 -2.9971,3.1496 -5.0615,3.811 -2.2171,0.7121 -4.6461,0.6401 -6.8632,-0.0255 -0.7546,0.7631 -1.6448,1.3947 -2.6706,1.8568 -1.8314,0.8224 -3.7305,1.2505 -5.7441,1.0682 -2.5435,-0.2289 -4.8157,-1.4583 -6.8081,-2.9801 -1.6108,-1.2293 -3.0903,-2.6325 -4.4892,-4.112 -0.0127,0.0043 -0.0297,0.0128 -0.0424,0.0212 -3.8788,1.8144 -8.2027,0.7758 -11.5983,-1.5133 -0.5723,0.3942 -1.17,0.7333 -1.7508,1.0089 -0.8775,0.4112 -1.8058,0.6994 -2.7554,0.8775 0.212,3.6838 -0.2755,7.8848 -2.9547,10.5766 -1.0852,1.0853 -2.2849,2.0984 -3.6668,2.7724 0.5892,0.6444 1.1742,1.293 1.7635,1.9416 1.4794,1.6278 2.8529,3.3786 4.2221,5.1039 0.9538,1.1954 1.9034,2.3951 2.8615,3.5948 0.8647,1.0852 1.6744,2.2128 2.4968,3.3319 0.903,1.2337 1.4032,2.764 1.6278,4.2943 C 11.7706,3.3773 5.6782,1.8835 0,0 Z" style="fill-opacity: 1; fill-rule: nonzero; stroke: none; fill: rgb(255, 255, 255);" id="path6813"/>
          </g>
          <g id="g6815" transform="translate(55.443,315.7202)">
            <path d="M 0,0 C 0.0485,0.0913 0.095,0.1826 0.141,0.2726 0.0938,0.1819 0.046,0.0919 0,0 Z" style="fill-opacity: 1; fill-rule: nonzero; stroke: none; fill: rgb(255, 255, 255);" id="path6817"/>
          </g>
          <g id="g6819" transform="translate(220.3897,404.6908)">
            <path d="m 0,0 c -0.6232,-0.0255 -1.2421,-0.0594 -1.861,-0.1441 -0.3942,-0.0764 -0.7885,-0.1611 -1.1827,-0.1993 -0.6316,-0.0509 -1.2082,-0.0085 -1.8356,0.0551 -0.2543,0.0255 -0.5087,0.0551 -0.7672,0.0891 -0.2629,-0.0806 -0.5299,-0.1569 -0.8055,-0.2205 -0.5426,-0.1271 -1.0767,-0.1356 -1.6193,-0.1271 -0.0085,-0.0043 -0.0212,-0.0043 -0.0339,-0.0085 -0.7037,-0.1823 -1.399,-0.3519 -2.1451,-0.3561 -0.2713,0 -0.5383,0.0042 -0.8054,0.0127 -0.2374,-0.0339 -0.4748,-0.0763 -0.7079,-0.1272 0.1271,0.0297 0.2543,0.0551 0.3773,0.0848 -1.0556,-0.2247 -2.0603,-0.301 -3.137,-0.3773 0.178,0.0127 0.3603,0.0255 0.5384,0.0382 -0.7716,-0.0636 -1.4965,-0.1569 -2.251,-0.1654 -0.1399,-0.0254 -0.2798,-0.0466 -0.4155,-0.072 0.0763,0.0127 0.1569,0.0254 0.2332,0.0381 -0.6825,-0.1144 -1.3396,-0.301 -2.0263,-0.4069 0.1272,0.0169 0.2501,0.0339 0.373,0.0508 -0.6867,-0.0974 -1.3692,-0.2119 -2.056,-0.3009 0.1781,0.0211 0.3561,0.0466 0.5342,0.072 -0.869,-0.1272 -1.7296,-0.2289 -2.5986,-0.3179 -0.6232,-0.0933 -1.2378,-0.2501 -1.8695,-0.3179 -0.8309,-0.0848 -1.6575,-0.2544 -2.4799,-0.407 -0.7842,-0.1569 -1.5642,-0.2925 -2.3485,-0.4282 -1.1191,-0.2246 -2.2298,-0.5171 -3.3489,-0.7715 -1.0555,-0.2331 -2.1323,-0.3306 -3.1921,-0.5426 -1.0174,-0.2459 -2.0305,-0.5002 -3.0352,-0.8054 -1.0004,-0.3222 -2.0221,-0.5935 -3.0352,-0.8775 -0.195,-0.0551 -0.39,-0.1145 -0.585,-0.1696 -1.2082,-0.3519 -2.3697,-0.8606 -3.5863,-1.1954 -1.1361,-0.3095 -2.2637,-0.6783 -3.3744,-1.064 -0.6825,-0.2502 -1.3692,-0.4918 -2.0602,-0.7165 0.0297,0.0085 0.0636,0.017 0.0933,0.0255 -0.1315,-0.0424 -0.2671,-0.0848 -0.3985,-0.1272 0.0169,0.0085 0.0381,0.0127 0.0551,0.0212 -0.017,-0.0043 -0.0339,-0.0085 -0.0466,-0.017 -0.0085,-0.0042 -0.017,-0.0042 -0.0255,-0.0084 -0.0085,0 -0.0127,-0.0043 -0.0169,-0.0043 -0.0085,-0.0042 -0.017,-0.0042 -0.0255,-0.0085 -0.0169,-0.0084 -0.0381,-0.0169 -0.0593,-0.0212 -0.0043,0 -0.0085,-0.0042 -0.0127,-0.0042 0,0 0.0042,0 0.0042,0 -0.0085,0 -0.0212,-0.0043 -0.0297,-0.0085 -0.0085,-0.0042 -0.0169,-0.0042 -0.0254,-0.0085 -0.0042,0 -0.0042,0 -0.0085,0 0,0 -0.0042,-0.0042 -0.0042,-0.0042 -0.0212,-0.0042 -0.0467,-0.0127 -0.0679,-0.017 -0.6358,-0.2204 -1.2675,-0.4535 -1.9288,-0.6231 -0.3772,-0.0933 -0.7545,-0.1908 -1.1318,-0.2925 -0.2883,-0.0848 -0.5808,-0.1696 -0.869,-0.2501 -0.5681,-0.1611 -1.1107,-0.3943 -1.6618,-0.6147 -0.496,-0.1992 -1.0089,-0.3306 -1.5261,-0.4663 -0.0169,-0.0042 -0.0339,-0.0085 -0.0508,-0.0127 -0.2205,-0.1018 -0.4451,-0.1908 -0.6825,-0.2713 -0.0085,0 -0.0128,-0.0043 -0.0212,-0.0043 -0.0212,-0.0084 -0.0467,-0.0211 -0.0679,-0.0296 -0.2628,-0.0975 -0.5299,-0.1823 -0.8012,-0.2544 -0.2797,-0.089 -0.5638,-0.178 -0.8436,-0.2628 -0.2628,-0.0848 -0.5214,-0.1738 -0.78,-0.2756 -0.2331,-0.1144 -0.4578,-0.2416 -0.6782,-0.373 0.1526,0.0933 0.3094,0.1865 0.462,0.2798 -0.6909,-0.4197 -1.3353,-0.7673 -2.0856,-1.0725 0.1653,0.0678 0.3349,0.1399 0.5002,0.2077 -0.8393,-0.3519 -1.6787,-0.7291 -2.4799,-1.1615 -0.0127,-0.0085 -0.0254,-0.0127 -0.0381,-0.0212 0.0127,0.0085 0.0254,0.0127 0.0381,0.0212 0.0085,0.0042 0.0212,0.0127 0.0297,0.0169 -0.7885,-0.4239 -1.5855,-0.7715 -2.429,-1.0852 -0.8224,-0.3094 -1.6533,-0.6359 -2.446,-1.0089 -1.0259,-0.5257 -2.0518,-1.0683 -3.1285,-1.471 -1.2463,-0.4663 -2.4884,-0.9453 -3.7262,-1.4286 0.1653,0.0678 0.3306,0.1357 0.5002,0.2035 -0.7334,-0.2967 -1.471,-0.5765 -2.2086,-0.8521 -1.5261,-0.5892 -3.0479,-1.1742 -4.6037,-1.6744 0.0254,0.0085 0.0551,0.0169 0.0848,0.0254 -1.6321,-0.5214 -3.1963,-1.2675 -4.786,-1.9034 -1.2336,-0.496 -2.4757,-0.9919 -3.6796,-1.5727 -0.4366,-0.2289 -0.8648,-0.4748 -1.2844,-0.7334 -0.9072,-0.6061 -1.789,-1.2378 -2.7258,-1.7974 -0.9835,-0.5892 -1.9627,-1.1784 -2.9716,-1.7168 -1.5389,-0.8267 -3.0565,-1.7253 -4.5402,-2.6452 -0.4959,-0.318 -0.9877,-0.6401 -1.4879,-0.9539 -0.8521,-0.5341 -1.7338,-1.0004 -2.6113,-1.4964 -1.0047,-0.6189 -1.9585,-1.3226 -3.0056,-1.8694 -0.4154,-0.2162 -0.8605,-0.4112 -1.2632,-0.6444 0.072,0.0424 0.1399,0.0848 0.2119,0.1272 -0.301,-0.1653 -0.6062,-0.3095 -0.9199,-0.4451 -0.0593,-0.0254 -0.1187,-0.0509 -0.1738,-0.0805 -0.0254,-0.017 -0.0551,-0.034 -0.0805,-0.0509 0.0254,0.0169 0.0551,0.0339 0.0805,0.0509 0.0255,0.0127 0.0467,0.0254 0.0721,0.0381 0,0 -0.004,0 -0.004,0 -0.004,0 -0.004,0 -0.008,-0.0042 0,0.0042 0,0.0042 0,0.0042 -0.004,0 -0.008,-0.0042 -0.0127,-0.0085 -0.3985,-0.2204 -0.8055,-0.4281 -1.2294,-0.5977 -0.5172,-0.3137 -1.0343,-0.6316 -1.5473,-0.958 -2.1577,-1.3651 -4.3197,-2.6834 -6.4392,-4.0993 -1.861,-1.259 -3.5948,-2.6749 -5.4262,-3.9594 -0.3545,-0.2322 -0.7113,-0.4619 -1.0692,-0.69 -0.0491,-0.0381 -0.0973,-0.0773 -0.1431,-0.1196 0.0329,0.0299 0.0638,0.0599 0.094,0.0884 -0.0118,-0.0076 -0.0237,-0.0152 -0.0356,-0.0227 -0.2092,-0.1916 -0.4221,-0.372 -0.635,-0.5448 -0.072,-0.072 -0.1441,-0.1441 -0.2162,-0.2161 -0.5002,-0.4876 -1.0089,-0.9623 -1.5091,-1.4456 -1.0301,-1.0047 -2.1535,-1.9118 -3.1794,-2.925 -0.5044,-0.5426 -0.975,-1.1106 -1.4624,-1.6702 -0.5087,-0.5893 -1.0768,-1.1234 -1.5982,-1.6999 -0.5511,-0.6105 -1.0852,-1.2421 -1.6829,-1.8059 -0.5851,-0.5469 -1.1997,-1.0556 -1.8017,-1.5812 -0.5892,-0.5723 -1.1318,-1.1912 -1.7084,-1.7762 -0.6062,-0.6147 -1.2547,-1.187 -1.8949,-1.7593 -0.7588,-0.6782 -1.4794,-1.3946 -2.2213,-2.0898 -0.6019,-0.5554 -1.2251,-1.0937 -1.8101,-1.6703 -0.9343,-0.9656 -1.8543,-1.9383 -2.8097,-2.8818 0.0548,0.0507 0.1054,0.1055 0.1603,0.1561 -0.0507,-0.0507 -0.1056,-0.1056 -0.1605,-0.1563 -0.001,-0.0012 -0.002,-0.0024 -0.004,-0.0036 -1.1349,-1.1268 -2.2234,-2.3381 -3.2272,-3.5833 -0.3645,-0.4875 -0.6952,-1.0004 -1.1021,-1.4625 -0.1492,-0.167 -0.3041,-0.3309 -0.4631,-0.4915 -0.5124,-0.7248 -1.0589,-1.4218 -1.5463,-2.1707 -0.4621,-0.7376 -0.9368,-1.4582 -1.4583,-2.1535 -0.4663,-0.6231 -0.9495,-1.2293 -1.3862,-1.8694 -0.6358,-1.0174 -1.2463,-2.0475 -1.8864,-3.0565 -0.7418,-1.1572 -1.4794,-2.3145 -2.1492,-3.5142 -0.4197,-0.8012 -0.8436,-1.5939 -1.2802,-2.3782 0.0339,0.0594 0.0678,0.1187 0.1017,0.1781 -0.6656,-1.2039 -1.2718,-2.4418 -1.9458,-3.6414 -0.6825,-1.204 -1.3904,-2.3909 -2.039,-3.616 -1.0004,-1.8907 -2.0602,-3.7516 -3.0734,-5.6339 -1.1403,-2.306 -2.1789,-4.6715 -3.2005,-7.0285 0.0508,0.123 0.1017,0.2417 0.1526,0.3646 -0.0636,-0.1441 -0.1272,-0.2925 -0.1865,-0.4408 -0.009,-0.0198 -0.017,-0.0396 -0.0255,-0.0594 0,-0.004 -0.004,-0.008 -0.004,-0.0127 0,-0.003 -0.002,-0.006 -0.005,-0.0111 0.001,0.004 0.002,0.008 0.005,0.0111 0,0.004 0,0.009 0,0.009 -0.1187,-0.2883 -0.2417,-0.5766 -0.3603,-0.8691 0.1992,-0.2458 0.4112,-0.4832 0.6358,-0.7121 3.4337,-3.4295 9.7501,-3.7644 13.1287,0 0.9114,1.0174 1.8228,2.0136 2.5943,3.1412 0.7376,1.0852 1.3269,2.2171 1.8949,3.3786 0.004,0.008 0.008,0.0169 0.0127,0.0212 1.1276,1.5557 2.357,3.0182 3.3956,4.6418 1.2505,1.9543 2.0178,4.1247 2.997,6.2104 0.1145,0.2119 0.2374,0.4196 0.3604,0.6231 0.9877,1.3269 2.1196,2.5477 3.0988,3.8831 1.4371,1.9542 2.8063,3.9509 4.3621,5.8076 0.195,0.212 0.3984,0.4154 0.6062,0.6189 0.5638,0.4494 1.1572,0.8648 1.7423,1.3014 1.3438,1.0217 2.4798,2.2807 3.5227,3.5991 1.2505,1.5812 2.4544,3.2175 3.7474,4.7605 0.1611,0.1696 0.3264,0.3392 0.496,0.5045 1.2208,0.9835 2.5392,1.9161 3.8194,2.7936 0.9878,0.6655 1.967,1.3395 2.9505,2.0093 2.535,1.683 5.1166,3.3023 7.6983,4.9259 1.2802,0.8054 2.5562,1.6151 3.7728,2.5181 0.9835,0.7249 1.9076,1.5218 2.908,2.2255 0.6359,0.4324 1.2675,0.869 1.8992,1.3014 1.2675,0.8182 2.6028,1.5304 3.8703,2.357 1.3269,0.8648 2.6707,1.7253 4.0399,2.5308 1.6151,0.9495 3.1836,1.9542 4.6927,3.0691 1.3566,1.0047 2.5775,2.1705 3.8195,3.3108 0.691,0.568 1.4159,1.1021 2.145,1.6193 1.0386,0.6571 2.1323,1.2421 3.226,1.8017 1.577,0.78 3.1666,1.5557 4.8114,2.1746 2.4418,0.8224 4.8708,1.6745 7.2405,2.6919 2.234,0.9665 4.4808,1.967 6.7656,2.8106 1.2209,0.3984 2.446,0.7842 3.6457,1.242 1.2718,0.4918 2.4884,1.1191 3.7008,1.7423 1.8016,0.8775 3.6669,1.5642 5.5363,2.2849 1.6448,0.6401 3.2514,1.3735 4.9005,1.9966 1.5345,0.496 3.0818,0.9326 4.6121,1.4498 -0.2373,-0.0805 -0.4747,-0.1653 -0.7121,-0.2501 1.471,0.5045 2.997,0.8902 4.4172,1.5346 0.8351,0.3815 1.6702,0.7842 2.4375,1.2887 0.4196,0.2755 0.8054,0.5723 1.1784,0.8817 0.0424,0.017 0.0848,0.0297 0.1272,0.0467 1.6745,0.5722 3.4083,1.0597 5.1421,1.4455 2.8953,0.5638 5.7779,1.17 8.6436,1.8864 2.5986,0.6486 5.0488,1.7678 7.5414,2.7173 0.1654,0.0466 0.3349,0.0933 0.5003,0.1399 1.0725,0.1653 2.1619,0.284 3.2429,0.3943 0.2544,-0.0382 0.5087,-0.0849 0.7631,-0.1357 -0.2205,0.0466 -0.4409,0.0932 -0.6614,0.1357 0.0043,0 0.0085,0 0.0128,0 1.4582,-0.2841 2.8402,-0.4748 4.3578,-0.5172 0.9241,-0.0255 1.8525,0.0381 2.7724,0.089 2.8063,0.1568 5.566,0.6655 8.3638,0.9029 0.8479,0.0509 1.6999,0.0933 2.552,0.0466 -0.0975,0.0085 -0.195,0.0128 -0.2925,0.0213 4.4935,-0.2756 8.9997,-0.2374 13.4974,-0.4833 1.9755,-0.1908 3.9085,-0.6698 5.884,-0.8436 1.9076,-0.1653 3.7474,-0.1653 5.655,-0.017 0.8266,0.0679 1.6448,0.1738 2.4671,0.2629 0.4325,-0.2077 0.8606,-0.4197 1.3015,-0.6062 0.6486,-0.2671 1.3098,-0.4875 1.9542,-0.7631 1.4201,-0.78 2.7809,-1.6999 4.1713,-2.535 0.7673,-0.4536 1.5007,-0.9496 2.2976,-1.348 1.0853,-0.5469 2.1959,-1.0089 3.2854,-1.5346 1.4159,-0.691 2.8911,-1.2378 4.3748,-1.7677 1.1191,-0.3985 2.251,-0.797 3.3998,-1.1064 1.0597,-0.284 2.1492,-0.4494 3.2302,-0.6402 0.8012,-0.2077 1.577,-0.4917 2.3824,-0.7079 1.3523,-0.3603 2.7385,-0.5214 4.1162,-0.7461 0.2501,-0.0636 0.496,-0.1314 0.7418,-0.2119 0.691,-0.2459 1.3862,-0.4833 2.0984,-0.6613 0.5045,-0.1272 1.0089,-0.2247 1.5091,-0.3561 1.1997,-0.6486 2.3697,-1.3438 3.5779,-1.9797 1.543,-0.8139 3.1285,-1.5303 4.6927,-2.2976 1.6957,-0.8775 3.3829,-1.7635 5.0955,-2.6113 0.3518,-0.1908 0.691,-0.39 1.0259,-0.6062 1.4709,-1.009 2.9419,-2.0009 4.485,-2.8996 1.1996,-0.7037 2.3103,-1.543 3.5354,-2.2086 1.4879,-0.8054 3.0649,-1.4922 4.5952,-2.2171 1.5982,-0.7545 3.2981,-1.2632 4.909,-1.9839 0.5044,-0.2755 1.0004,-0.5723 1.4879,-0.8775 1.6236,-1.153 3.1794,-2.4205 4.7648,-3.6202 1.632,-1.2336 3.3489,-2.3612 4.9301,-3.6711 0.9878,-0.8945 1.9543,-1.8186 2.8954,-2.7639 1.064,-1.0683 2.0348,-2.2256 3.1666,-3.226 1.6151,-1.4328 3.3235,-2.6919 5.2269,-3.7135 0.9707,-0.5214 1.9373,-1.0301 2.8698,-1.6109 1.0344,-0.7673 2.0052,-1.6193 3.0099,-2.429 0.9622,-0.7715 1.9457,-1.5092 2.8911,-2.3061 2.1662,-1.8356 4.485,-3.4888 6.6385,-5.3371 0.8096,-0.7206 1.6193,-1.4413 2.4756,-2.1026 0.8054,-0.6189 1.6787,-1.1573 2.5308,-1.7126 0.3094,-0.212 0.6104,-0.4324 0.9071,-0.6613 0.0679,-0.0721 0.1357,-0.1399 0.2035,-0.212 0.9835,-1.1361 1.9585,-2.2764 2.9547,-3.404 1.4837,-1.7211 3.014,-3.4634 4.3282,-5.3244 0.4536,-0.6825 0.9114,-1.3735 1.3989,-2.0347 0.4451,-0.6062 0.9623,-1.1531 1.4752,-1.7 0.0593,-0.0763 0.1187,-0.1568 0.1781,-0.2331 0,0 0.004,-0.0042 0.004,-0.0042 0.9495,-4.0739 4.6673,-7.1854 8.9954,-7.1854 3.561,0 6.7021,2.1026 8.2367,5.1166 -0.4069,0.7165 -0.8097,1.4371 -1.2505,2.1366 -0.5469,0.8139 -1.1276,1.6066 -1.6575,2.429 -0.4367,0.6825 -0.8733,1.3608 -1.3523,2.0136 -0.3943,0.4917 -0.8055,0.958 -1.2124,1.4371 -0.5215,0.6231 -0.992,1.2802 -1.5006,1.9076 -1.0217,1.2717 -1.9332,2.6283 -2.959,3.9 0.0212,-0.0254 0.0424,-0.0509 0.0636,-0.0763 -0.5511,0.691 -1.0725,1.4031 -1.6151,2.1026 -0.39,0.4706 -0.7928,0.9284 -1.187,1.3904 0.0128,-0.0169 0.0297,-0.0381 0.0424,-0.0551 -1.3777,1.5685 -2.6325,3.2218 -3.9593,4.8284 -0.6062,0.7334 -1.2591,1.4244 -1.878,2.1493 -0.5723,0.6655 -1.1319,1.3523 -1.7168,2.0051 -0.0594,0.072 -0.1187,0.1399 -0.1823,0.2077 0.0127,-0.0127 0.0212,-0.0297 0.0339,-0.0466 -0.0212,0.0212 -0.0381,0.0423 -0.0551,0.0636 -0.0128,0.0127 -0.0255,0.0254 -0.0339,0.0339 0.008,-0.0085 0.0169,-0.017 0.0296,-0.0297 -0.089,0.0975 -0.1737,0.195 -0.2628,0.2883 -0.0127,0.0169 -0.0297,0.0296 -0.0424,0.0466 0.0127,-0.0127 0.0254,-0.0255 0.0382,-0.0382 -0.975,1.081 -1.9246,2.1917 -2.8996,3.2811 -1.2463,1.3608 -2.5732,2.6537 -3.8704,3.9636 -0.9495,0.9114 -1.8949,1.8271 -2.8147,2.7682 -2.1662,2.2255 -4.5274,4.2519 -6.6979,6.4774 -1.0724,1.0979 -2.1238,2.2255 -3.2599,3.2599 -0.8478,0.7715 -1.5007,1.6872 -2.2128,2.5689 -0.5002,0.5681 -1.0513,1.0937 -1.543,1.666 -0.1484,0.1738 -0.2925,0.3476 -0.4409,0.5299 -1.1191,1.1446 -2.2892,2.2425 -3.4888,3.298 -2.2976,2.0263 -4.8284,3.7941 -7.3125,5.5872 -1.2294,0.8903 -2.374,1.8864 -3.6033,2.7682 -1.7042,1.2166 -3.4507,2.2468 -5.3371,3.1497 -1.5261,0.7333 -3.1539,1.2251 -4.7097,1.8949 -1.0047,0.4324 -1.9924,0.9241 -2.9758,1.3989 -0.619,0.3349 -1.2125,0.7037 -1.7975,1.0937 0.2247,-0.1526 0.4494,-0.301 0.6698,-0.4536 -1.3819,0.9199 -2.8063,1.755 -4.201,2.6537 -1.0216,0.7079 -2.0263,1.4413 -3.0903,2.0814 -1.0513,0.6401 -2.1959,1.1319 -3.3065,1.6702 -2.073,1.0471 -4.1502,2.0942 -6.2274,3.1328 -1.6744,0.869 -3.2938,1.8355 -4.9597,2.7088 -1.3142,0.6867 -2.6622,1.259 -4.1078,1.6193 -0.8097,0.2035 -1.6108,0.3604 -2.4036,0.6232 0.1102,-0.0382 0.2162,-0.0721 0.3264,-0.1102 -1.2717,0.4239 -2.5011,0.7885 -3.8449,1.0301 -0.7122,0.1314 -1.4328,0.2246 -2.1492,0.3349 -0.7207,0.195 -1.4159,0.4493 -2.1365,0.6443 -0.3688,0.1018 -0.7419,0.1865 -1.1149,0.2671 -0.4239,0.0169 -0.8479,0.0212 -1.2675,0.0593 -1.0174,0.0975 -1.9755,0.3095 -2.9378,0.602 0.0128,-0.0042 0.0212,-0.0085 0.0339,-0.0127 -0.746,0.2331 -1.5091,0.4239 -2.2679,0.6231 -0.6486,0.1696 -1.2717,0.3816 -1.9203,0.5257 -0.7376,0.1484 -1.4795,0.2967 -2.2128,0.462 0.0975,-0.0211 0.1992,-0.0466 0.2967,-0.072 -1.0089,0.2374 -2.0178,0.4621 -3.0183,0.7164 -0.674,0.1526 -1.348,0.284 -2.0178,0.4578 0.178,-0.0466 0.3603,-0.0932 0.5426,-0.1398 -0.8054,0.2034 -1.6278,0.3433 -2.4333,0.5468 -0.8139,0.2077 -1.6193,0.4197 -2.4502,0.5426 0.1865,-0.0254 0.3773,-0.0551 0.568,-0.0805 -1.6193,0.2246 -3.2005,0.5977 -4.8071,0.8902 0.1907,-0.0339 0.3772,-0.0678 0.568,-0.1018 -1.1997,0.212 -2.3273,0.6105 -3.5015,0.886 -0.4578,0.0933 -0.9157,0.195 -1.3693,0.301 -1.17,0.2459 -2.3527,0.3942 -3.5185,0.6316 -1.1276,0.2289 -2.2594,0.4197 -3.3955,0.6062 0.1865,-0.0296 0.3773,-0.0593 0.5638,-0.089 -1.2378,0.195 -2.4757,0.4706 -3.722,0.5977 -1.0937,0.1145 -2.1577,0.3603 -3.2429,0.5214 -2.0051,0.2926 -3.9848,0.708 -5.9857,1.0217 -0.2755,0.0339 -0.5511,0.0678 -0.8309,0.0848 -0.8139,0.0169 -1.6193,0.0339 -2.429,0.0763 -0.0297,0 -0.0551,0 -0.0848,0 -0.0339,0 -0.072,0.0042 -0.1059,0.0042 0.0084,0 0.0169,0 0.0254,0 -0.0212,0 -0.0466,0 -0.0678,0.0042 -0.0043,0 -0.0128,0 -0.017,0 0.0042,0 0.0085,0 0.0127,0 C 5.3286,-0.4409 3.794,-0.2416 2.251,-0.0763 1.6278,-0.0255 1.0004,0.0042 0.373,0.0042 0.2501,0.0042 0.1229,0 0,0 Z" style="fill-opacity: 1; fill-rule: nonzero; stroke: none; fill: rgb(255, 255, 255);" id="path6821"/>
          </g>
          <g id="g6823" transform="translate(55.442,315.7212)">
            <path d="M 0,0 C 0.0721,0.1314 0.1441,0.2671 0.212,0.4027 0.1399,0.2671 0.0678,0.1314 0,0 Z" style="fill-opacity: 1; fill-rule: nonzero; stroke: none; fill: rgb(255, 255, 255);" id="path6825"/>
          </g>
          <g id="g6827" transform="translate(387.4087,309.6906)">
            <path d="M 0,0 C -0.0508,0.0763 -0.0975,0.1526 -0.1483,0.2247 -0.0975,0.1484 -0.0508,0.0763 0,0 Z" style="fill-opacity: 1; fill-rule: nonzero; stroke: none; fill: rgb(255, 255, 255);" id="path6829"/>
          </g>
          <g id="g6831" transform="translate(169.1276,394.9674)">
            <path d="M 0,0 C -0.001,-0.001 -0.0018,-0.0018 -0.0024,-0.0023 0.0416,0.0109 0.0857,0.0252 0.1303,0.0396 0.1331,0.0409 0.136,0.0422 0.1389,0.0434 0.0926,0.029 0.0463,0.0132 0,0 Z" style="fill-opacity: 1; fill-rule: nonzero; stroke: none; fill: rgb(255, 255, 255);" id="path6833"/>
          </g>
          <g id="g6835" transform="translate(106.9706,366.3904)">
            <path d="M 0,0 C 5e-4,1e-4 0.001,2e-4 0.0014,2e-4 0.0075,0.0033 0.0136,0.0063 0.0196,0.0094 0.1214,0.0687 0.2231,0.1281 0.3249,0.1874 0.2166,0.1249 0.1083,0.0624 0,0 Z" style="fill-opacity: 1; fill-rule: nonzero; stroke: none; fill: rgb(255, 255, 255);" id="path6837"/>
          </g>
          <g id="g6839" transform="translate(203.7868,403.2416)">
            <path d="m 0,0 c 0.0594,0.0042 0.1187,0.0042 0.178,0.0085 -0.1675,0 -0.3351,0.0069 -0.5044,0.0188 C -0.2169,0.0179 -0.1084,0.0081 0,0 Z" style="fill-opacity: 1; fill-rule: nonzero; stroke: none; fill: rgb(255, 255, 255);" id="path6841"/>
          </g>
          <g id="g6843" transform="translate(169.0767,394.9498)">
            <path d="M 0,0 C 0.0083,0.0025 0.0168,0.0052 0.0252,0.0078 0.0336,0.0105 0.0421,0.0131 0.0505,0.0158 0.0924,0.0294 0.1344,0.043 0.1763,0.0568 0.1175,0.0392 0.0588,0.0196 0,0 Z" style="fill-opacity: 1; fill-rule: nonzero; stroke: none; fill: rgb(255, 255, 255);" id="path6845"/>
          </g>
          <g id="g6847" transform="translate(97.0823,360.2842)">
            <path d="M 0,0 C 0.216,0.1467 0.4334,0.2927 0.6509,0.4402 0.4333,0.2946 0.2165,0.1477 0,0 Z" style="fill-opacity: 1; fill-rule: nonzero; stroke: none; fill: rgb(255, 255, 255);" id="path6849"/>
          </g>
          <g id="g6851" transform="translate(96.8205,360.1054)">
            <path d="M 0,0 C 0.0872,0.06 0.1745,0.1193 0.2618,0.1788 0.1743,0.1194 0.087,0.0599 0,0 Z" style="fill-opacity: 1; fill-rule: nonzero; stroke: none; fill: rgb(255, 255, 255);" id="path6853"/>
          </g>
          <g id="g6855" transform="translate(371.8209,319.2174)">
            <path d="m 0,0 c -1.5134,-1.9542 -2.1832,-4.4765 -1.8483,-6.9225 0.2247,-1.6745 0.8945,-3.1327 1.8864,-4.396 0.3689,-0.7715 0.7504,-1.5388 1.1913,-2.2764 0.5638,-0.9411 1.2124,-1.8271 1.8482,-2.7215 0.6274,-1.0217 1.1446,-2.1112 1.7889,-3.1285 0.9369,-1.4837 2.0814,-2.7428 3.2472,-4.0272 0.0382,-0.0509 0.0806,-0.1018 0.1187,-0.1484 0.4027,-1.2166 0.8012,-2.4375 1.3565,-3.5863 0.6402,-1.3269 1.3354,-2.6283 2.0603,-3.9085 0.9368,-1.6617 1.9839,-3.2684 2.8529,-4.9598 -0.1314,0.2586 -0.2628,0.5129 -0.39,0.7715 0.7291,-1.437 1.5431,-2.8317 2.2976,-4.2561 0.0467,-0.1059 0.089,-0.2077 0.1314,-0.3137 0.1866,-0.5638 0.3646,-1.1276 0.5257,-1.6956 0.089,-1.8949 0.6994,-3.7177 1.8949,-5.265 1.7423,-2.251 4.4807,-3.5991 7.3294,-3.5991 2.0846,0 4.1225,0.7168 5.7477,2.0026 -0.2229,0.7222 -0.388,1.4539 -0.5674,2.1857 -0.1272,0.4706 -0.2501,0.9453 -0.4112,1.4032 -0.392,0.9231 -0.7923,1.8294 -1.1386,2.769 0.0029,-0.0082 0.0055,-0.0161 0.0082,-0.0242 0.0023,-0.0064 0.0047,-0.0127 0.007,-0.0191 -0.0027,0.0067 -0.0049,0.013 -0.007,0.0191 -0.4226,1.1638 -0.937,2.3398 -1.4767,3.4613 -0.3645,0.6952 -0.7418,1.3862 -1.0555,2.1068 -0.2628,0.602 -0.4409,1.2379 -0.6317,1.861 -0.3434,0.9665 -0.7503,1.8907 -1.153,2.8318 -0.5044,1.1615 -0.8902,2.3272 -1.259,3.5354 0.0061,-0.0277 0.0146,-0.0577 0.0236,-0.0867 0.0034,-0.0106 0.007,-0.0214 0.0103,-0.032 -0.0035,0.0104 -0.0069,0.0212 -0.0103,0.032 -0.3423,1.079 -0.7994,2.1657 -1.236,3.2152 -0.1823,0.4112 -0.3604,0.8266 -0.5299,1.2421 0.0169,-0.0467 0.0381,-0.0933 0.0551,-0.1399 -0.3095,0.7418 -0.6528,1.4625 -0.9496,2.2086 0.0721,-0.1823 0.1442,-0.3604 0.2162,-0.5384 -0.3052,0.7503 -0.6401,1.5006 -1.0173,2.2213 -0.441,0.8436 -0.7461,1.7296 -1.0726,2.6198 -0.2967,0.78 -0.5935,1.5685 -0.9707,2.3146 -0.5045,0.9199 -1.0344,1.8355 -1.5728,2.7342 -0.6613,1.1022 -1.2547,2.2425 -1.9415,3.332 -0.5468,0.8139 -1.1276,1.6024 -1.6575,2.429 -0.4324,0.6825 -0.8733,1.3608 -1.3523,2.0094 -0.3942,0.4917 -0.8054,0.9622 -1.2124,1.4413 -0.5214,0.6231 -0.9919,1.2802 -1.5006,1.9076 C 8.6323,-0.1416 7.735,1.1889 6.7316,2.4407 6.7345,2.4368 6.7374,2.433 6.7402,2.429 6.7256,2.4474 6.7113,2.4659 6.6968,2.4843 6.69,2.4927 6.6834,2.5012 6.6766,2.5096 6.6786,2.5072 6.6805,2.5049 6.6825,2.5025 6.4283,2.8249 6.1799,3.1505 5.9326,3.4768 3.6266,3.088 1.4446,1.8721 0,0 Z" style="fill-opacity: 1; fill-rule: nonzero; stroke: none; fill: rgb(255, 255, 255);" id="path6857"/>
          </g>
          <g id="g6859" transform="translate(387.4082,309.6921)">
            <path d="M 0,0 C -0.0466,0.0763 -0.0975,0.1483 -0.1484,0.2247 -0.0975,0.1483 -0.0509,0.0721 0,0 Z" style="fill-opacity: 1; fill-rule: nonzero; stroke: none; fill: rgb(255, 255, 255);" id="path6861"/>
          </g>
          <g id="g6863" transform="translate(385.437,274.2528)">
            <path d="m 0,0 c 0,-5.0997 4.2561,-9.3558 9.3558,-9.3558 4.1011,0 7.6595,2.753 8.8957,6.4832 -0.1429,0.5284 -0.2658,1.0603 -0.3963,1.5924 -0.1271,0.4705 -0.25,0.9453 -0.4112,1.4031 -0.3919,0.9232 -0.7923,1.8295 -1.1385,2.7691 0.0028,-0.0082 0.0054,-0.0161 0.0082,-0.0243 0.0023,-0.0063 0.0047,-0.0126 0.007,-0.019 -0.0027,0.0067 -0.0049,0.0129 -0.007,0.019 C 15.8911,4.0316 15.3766,5.2076 14.837,6.329 14.5223,6.9292 14.1982,7.5262 13.9136,8.1418 12.5581,8.913 11.0008,9.3558 9.3558,9.3558 4.2561,9.3558 0,5.0997 0,0 Z" style="fill-opacity: 1; fill-rule: nonzero; stroke: none; fill: rgb(255, 255, 255);" id="path6865"/>
          </g>
          <g id="g6867" transform="translate(55.038,305.7124)">
            <path d="m 0,0 c -2.0607,0 -4.2937,-0.7154 -6.1124,-1.9451 -0.5886,-1.0692 -1.1818,-2.136 -1.7597,-3.2097 -0.9454,-1.9119 -1.8208,-3.8646 -2.6747,-5.8194 0.0124,-0.1353 0.0277,-0.2711 0.0464,-0.4079 0.3265,-2.4121 1.6194,-4.6334 3.544,-6.1213 1.1912,-0.9199 2.5901,-1.5049 4.0441,-1.7593 0.4451,-0.7503 0.8945,-1.4921 1.4498,-2.1831 1.3268,-1.6406 2.9504,-2.9759 4.7054,-4.1289 1.5855,-1.0429 3.5185,-1.5389 5.3032,-2.1111 1.1573,-0.3731 2.3443,-0.6274 3.5058,-0.975 0.6316,-0.2459 1.2548,-0.513 1.861,-0.8182 -0.2968,0.1526 -0.5977,0.301 -0.8903,0.4494 1.5431,-0.78 3.0226,-1.4202 4.6419,-1.9967 -0.2713,0.0933 -0.5426,0.1908 -0.8139,0.2841 1.6787,-0.5893 3.2684,-1.3693 4.9301,-1.9924 1.8737,-0.7038 3.8237,-1.1701 5.7271,-1.7932 2.1874,-0.7715 4.3663,-1.5303 6.6258,-2.0645 2.6791,-0.6274 5.4091,-0.9453 8.1137,-1.4158 2.7639,-0.4791 5.477,-0.9623 8.2833,-1.1319 2.6155,-0.1568 5.2396,-0.1696 7.8593,-0.3095 1.5516,-0.1186 3.1073,-0.2585 4.6546,-0.4196 2.4969,-0.2501 4.9471,-0.6783 7.4609,-0.7758 2.4714,-0.089 5.0531,-0.3222 7.4948,0.1314 2.0094,0.3731 3.8407,1.098 5.7271,1.7932 1.9288,0.6062 3.9254,1.081 5.9009,1.5176 1.4116,0.2628 2.8232,0.4832 4.2179,0.8181 1.6448,0.4028 3.1709,1.1658 4.6716,1.9246 4.6418,2.2934 9.4066,4.324 14.0739,6.5622 2.5732,1.2378 5.2354,2.1874 7.9187,3.1582 2.5944,0.941 5.0488,2.1492 7.5033,3.3828 0.4706,0.2247 0.9453,0.4324 1.4286,0.6232 0.4875,0.1441 0.9835,0.267 1.4837,0.373 0.8182,0.1696 1.6363,0.3434 2.4502,0.5172 0.1781,0.0296 0.3561,0.0593 0.5342,0.0848 0.0169,-0.0043 0.0381,-0.0085 0.0593,-0.0085 0.4621,-0.1145 0.9199,-0.2459 1.3735,-0.3858 0.6528,-0.2543 1.2929,-0.5341 1.9246,-0.8351 0.1398,-0.0805 0.2797,-0.1611 0.4154,-0.2416 1.2209,-0.886 2.3739,-1.8652 3.5312,-2.8318 0.8224,-0.6825 1.6745,-1.3311 2.4969,-2.0136 0.1695,-0.1653 0.3391,-0.3306 0.5044,-0.5044 1.2802,-1.577 2.3443,-3.2938 3.7601,-4.7903 1.6745,-1.7677 3.633,-3.3022 5.5152,-4.8368 3.5227,-2.8699 7.3633,-5.4431 11.1447,-7.9738 1.0428,-0.7292 2.0347,-1.5261 3.0309,-2.3231 1.5473,-1.2336 3.2515,-2.2213 4.909,-3.2896 1.8652,-1.348 3.5948,-2.8656 5.5151,-4.1458 1.8737,-1.2421 3.9255,-2.1196 5.9518,-3.0776 0.7121,-0.3816 1.4031,-0.7885 2.0856,-1.2252 1.2548,-0.8732 2.4969,-1.755 3.7728,-2.5943 1.5982,-1.0471 3.3871,-1.8313 5.1379,-2.5774 2.9801,-1.2718 6.0577,-2.2044 9.1311,-3.2133 0.8987,-0.3222 1.7974,-0.6486 2.7046,-0.9538 1.2844,-0.4281 2.5859,-0.6952 3.9127,-0.9581 2.1535,-0.4324 4.3409,-0.6909 6.4986,-1.1149 -0.4069,0.0848 -0.8097,0.1654 -1.2124,0.2502 2.8657,-0.5893 5.6423,-1.1234 8.5758,-1.2039 1.9203,-0.0552 3.8407,-0.106 5.761,-0.1823 4.4511,-0.1823 8.9319,-0.0764 13.383,-0.0636 2.4672,0.0042 4.9259,0.0848 7.3804,0.301 2.4671,0.2162 4.9131,0.7842 7.3252,1.3311 2.1789,0.4959 4.3833,0.9114 6.5452,1.4752 2.7639,0.7291 5.2481,2.1153 7.7491,3.4506 1.505,0.691 3.0565,1.2506 4.6123,1.8144 1.755,0.6316 3.4887,1.3141 5.2395,1.9627 1.0259,0.3264 2.0645,0.6104 3.1031,0.8945 1.4201,0.3942 2.8063,0.8987 4.1925,1.3946 2.5138,0.8267 5.0531,1.5685 7.5499,2.4418 2.1916,0.7673 4.2434,1.6956 6.3248,2.7215 2.1832,1.0768 4.4384,1.9797 6.5453,3.2133 1.4582,0.8563 2.8826,1.7719 4.3747,2.5604 0.6105,0.2925 1.2294,0.5723 1.861,0.8224 1.5558,0.4875 3.1073,0.9581 4.6546,1.4837 1.3014,0.4536 2.5986,0.9242 3.9,1.3905 0.674,0.2161 1.3523,0.3984 2.0391,0.5595 0.7884,0.1569 1.5684,0.318 2.3314,0.5638 0.7674,0.2501 1.5219,0.5087 2.3019,0.6995 1.0767,0.2671 2.1196,0.5511 3.137,1.0047 0.9919,0.4451 1.9373,0.9877 2.8911,1.5049 0.0508,0.0254 0.106,0.0466 0.1568,0.072 0.0424,0.0085 0.0848,0.0212 0.1315,0.0297 0.0805,0.0127 0.161,0.0255 0.2415,0.0382 3.5016,-0.8775 7.5669,0.2797 9.7077,3.2853 0.2544,0.3518 0.479,0.7122 0.6825,1.081 -0.1992,0.6698 -0.3518,1.3438 -0.5172,2.0178 -0.1272,0.4706 -0.2501,0.9454 -0.4154,1.4032 -0.3858,0.9241 -0.7885,1.827 -1.1319,2.7681 0,-0.0013 3e-4,-0.0026 5e-4,-0.0038 -0.4265,1.1545 -0.9322,2.3253 -1.4714,3.4418 -0.3646,0.6952 -0.7419,1.3862 -1.0556,2.1068 -0.2586,0.5893 -0.4324,1.2166 -0.6231,1.8271 -2.2002,0.8224 -4.5614,0.7249 -6.8675,0.496 -1.2759,-0.123 -2.5519,-0.3688 -3.794,-0.6953 -1.8694,-0.4917 -3.5354,-1.437 -5.2268,-2.3357 -0.6868,-0.1823 -1.3905,-0.3222 -2.073,-0.5341 -0.78,-0.2459 -1.5473,-0.5045 -2.3485,-0.6868 -0.9623,-0.1992 -1.9119,-0.4154 -2.8572,-0.7079 -1.3692,-0.4239 -2.7088,-0.9665 -4.0611,-1.4456 -0.7333,-0.2501 -1.4667,-0.5044 -2.1958,-0.7588 -0.869,-0.2967 -1.755,-0.5171 -2.641,-0.7673 -1.3226,-0.373 -2.5901,-0.9199 -3.8322,-1.4964 -2.7088,-1.259 -5.1675,-2.9207 -7.7958,-4.3197 -2.9758,-1.4498 -5.9687,-2.908 -9.0802,-4.0399 -3.0607,-1.0301 -6.1553,-1.9584 -9.2075,-3.0267 0.3816,0.1356 0.7631,0.267 1.1488,0.3985 -1.632,-0.5427 -3.3065,-0.9157 -4.9343,-1.4583 -2.0263,-0.674 -4.0102,-1.4498 -6.0069,-2.2001 -1.4582,-0.5469 -2.9377,-1.0344 -4.3917,-1.6067 -1.95,-0.763 -3.7771,-1.7677 -5.6211,-2.7512 -0.4493,-0.2077 -0.8987,-0.4027 -1.3523,-0.5892 -2.6368,-0.7758 -5.3794,-1.276 -8.0671,-1.8356 -1.3141,-0.25 -2.6325,-0.4578 -3.9636,-0.5892 -4.2137,-0.2204 -8.4486,-0.0975 -12.6708,-0.0933 -3.811,0 -7.6432,0.0552 -11.4542,0.2587 -0.7715,0.0847 -1.5303,0.2034 -2.2976,0.3391 -1.6617,0.3476 -3.3192,0.6909 -4.9937,0.9665 -1.17,0.195 -2.34,0.3645 -3.5015,0.5723 -0.5129,0.1314 -1.0132,0.2798 -1.5134,0.4451 -2.1238,0.7376 -4.2688,1.4031 -6.4011,2.1153 -1.6829,0.6189 -3.3447,1.293 -4.9598,2.0602 -0.5087,0.2756 -1.0004,0.5681 -1.4879,0.8733 -1.4668,1.0259 -2.9166,2.0729 -4.4427,3.0183 -1.7253,1.0725 -3.6117,1.8567 -5.4472,2.7173 -0.3858,0.2119 -0.7631,0.4323 -1.1319,0.6655 -1.2081,0.8902 -2.357,1.8568 -3.5439,2.7682 -1.3735,1.064 -2.8784,1.9161 -4.3409,2.8487 -1.0767,0.7885 -2.0984,1.6448 -3.1624,2.4502 -0.992,0.7546 -2.0433,1.4286 -3.0776,2.1153 -3.722,2.535 -7.4821,5.1209 -10.8989,8.0502 -0.6485,0.5807 -1.3014,1.1657 -1.9118,1.7846 -0.6698,0.8521 -1.2633,1.755 -1.9076,2.6283 -1.0344,1.4074 -2.2722,2.6029 -3.5779,3.7474 -2.0263,1.7762 -4.1628,3.4931 -6.3036,5.1294 -2.7639,2.1111 -6.0196,3.6033 -9.3473,4.5994 -1.9457,0.5851 -3.9721,0.9793 -6.0111,0.9878 -2.3993,0.0127 -4.6842,-0.5935 -7.0158,-1.0725 0.1908,0.0381 0.3773,0.0763 0.5638,0.1144 -1.8355,-0.3773 -3.599,-0.8054 -5.3709,-1.4922 -1.4541,-0.5595 -2.8276,-1.3183 -4.2095,-2.039 -2.2976,-1.081 -4.6631,-1.9669 -7.0582,-2.819 -2.4884,-0.886 -4.8665,-1.9797 -7.2404,-3.1285 -4.7945,-2.3188 -9.6992,-4.396 -14.4555,-6.7953 0.3391,0.1737 0.6782,0.3433 1.0174,0.5129 -0.4239,-0.2077 -0.8478,-0.407 -1.2845,-0.585 -0.1356,-0.0382 -0.2755,-0.0721 -0.4154,-0.106 -2.2256,-0.4239 -4.4214,-0.9072 -6.6258,-1.4286 -2.2722,-0.5341 -4.4341,-1.2887 -6.6131,-2.1068 -0.0805,-0.0255 -0.1653,-0.0467 -0.2501,-0.0721 -0.0127,-0.0042 -0.0296,-0.0042 -0.0466,-0.0085 -1.4964,-0.0381 -3.0055,0.0297 -4.502,0.1145 -3.0479,0.2798 -6.0746,0.7545 -9.1268,0.9962 -3.3405,0.2628 -6.6894,0.2967 -10.0298,0.4748 -2.0857,0.195 -4.129,0.585 -6.1934,0.941 -1.9797,0.3477 -3.9763,0.6062 -5.956,0.9708 -1.3014,0.2968 -2.5817,0.6528 -3.8492,1.0725 -1.3523,0.4833 -2.7003,0.9665 -4.0695,1.4032 -0.8479,0.2755 -1.7211,0.4832 -2.5774,0.7333 -0.7207,0.2841 -1.4244,0.6062 -2.1323,0.9157 -0.9581,0.4197 -1.9416,0.7673 -2.9293,1.1107 -0.5638,0.1992 -1.1106,0.4239 -1.6532,0.6867 -1.8186,0.8902 -3.633,1.6957 -5.6169,2.2298 -1.1319,0.3052 -2.251,0.6104 -3.3659,0.958 -0.1907,0.3307 -0.3773,0.6613 -0.5892,0.9793 -0.7546,1.1488 -1.6321,2.1026 -2.5393,3.0988 C 9.271,-4.7521 8.6733,-4.1289 7.9314,-3.5482 7.6983,-3.3616 7.4566,-3.1963 7.2108,-3.0437 6.9056,-2.7173 6.5749,-2.3994 6.2103,-2.0857 4.5825,-0.6613 2.1916,-0.0212 0.0678,0 0.0466,0 0.0212,0 0,0 Z" style="fill-opacity: 1; fill-rule: nonzero; stroke: none; fill: rgb(255, 255, 255);" id="path6869"/>
          </g>
          <g id="g6871" transform="translate(376.5236,260.8046)">
            <path d="M 0,0 C 0.1385,0.0473 0.2769,0.0948 0.4153,0.143 0.2769,0.0953 0.1384,0.0477 0,0 Z" style="fill-opacity: 1; fill-rule: nonzero; stroke: none; fill: rgb(255, 255, 255);" id="path6873"/>
          </g>
          <g id="g6875" transform="translate(376.288,260.7246)">
            <path d="M 0,0 C -0.1645,-0.0573 -0.3291,-0.1146 -0.4938,-0.1712 -0.2507,-0.0875 -0.0076,-0.0038 0.2355,0.08 0.157,0.0532 0.0786,0.0265 0,0 Z" style="fill-opacity: 1; fill-rule: nonzero; stroke: none; fill: rgb(255, 255, 255);" id="path6877"/>
          </g>
          <g id="g6879" transform="translate(222.6425,390.1694)">
            <path d="m 0,0 c -0.3468,-0.1532 -0.6888,-0.3204 -1.025,-0.501 -2.284,-0.2633 -4.5307,-0.91 -6.7237,-1.6294 -0.9245,0.0512 -1.8492,0.0963 -2.7729,0.138 -5.9475,0.2713 -12.0222,0.5129 -17.9612,-0.0212 -6.329,-0.568 -12.7641,-1.4455 -18.7285,-3.7516 -2.0263,-0.78 -4.0442,-1.6067 -5.7865,-2.9293 -1.4284,-1.0847 -2.4713,-2.5274 -3.1029,-4.1278 -0.2926,-0.1101 -0.5851,-0.2207 -0.8776,-0.3318 -1.8883,-0.7137 -3.7474,-1.5372 -5.5858,-2.4104 -1.8043,1.0917 -3.9527,1.6118 -6.021,1.215 -0.5638,-0.106 -1.1234,-0.2204 -1.6872,-0.3391 -1.064,-0.2925 -2.0008,-0.8182 -2.9674,-1.3396 -1.4243,-0.7715 -2.7384,-1.8949 -4.0356,-2.8572 -0.992,-0.7291 -1.9924,-1.4455 -2.9844,-2.1704 -1.0621,-0.7707 -2.1408,-1.5192 -3.2105,-2.2797 -2.8039,-0.9085 -5.5568,-2.0701 -8.1419,-3.4771 -1.5305,-0.8338 -3.0419,-1.6991 -4.5427,-2.5827 -1.8675,0.4347 -3.8737,0.3103 -5.733,-0.461 -0.7452,-0.311 -1.3987,-0.7285 -2.0515,-1.1712 -2.5869,-1.7127 -5.1987,-3.3886 -7.8681,-4.9798 -1.4116,-0.8351 -2.836,-1.6278 -4.2391,-2.4756 -1.9161,-1.1573 -3.7517,-2.3994 -5.5914,-3.6711 -2.4842,-1.7169 -4.7988,-3.7347 -7.1049,-5.6805 -1.4709,-1.242 -2.9377,-2.4841 -4.3875,-3.7601 -2.3755,-2.0898 -5.1736,-4.3421 -6.3879,-7.3545 -0.9622,-0.6359 -1.9228,-1.2733 -2.8788,-1.9165 -2.7597,-1.8652 -6.3206,-3.7347 -7.906,-6.7614 -0.1126,-0.2153 -0.2177,-0.4333 -0.3157,-0.653 -1.9445,-1.5084 -3.5279,-3.5589 -4.9663,-5.5107 -1.4371,-1.9501 -2.8699,-3.9128 -4.1459,-5.973 -1.1954,-1.9246 -2.2595,-4.1883 -2.1704,-6.5113 9e-4,-0.0236 0.002,-0.0471 0.003,-0.0707 -0.5421,-0.7055 -1.0174,-1.472 -1.4063,-2.3287 -1.1869,-2.6282 -0.8987,-5.8627 0.5426,-8.3214 1.3824,-2.3628 3.7508,-3.9715 6.3994,-4.4553 1.2269,-0.6385 2.5877,-1.0009 3.9607,-1.0697 0.5523,-1.969 1.7698,-3.7658 3.3408,-5.1026 3.3532,-2.8486 8.207,-2.5731 11.8103,-0.3815 1.8538,1.1258 3.5891,2.4079 5.2822,3.7579 -0.0341,-1.366 0.2129,-2.7355 0.7247,-3.9486 1.2759,-3.0141 4.1034,-5.1676 7.3337,-5.6169 1.9457,-0.2755 3.9805,-0.2374 5.9856,-0.1992 0.7461,0.0127 1.488,0.0254 2.2214,0.0254 2.2382,-0.004 4.4765,-0.008 6.719,-0.0381 4.6435,-0.0632 9.2798,-0.1965 13.9155,-0.4714 2.3291,-0.2049 4.6584,-0.4137 6.9835,-0.6266 2.9631,-0.2755 5.9008,-0.3052 8.847,0.1357 1.6957,0.2501 3.315,0.7757 4.8369,1.56 1.4244,0.7333 2.4587,1.7677 3.4761,2.9843 1.8771,2.242 2.4409,5.686 1.5687,8.5736 0.9041,0.2047 1.8,0.4517 2.6832,0.672 2.1195,0.5257 4.2348,1.0598 6.3544,1.5939 4.1205,1.0428 8.2325,2.0857 12.3232,3.2472 6.2061,1.7604 11.9739,4.6409 17.6507,7.6744 1.9363,-2.7615 4.1298,-5.338 5.7875,-7.5218 1.9501,-2.5731 3.7729,-5.1802 5.9348,-7.5881 1.1828,-1.3183 2.5393,-2.6155 3.9848,-3.6202 1.878,-1.3056 3.9297,-2.0093 6.2273,-2.0093 0.5843,0 1.1518,0.0551 1.7015,0.1605 0.7697,-1.2002 1.5515,-2.3928 2.3469,-3.5773 1.8398,-2.7427 3.8958,-5.2777 6.2019,-7.6432 1.5812,-1.6278 3.4167,-3.1666 5.443,-4.1755 1.9004,-0.943 4.0241,-1.1593 6.028,-0.7647 1.0923,-1.035 2.1718,-2.084 3.2029,-3.189 0.6561,-0.8294 1.3798,-1.606 2.2191,-2.2567 0.9338,-0.7211 1.926,-1.1753 2.9912,-1.4976 0.1517,-1.1033 0.4344,-2.1801 0.8622,-3.1909 1.9372,-4.574 6.6766,-7.9102 11.7593,-7.2446 1.7677,0.2294 3.4199,0.8602 4.8556,1.8122 1.325,-1.5836 3.2689,-2.9628 5.2548,-3.3807 1.0471,-0.2205 2.056,-0.4748 3.1369,-0.4748 1.0853,0 2.3146,0.1611 3.3659,0.4493 0.7732,0.2132 1.5532,0.4959 2.3107,0.84 3.158,-2.8741 8.0648,-3.0691 11.5722,-0.6779 1.6792,-1.4257 3.8138,-2.1884 6.0665,-2.2477 1.8441,-0.0467 3.6626,0.2967 5.2608,1.259 1.5346,0.9241 2.7173,2.0687 3.9466,3.3447 0.2673,0.2778 0.529,0.5604 0.7865,0.8471 1.4189,-0.8628 3.057,-1.3512 4.7499,-1.3007 1.8101,0.0509 3.5397,0.2416 5.2183,0.9623 1.3142,0.5638 2.5944,1.2208 3.8534,1.9076 2.703,1.4763 5.1467,3.4708 7.3979,5.5824 1.6572,-0.5235 3.4131,-0.7887 5.1839,-0.8982 1.3145,-0.0806 2.6962,0.1086 4.0249,0.4192 1.2585,-0.7177 2.5991,-1.2845 4.0041,-1.6527 4.2518,-1.1149 8.8046,-1.0641 12.8955,0.6867 7.198,3.0861 12.7089,9.36 16.4054,16.1342 0.6224,1.1412 1.1937,2.3172 1.7102,3.5189 0.6516,0.1139 1.3003,0.2462 1.9455,0.3967 2.7369,-0.8294 5.6261,-0.7098 8.21,0.4331 1.9496,-0.182 4.0433,-0.1518 5.8454,0.3737 1.8992,0.5553 3.6415,1.437 5.0573,2.8529 1.8059,1.8059 3.0522,4.5613 3.0013,7.1345 -0.0381,1.9373 -0.3179,3.722 -1.1784,5.4727 -0.9157,1.8652 -2.1111,3.4931 -3.5016,5.0277 -1.6659,1.844 -3.5354,3.4421 -5.4091,5.0657 -2.2712,1.9679 -4.8658,3.6125 -7.4012,5.2241 -0.5756,0.8009 -1.1543,1.5989 -1.7299,2.3979 -2.4672,3.438 -5.1082,6.753 -8.0502,9.7967 -2.3709,2.4526 -5.0301,4.7634 -7.9201,6.7191 0.0995,1.1489 0.008,2.3136 -0.2572,3.4039 -0.7884,3.2557 -3.2895,5.956 -5.6889,8.1731 -1.1488,1.064 -2.3018,2.1238 -3.4718,3.1666 -2.3104,2.0603 -4.6207,4.112 -7.0921,5.9815 -4.9386,3.7431 -10.3266,6.8292 -15.6679,9.962 -2.6368,1.5473 -5.3371,2.997 -8.1519,4.2052 -2.7869,1.1962 -5.9499,1.7273 -8.8778,1.0066 -0.1799,0.1144 -0.3604,0.2284 -0.5416,0.3414 -1.2827,0.8023 -2.6059,1.5379 -3.959,2.2152 -0.0042,0.0054 -0.0081,0.0107 -0.0122,0.0161 0.0314,1.9551 -0.4443,3.9204 -1.3913,5.5391 -2.2298,3.8067 -6.3121,6.0747 -10.1527,7.9526 -4.9556,2.4248 -10.2036,4.0908 -15.4305,5.8034 -2.0424,0.6697 -4.0898,1.3597 -6.144,2.0445 -2.2746,0.8314 -4.5766,1.5908 -6.9068,2.2378 -3.7053,1.1469 -7.4412,2.1867 -11.2225,2.975 -1.3241,0.6284 -2.7661,1.0475 -4.2307,1.2676 -2.6774,0.3994 -5.3572,0.4471 -8.0291,0.2706 -2.387,0.1365 -4.7722,0.2218 -7.1725,0.2339 -0.0665,4e-4 -0.1333,5e-4 -0.1999,5e-4 C 7.0061,2.0227 3.309,1.4568 0,0 Z" style="fill-opacity: 1; fill-rule: nonzero; stroke: none; fill: rgb(255, 255, 255);" id="path6881"/>
          </g>
          <g id="g6883" transform="translate(164.3836,393.5444)">
            <path d="M 0,0 C 0.081,0.026 0.1627,0.0526 0.2437,0.0791 0.1621,0.054 0.0809,0.0276 0,0 Z" style="fill-opacity: 1; fill-rule: nonzero; stroke: none;" id="path6885"/>
          </g>
          <g id="g6887" transform="translate(367.5376,362.5244)">
            <path d="M 0,0 C 0,0.0042 0,0.0042 0,0.0085 -0.0297,0.0763 -0.0593,0.1441 -0.089,0.2119 -0.106,0.2543 -0.1229,0.2925 -0.1441,0.3349 -0.0933,0.2247 -0.0466,0.1102 0,0 Z" style="fill-opacity: 1; fill-rule: nonzero; stroke: none;" id="path6889"/>
          </g>
        </g>
      </g>
    </g>
    <g id="g6891" transform="matrix(1,0,0,-1,0,500)">
      <g id="g6893">
        <g id="g6895" clip-path="url(#clipPath6899)">
          <g id="g6901" transform="translate(361.4648,270.3242)">
            <path d="m 0,0 c 0.0156,0.1562 0.0078,0.3125 0.0078,0.4687 0,0.0586 -0.0156,0.1094 -0.0351,0.1602 -0.0079,0.0547 -0.0157,0.1094 -0.0274,0.1563 0,0 -0.0078,0.0468 -0.0078,0.0468 -0.0078,0.0313 -0.0195,0.0625 -0.0312,0.0938 0,0.0039 0,0.0117 -0.004,0.0156 -0.2031,0.8828 -0.8671,1.5859 -1.7656,1.8359 -4.3359,1.4961 -9.1328,1.8985 -13.1133,4.3243 -0.7656,0.6015 -1.5312,1.2109 -2.2773,1.8476 0.0078,0.0078 0.0156,0.0156 0.0234,0.0235 -1.4375,1.3828 -2.7109,2.957 -3.9375,4.5234 -2.4258,3.9805 -2.8281,8.7773 -4.3242,13.1133 -0.2812,1.0156 -1.1445,1.7344 -2.1914,1.8242 -0.0859,0 -0.168,-0.0156 -0.2422,-0.0508 -0.0742,0.0313 -0.1562,0.0508 -0.2461,0.0508 -1.0469,-0.0898 -1.9101,-0.8086 -2.1914,-1.8242 -1.4961,-4.336 -1.8984,-9.1328 -4.3242,-13.1133 -1.2266,-1.5664 -2.5,-3.1406 -3.9375,-4.5234 0.0078,-0.0079 0.0195,-0.0157 0.0273,-0.0235 -0.7461,-0.6367 -1.5156,-1.2461 -2.2812,-1.8476 -3.9805,-2.4258 -8.7774,-2.8282 -13.1133,-4.3243 -0.8984,-0.25 -1.5625,-0.9531 -1.7656,-1.8359 -0.0039,-0.0039 -0.0039,-0.0117 -0.0039,-0.0156 -0.0117,-0.0313 -0.0235,-0.0625 -0.0313,-0.0938 0,0 -0.0078,-0.0468 -0.0078,-0.0468 -0.0117,-0.0469 -0.0195,-0.1016 -0.0273,-0.1563 -0.0196,-0.0508 -0.0352,-0.1016 -0.0352,-0.1602 0,-0.1523 -0.0078,-0.3125 0.0078,-0.4648 -0.0078,-0.0195 -0.0078,-0.043 -0.0078,-0.0625 0.0899,-1.0469 0.8086,-1.9102 1.8242,-2.1914 4.336,-1.4961 9.1328,-1.8984 13.1133,-4.3242 1.543,-1.2031 3.082,-2.457 4.4453,-3.8594 0.6719,-0.7851 1.3164,-1.5937 1.9492,-2.3984 2.4258,-3.9805 2.8282,-8.7774 4.3243,-13.1133 0.2812,-1.0156 1.1445,-1.7344 2.1914,-1.8242 0.0312,0 0.0586,0.0039 0.0898,0.0078 0.0274,-0.0039 0.0586,-0.0078 0.0899,-0.0078 1.0468,0.0898 1.9101,0.8086 2.1914,1.8242 1.4961,4.3359 1.8984,9.1328 4.3242,13.1133 0.6406,0.8164 1.2969,1.6406 1.9805,2.4336 1.3515,1.3867 2.8828,2.6289 4.4101,3.8242 3.9805,2.4258 8.7774,2.8281 13.1133,4.3242 1.0156,0.2812 1.7344,1.1445 1.8242,2.1914 0,0.0195 0,0.0391 -0.0078,0.0586 z" style="fill-opacity: 1; fill-rule: nonzero; stroke: none; fill: rgb(52, 146, 154);" id="path6903"/>
          </g>
        </g>
      </g>
    </g>
    <g id="g6905" transform="matrix(1,0,0,-1,0,500)">
      <g id="g6907">
        <g id="g6909" clip-path="url(#clipPath6913)">
          <g id="g6915" transform="translate(244.9648,340.1875)">
            <path d="m 0,0 c 0.0117,0.1172 0.0078,0.2344 0.0078,0.3516 0,0.0429 -0.0117,0.082 -0.0273,0.1211 -0.0078,0.0429 -0.0117,0.0859 -0.0196,0.121 0,0 -0.0078,0.0352 -0.0078,0.0352 -0.0039,0.0195 -0.0117,0.0391 -0.0195,0.0586 -0.1523,0.6953 -0.668,1.2461 -1.3672,1.4375 -3.3398,1.1562 -7.0351,1.4648 -10.1016,3.332 -0.5937,0.461 -1.1835,0.9336 -1.7578,1.4258 0.0078,0.0078 0.0118,0.0156 0.0196,0.0195 -1.1055,1.0664 -2.0899,2.2774 -3.0313,3.4844 -1.8711,3.0664 -2.1797,6.7617 -3.332,10.1016 -0.2188,0.7851 -0.8828,1.3359 -1.6914,1.4062 -0.0664,0 -0.1289,-0.0156 -0.1836,-0.039 -0.0586,0.0234 -0.1211,0.039 -0.1914,0.039 -0.8047,-0.0703 -1.4727,-0.6211 -1.6875,-1.4062 -1.1524,-3.3399 -1.4649,-7.0352 -3.3321,-10.1016 -0.9453,-1.207 -1.9257,-2.418 -3.0351,-3.4844 0.0078,-0.0078 0.0156,-0.0156 0.0234,-0.0195 -0.5742,-0.4922 -1.1679,-0.9648 -1.7578,-1.4258 -3.0664,-1.8672 -6.7617,-2.1758 -10.1055,-3.332 -0.6992,-0.1914 -1.2148,-0.7422 -1.3632,-1.4375 -0.0079,-0.0195 -0.0157,-0.0391 -0.0196,-0.0586 0,0 -0.0078,-0.0352 -0.0078,-0.0352 -0.0078,-0.0351 -0.0156,-0.0781 -0.0195,-0.121 -0.0156,-0.0391 -0.0274,-0.0782 -0.0274,-0.1211 0,-0.125 -0.0078,-0.25 0.0039,-0.375 -0.0039,-0.0118 -0.0039,-0.0235 -0.0039,-0.0352 0.0704,-0.8047 0.6211,-1.4687 1.4063,-1.6875 3.3398,-1.1523 7.0351,-1.4609 10.1016,-3.332 1.1796,-0.9258 2.3632,-1.8828 3.4101,-2.9571 0.5234,-0.6093 1.0234,-1.2382 1.5117,-1.8632 1.8711,-3.0664 2.1797,-6.7618 3.3321,-10.1016 0.2187,-0.7813 0.8828,-1.3359 1.6914,-1.4063 0.0234,0 0.0429,0.004 0.0664,0.0079 0.0234,-0.0039 0.0468,-0.0079 0.0703,-0.0079 0.8086,0.0704 1.4726,0.625 1.6875,1.4063 1.1523,3.3398 1.4648,7.0352 3.332,10.1016 0.5,0.6367 1.0117,1.2773 1.5469,1.8984 1.043,1.0625 2.207,2.0078 3.3789,2.9219 3.0664,1.8711 6.7617,2.1797 10.1016,3.332 0.7812,0.2188 1.3359,0.8828 1.4062,1.6875 0,0.0195 0,0.0391 -0.0078,0.0586 z" style="fill-opacity: 1; fill-rule: nonzero; stroke: none; fill: rgb(52, 146, 154);" id="path6917"/>
          </g>
        </g>
      </g>
    </g>
    <g id="g6919" transform="matrix(1,0,0,-1,0,500)">
      <g id="g6921">
        <g id="g6923" clip-path="url(#clipPath6927)">
          <g id="g6929" transform="translate(130.4897,193.9828)">
            <path d="m 0,0 c 0.0156,0.1602 0.0078,0.3242 0.0078,0.4844 0,0.0586 -0.0156,0.1093 -0.0351,0.1601 -0.0079,0.0547 -0.0157,0.1094 -0.0274,0.1563 0,0 -0.0078,0.0469 -0.0078,0.0469 -0.0078,0.0312 -0.0195,0.0625 -0.0312,0.0937 0,0.0039 0,0.0117 -0.004,0.0156 -0.2031,0.8828 -0.8671,1.586 -1.7656,1.836 -4.3359,1.4961 -9.1328,1.8984 -13.1133,4.3242 -0.7695,0.6015 -1.5351,1.2109 -2.2812,1.8476 0.0078,0.0079 0.0195,0.0157 0.0273,0.0235 -1.4375,1.3828 -2.7109,2.957 -3.9375,4.5234 -2.4257,3.9805 -2.8281,8.7774 -4.3242,13.1133 -0.2812,1.0156 -1.1445,1.7344 -2.1914,1.8242 -0.0898,0 -0.1758,-0.0195 -0.2461,-0.0508 -0.0703,0.0313 -0.1562,0.0508 -0.2461,0.0508 -1.0468,-0.0898 -1.9101,-0.8086 -2.1914,-1.8242 -1.4961,-4.3359 -1.8984,-9.1328 -4.3242,-13.1133 -1.2266,-1.5664 -2.5,-3.1406 -3.9375,-4.5234 0.0078,-0.0078 0.0195,-0.0156 0.0273,-0.0235 -0.746,-0.6367 -1.5117,-1.2461 -2.2812,-1.8476 -3.9805,-2.4258 -8.7773,-2.8281 -13.1133,-4.3242 -0.8984,-0.25 -1.5625,-0.9532 -1.7656,-1.836 -0.0039,-0.0039 -0.0039,-0.0117 -0.0039,-0.0156 -0.0117,-0.0312 -0.0235,-0.0625 -0.0313,-0.0937 0,0 -0.0078,-0.0469 -0.0078,-0.0469 -0.0117,-0.0469 -0.0195,-0.1016 -0.0273,-0.1563 -0.0196,-0.0508 -0.0352,-0.1015 -0.0352,-0.1601 0,-0.1602 -0.0078,-0.3242 0.0078,-0.4844 0,0 0,-0.0039 0,-0.0039 -0.0039,-0.0117 -0.0039,-0.0234 -0.0039,-0.0391 0.0899,-1.0468 0.8086,-1.9101 1.8242,-2.1914 4.336,-1.4961 9.1329,-1.8984 13.1133,-4.3242 1.5235,-1.1953 3.0547,-2.4375 4.4102,-3.8242 0.6836,-0.793 1.3398,-1.6172 1.9805,-2.4336 2.4257,-3.9805 2.8281,-8.7774 4.3242,-13.1133 0.2812,-1.0156 1.1445,-1.7344 2.1914,-1.8242 0.0312,0 0.0625,0.0039 0.0898,0.0078 0.0274,-0.0039 0.0586,-0.0078 0.0899,-0.0078 1.0468,0.0898 1.9101,0.8086 2.1914,1.8242 1.4961,4.3359 1.8984,9.1328 4.3242,13.1133 0.6406,0.8164 1.2969,1.6406 1.9805,2.4336 1.3554,1.3867 2.8867,2.6289 4.4101,3.8242 3.9805,2.4258 8.7774,2.8281 13.1133,4.3242 1.0156,0.2813 1.7344,1.1446 1.8242,2.1914 0,0.0157 0,0.0274 -0.0039,0.0391 C 0,-0.0039 0,0 0,0 Z" style="fill-opacity: 1; fill-rule: nonzero; stroke: none; fill: rgb(255, 255, 255);" id="path6931"/>
          </g>
        </g>
      </g>
    </g>
    <g id="g6933" transform="matrix(1,0,0,-1,0,500)">
      <g id="g6935">
        <g id="g6937" clip-path="url(#clipPath6941)">
          <g id="g6943" transform="translate(226.0173,211.0701)">
            <path d="m 0,0 c 0.0112,0.1143 0.0056,0.2314 0.0056,0.3457 0,0.0419 -0.0112,0.0781 -0.0251,0.1144 -0.0056,0.039 -0.0112,0.078 -0.0195,0.1115 0,0 -0.0056,0.0335 -0.0056,0.0335 -0.0056,0.0223 -0.0139,0.0446 -0.0223,0.0669 0,0.0028 0,0.0083 -0.0028,0.0111 -0.145,0.6302 -0.619,1.1321 -1.2603,1.3105 -3.095,1.0679 -6.519,1.3551 -9.3603,3.0867 -0.5493,0.4294 -1.0958,0.8643 -1.6284,1.3188 0.0056,0.0056 0.014,0.0112 0.0195,0.0168 -1.0261,0.987 -1.935,2.1107 -2.8106,3.2288 -1.7315,2.8413 -2.0187,6.2653 -3.0866,9.3603 -0.2008,0.725 -0.817,1.238 -1.5643,1.3021 -0.0641,0 -0.1254,-0.0139 -0.1756,-0.0362 -0.0502,0.0223 -0.1115,0.0362 -0.1757,0.0362 -0.7472,-0.0641 -1.3634,-0.5771 -1.5642,-1.3021 -1.0679,-3.095 -1.3551,-6.519 -3.0866,-9.3603 -0.8756,-1.1181 -1.7845,-2.2418 -2.8106,-3.2288 0.0055,-0.0056 0.0139,-0.0112 0.0195,-0.0168 -0.5326,-0.4545 -1.0791,-0.8894 -1.6284,-1.3188 -2.8413,-1.7316 -6.2653,-2.0188 -9.3603,-3.0867 -0.6413,-0.1784 -1.1153,-0.6803 -1.2603,-1.3105 -0.0028,-0.0028 -0.0028,-0.0083 -0.0028,-0.0111 -0.0084,-0.0223 -0.0167,-0.0446 -0.0223,-0.0669 0,0 -0.0056,-0.0335 -0.0056,-0.0335 -0.0083,-0.0335 -0.0139,-0.0725 -0.0195,-0.1115 -0.0139,-0.0363 -0.0251,-0.0725 -0.0251,-0.1144 0,-0.1143 -0.0056,-0.2314 0.0056,-0.3457 0,0 0,-0.0028 0,-0.0028 -0.0028,-0.0084 -0.0028,-0.0167 -0.0028,-0.0279 0.0641,-0.7472 0.5772,-1.3634 1.3021,-1.5642 3.095,-1.0679 6.5191,-1.3551 9.3603,-3.0866 1.0875,-0.8533 2.1805,-1.7399 3.148,-2.7298 0.488,-0.566 0.9564,-1.1543 1.4137,-1.7371 1.7315,-2.8413 2.0187,-6.2653 3.0866,-9.3603 0.2008,-0.725 0.817,-1.238 1.5643,-1.3021 0.0223,0 0.0446,0.0028 0.0641,0.0055 0.0195,-0.0027 0.0418,-0.0055 0.0641,-0.0055 0.7473,0.0641 1.3635,0.5771 1.5643,1.3021 1.0679,3.095 1.3551,6.519 3.0866,9.3603 0.4573,0.5828 0.9257,1.1711 1.4137,1.7371 0.9675,0.9899 2.0605,1.8765 3.1479,2.7298 2.8413,1.7315 6.2653,2.0187 9.3604,3.0866 0.7249,0.2008 1.2379,0.817 1.3021,1.5642 0,0.0112 0,0.0195 -0.0028,0.0279 C 0,-0.0028 0,0 0,0 Z" style="fill-opacity: 1; fill-rule: nonzero; stroke: none; fill: rgb(255, 255, 255);" id="path6945"/>
          </g>
        </g>
      </g>
    </g>
    <g id="g6947" transform="matrix(1,0,0,-1,0,500)">
      <g id="g6949">
        <g id="g6951" clip-path="url(#clipPath6955)">
          <g id="g6957" transform="translate(308.4531,376.3594)">
            <path d="m 0,0 c 47.3984,-28.7188 78.8828,-79.4297 78.8828,-137.1992 0,-89.5508 -75.6562,-162.1445 -168.9805,-162.1445 -93.3242,0 -168.9804,72.5937 -168.9804,162.1445 0,89.2617 75.1679,161.6758 168.0781,162.1445 0.0703,0 0.1406,0 0.2109,0 0.0743,0 0.1368,0 0.211,0 0.1601,0 0.3203,0 0.4804,0 0.1758,0 0.3477,0 0.5196,0 0.0547,0 0.1054,0 0.1601,0 0.1211,0 0.2383,0 0.3594,0 0.0625,0 0.1289,-0.0039 0.1914,-0.0039 0.1094,0 0.2227,0 0.3359,0 0.0547,0 0.125,-0.0039 0.1797,-0.0039 0.1094,0 0.2188,0 0.3282,-0.0039 0.0781,0 0.1484,0 0.2265,0 0.0899,-0.0039 0.1875,-0.0039 0.2774,-0.0039 0.0781,-0.0039 0.1562,-0.0039 0.2343,-0.0039 0.0977,-0.0039 0.1954,-0.0039 0.293,-0.0039 0.0742,-0.0039 0.1524,-0.0039 0.2266,-0.0039 0.125,-0.0039 0.25,-0.0078 0.375,-0.0078 0.0429,-0.0039 0.082,-0.0039 0.125,-0.0039 0.1718,-0.004 0.3398,-0.0079 0.5117,-0.0118 0.0664,0 0.1328,-0.0039 0.1992,-0.0039 0.1055,-0.0039 0.2109,-0.0078 0.3164,-0.0078 0.0781,-0.0039 0.1485,-0.0039 0.2266,-0.0078 0.0937,-0.0039 0.1875,-0.0039 0.2812,-0.0078 0.0782,-0.0039 0.1641,-0.0039 0.2422,-0.0078 0.0899,-0.0039 0.1836,-0.0039 0.2735,-0.0078 0.082,-0.0039 0.1679,-0.0078 0.246,-0.0078 0.086,-0.004 0.1719,-0.0079 0.2579,-0.0118 0.0859,0 0.1718,-0.0039 0.2539,-0.0078 0.0898,-0.0039 0.1836,-0.0078 0.2734,-0.0117 0.0781,0 0.1563,-0.0039 0.2344,-0.0078 0.1015,-0.0039 0.1992,-0.0078 0.3008,-0.0117 0.0664,-0.0039 0.1406,-0.0078 0.207,-0.0078 0.1055,-0.0079 0.207,-0.0118 0.3086,-0.0157 0.332,-0.0156 0.6758,-0.0312 1.0078,-0.0468 0.0625,-0.0039 0.125,-0.0079 0.1875,-0.0118 0.0898,-0.0039 0.1914,-0.0078 0.2812,-0.0117 0.0782,-0.0039 0.1563,-0.0078 0.2305,-0.0117 0.0899,-0.0078 0.1914,-0.0117 0.2813,-0.0156 0.0742,-0.0039 0.1445,-0.0078 0.2187,-0.0156 0.0977,-0.004 0.207,-0.0118 0.3008,-0.0157 0.0586,-0.0039 0.1211,-0.0078 0.1797,-0.0117 0.1094,-0.0039 0.2265,-0.0117 0.3359,-0.0195 0.0508,-0.0039 0.0977,-0.0039 0.1485,-0.0078 0.1093,-0.0078 0.2304,-0.0157 0.3437,-0.0235 0.0469,-0.0039 0.0938,-0.0039 0.1367,-0.0078 0.5782,-0.039 1.1485,-0.0781 1.7227,-0.1211 0.0273,-0.0039 0.0586,-0.0039 0.0859,-0.0078 0.1289,-0.0078 0.2617,-0.0195 0.3906,-0.0273 0.0313,-0.0039 0.0625,-0.0078 0.0977,-0.0078 0.1328,-0.0118 0.2539,-0.0196 0.3867,-0.0313 0.0352,-0.0039 0.0664,-0.0078 0.1016,-0.0078 0.1289,-0.0117 0.2656,-0.0234 0.3945,-0.0313 0.0274,-0.0039 0.0508,-0.0078 0.0781,-0.0078 0.1329,-0.0117 0.2774,-0.0234 0.4102,-0.0351 0.0156,0 0.0391,-0.0039 0.0586,-0.0039 27.1211,-2.3438 52.4023,-10.836 74.3008,-24.0157 0.039,-0.0195 0.0742,-0.0429 0.1094,-0.0625 C -0.2656,0.1641 -0.1992,0.1211 -0.1211,0.0742 -0.082,0.0508 -0.0391,0.0273 0,0 Z m -88.9531,-334.3594 c 111.8359,0 202.5,87.5274 202.5,195.5 0,107.9727 -90.6641,195.5 -202.5,195.5 -111.836,0 -202.5,-87.5273 -202.5,-195.5 0,-107.9726 90.664,-195.5 202.5,-195.5 z" style="fill-opacity: 1; fill-rule: nonzero; stroke: none; fill: rgb(52, 146, 154);" id="path6959"/>
          </g>
        </g>
      </g>
    </g>
  </g>
</svg>